G04 #@! TF.FileFunction,Soldermask,Bot*
%FSLAX46Y46*%
G04 Gerber Fmt 4.6, Leading zero omitted, Abs format (unit mm)*
G04 Created by KiCad (PCBNEW 4.0.6) date 09/05/17 21:18:10*
%MOMM*%
%LPD*%
G01*
G04 APERTURE LIST*
%ADD10C,0.100000*%
%ADD11R,2.500000X1.100000*%
%ADD12R,1.100000X2.500000*%
%ADD13R,6.200000X6.200000*%
%ADD14C,2.200000*%
%ADD15C,1.700000*%
%ADD16R,4.200000X4.200000*%
%ADD17C,1.950000*%
%ADD18C,2.900000*%
%ADD19R,3.000000X3.200000*%
%ADD20R,1.800000X1.800000*%
%ADD21C,1.800000*%
%ADD22R,2.200000X8.075000*%
%ADD23R,2.600000X2.000000*%
%ADD24R,1.800000X1.400000*%
%ADD25O,5.200000X3.200000*%
%ADD26C,0.600000*%
%ADD27C,0.800000*%
%ADD28C,1.600000*%
%ADD29C,3.200000*%
G04 APERTURE END LIST*
D10*
D11*
X160548000Y-58864000D03*
D12*
X156898000Y-77214000D03*
D11*
X141848000Y-58864000D03*
X160548000Y-60134000D03*
X160548000Y-61404000D03*
X160548000Y-62674000D03*
X160548000Y-63944000D03*
X160548000Y-65214000D03*
X160548000Y-66484000D03*
X160548000Y-67754000D03*
X160548000Y-69024000D03*
X160548000Y-70294000D03*
X160548000Y-71564000D03*
X160548000Y-72834000D03*
X160548000Y-74104000D03*
X160548000Y-75374000D03*
X141848000Y-60134000D03*
X141848000Y-61404000D03*
X141848000Y-62674000D03*
X141848000Y-63944000D03*
X141848000Y-65214000D03*
X141848000Y-66484000D03*
X141848000Y-67754000D03*
X141848000Y-69024000D03*
X141848000Y-70294000D03*
X141848000Y-71564000D03*
X141848000Y-72834000D03*
X141848000Y-74104000D03*
X141848000Y-75374000D03*
D12*
X155628000Y-77214000D03*
X154358000Y-77214000D03*
X153088000Y-77214000D03*
X151818000Y-77214000D03*
X150548000Y-77214000D03*
X149278000Y-77214000D03*
X148008000Y-77214000D03*
X146738000Y-77214000D03*
X145468000Y-77214000D03*
D13*
X150898000Y-66564000D03*
D14*
X173760000Y-54672000D03*
D15*
X189560000Y-66672000D03*
D16*
X201840000Y-65027000D03*
X171840000Y-65027000D03*
D17*
X122084000Y-105540000D03*
X129584000Y-105540000D03*
X127084000Y-105540000D03*
X124584000Y-105540000D03*
D18*
X104000000Y-55000000D03*
D19*
X205142000Y-83338000D03*
X205142000Y-76838000D03*
D20*
X139370000Y-63966000D03*
D21*
X139370000Y-67466000D03*
D20*
X105588000Y-70234000D03*
D21*
X105588000Y-66734000D03*
D20*
X117583000Y-85220000D03*
D21*
X114083000Y-85220000D03*
D22*
X167403840Y-82823540D03*
X167403840Y-94698540D03*
D23*
X110960000Y-77760000D03*
X110960000Y-75220000D03*
X110960000Y-72680000D03*
X110960000Y-70140000D03*
X110960000Y-67600000D03*
X110960000Y-65060000D03*
X110960000Y-62520000D03*
X110960000Y-59980000D03*
X110960000Y-57440000D03*
X110960000Y-54900000D03*
X132160000Y-54900000D03*
X132160000Y-57440000D03*
X132160000Y-59980000D03*
X132160000Y-62520000D03*
X132160000Y-65060000D03*
X132160000Y-67600000D03*
X132160000Y-70140000D03*
X132160000Y-72680000D03*
X132160000Y-75220000D03*
X132160000Y-77760000D03*
D24*
X132160000Y-80300000D03*
D18*
X204000000Y-55000000D03*
X105000000Y-135500000D03*
X203000000Y-107500000D03*
D25*
X106688000Y-89538000D03*
X106688000Y-93498000D03*
X106688000Y-97458000D03*
X106688000Y-101418000D03*
X106590000Y-108490000D03*
X106590000Y-112450000D03*
X106590000Y-116410000D03*
X106590000Y-120370000D03*
D26*
X204888000Y-68583000D03*
D27*
X119290000Y-142243006D03*
D26*
X102413000Y-129773320D03*
D27*
X198044000Y-142370000D03*
X182296000Y-142370000D03*
X166548000Y-142370000D03*
X150800000Y-142370000D03*
X135052000Y-142370000D03*
D26*
X116637000Y-138586000D03*
X122098000Y-133734000D03*
X132512000Y-138713000D03*
X138100000Y-133226000D03*
X153961000Y-133861000D03*
X148373000Y-138306000D03*
X169836000Y-133861000D03*
X164121000Y-138560000D03*
X185584000Y-133861000D03*
X179869000Y-138560000D03*
X201332000Y-133861000D03*
X195617000Y-138560000D03*
X169088000Y-85881000D03*
X168696786Y-81690000D03*
X170496400Y-85270800D03*
X170090000Y-84229400D03*
X168947010Y-92205000D03*
X171467840Y-94222040D03*
X138735000Y-102645004D03*
X173278996Y-90707000D03*
X134530000Y-102111000D03*
X115099000Y-100206000D03*
X115099000Y-116843000D03*
X171233000Y-91062000D03*
X198792000Y-86998000D03*
X108114000Y-61407500D03*
D28*
X136195000Y-70387000D03*
D26*
X112700006Y-74705000D03*
D28*
X136816000Y-54232000D03*
D26*
X108636000Y-72774000D03*
X194996000Y-104550000D03*
X199568000Y-107963004D03*
X190566837Y-104494163D03*
X179615000Y-98428000D03*
X168960996Y-97819000D03*
X179629000Y-97691998D03*
X156261000Y-99343000D03*
X159182000Y-98184000D03*
X121322006Y-144529000D03*
X125987390Y-119764000D03*
X120814000Y-142243000D03*
X199427000Y-138687000D03*
X183806000Y-138560000D03*
X167931000Y-138687000D03*
X152310000Y-138687000D03*
X136435000Y-138433000D03*
X120814000Y-137671000D03*
X120179000Y-144910000D03*
X122338000Y-142370000D03*
X199554000Y-137798000D03*
X184949000Y-138433000D03*
X168058000Y-137798000D03*
X152818000Y-138179000D03*
X137959000Y-138433000D03*
X122338000Y-138179000D03*
X126021000Y-118240000D03*
X192315000Y-88268000D03*
X185203000Y-88395000D03*
X189789000Y-100460000D03*
X193344986Y-94136000D03*
X190519845Y-89750660D03*
X162865000Y-70005998D03*
X162864994Y-68863000D03*
X185330000Y-89919000D03*
X193345000Y-100359000D03*
X192710000Y-94771000D03*
X193345000Y-103407000D03*
X187376000Y-112043000D03*
X192314998Y-90427000D03*
X186600000Y-112779000D03*
X196139000Y-100232000D03*
X188632000Y-92078000D03*
X190004497Y-90373010D03*
X184695000Y-90322050D03*
X148006010Y-126251000D03*
X148119000Y-129162000D03*
X163486000Y-126876000D03*
X163613000Y-129171500D03*
X179488000Y-126749000D03*
X179742000Y-129162000D03*
X195363000Y-126368000D03*
X195744000Y-129416000D03*
X151840333Y-114753500D03*
X144944000Y-116716000D03*
X161454000Y-114430000D03*
X166153000Y-112144000D03*
X166675000Y-99517610D03*
X170485000Y-98819000D03*
X165772000Y-87252000D03*
X173265000Y-86871000D03*
X179628990Y-77626000D03*
X126783000Y-114938000D03*
X178994000Y-77118000D03*
X126656000Y-114303000D03*
X178486000Y-76562390D03*
X126148000Y-115446000D03*
X179742000Y-90807990D03*
X196887000Y-76584000D03*
X117512000Y-109858000D03*
X131863000Y-105667000D03*
X141134000Y-111890000D03*
X158533000Y-97539000D03*
X186487000Y-95406000D03*
X162611000Y-97692000D03*
X165645000Y-97793000D03*
X168947000Y-96396000D03*
X181279992Y-76356000D03*
X125513000Y-104143000D03*
X183298000Y-82045000D03*
X192569000Y-86871000D03*
X185203000Y-86871000D03*
X112813000Y-59947000D03*
X187997000Y-84585000D03*
X192075000Y-84611000D03*
X184568000Y-86368040D03*
X183806000Y-82299000D03*
X109017000Y-66831000D03*
X143688000Y-62640000D03*
X164516000Y-81817000D03*
X147244000Y-69879000D03*
X174168000Y-92231000D03*
X148514000Y-72165000D03*
X163754000Y-87659000D03*
X163773013Y-90580000D03*
X163754000Y-87659000D03*
X143688000Y-64037000D03*
X163754000Y-81944000D03*
X146355000Y-70387000D03*
X147879000Y-72292000D03*
X163119002Y-90199000D03*
X163119000Y-87659000D03*
X171233000Y-91676680D03*
X168946147Y-92859011D03*
X179694840Y-92157840D03*
X185838000Y-89296650D03*
X191045000Y-89204610D03*
X187235000Y-131448000D03*
X183425000Y-131448000D03*
X157886600Y-114130280D03*
X171360000Y-131448000D03*
X167296000Y-131448000D03*
X164121000Y-131194000D03*
X158420000Y-102645000D03*
X147738000Y-113160000D03*
X168326000Y-103661000D03*
X158420000Y-103914986D03*
X151536600Y-118067280D03*
X166776600Y-118067280D03*
X124638000Y-132474000D03*
X152817998Y-121796000D03*
X118897600Y-137498280D03*
X136576000Y-123584000D03*
X154087994Y-121796000D03*
X135026600Y-133942280D03*
X168834000Y-104169004D03*
X158420000Y-104550000D03*
X155346600Y-118098040D03*
X170586600Y-118067280D03*
X169342000Y-104677000D03*
X158420000Y-105185000D03*
X156616600Y-118098040D03*
X171856600Y-118067280D03*
X157404006Y-121822000D03*
X150278000Y-131067000D03*
X160451996Y-102137000D03*
X159168000Y-108842000D03*
X166280000Y-132210000D03*
X157886600Y-112098280D03*
X160325008Y-105185000D03*
X159963539Y-108251344D03*
X171848840Y-108827040D03*
X171975840Y-105144040D03*
X158419976Y-107725000D03*
X158419998Y-105820000D03*
X170578840Y-108827040D03*
X170705840Y-105779040D03*
X157886600Y-113114280D03*
X164744600Y-125687280D03*
X167919600Y-125687280D03*
X181889600Y-133688280D03*
X170866000Y-97803000D03*
X164502000Y-117732000D03*
X140372000Y-123447000D03*
X137242237Y-122004763D03*
X140880000Y-121923000D03*
X141769000Y-123701000D03*
X174168000Y-102518000D03*
X174408000Y-108842000D03*
X136435000Y-118621000D03*
X150913000Y-115827000D03*
X162470000Y-115446000D03*
X166153000Y-113414000D03*
X151548000Y-115318996D03*
X140499000Y-117351000D03*
X161962000Y-114938000D03*
X166153000Y-112779000D03*
X180377000Y-91189000D03*
X197776000Y-76584000D03*
X191807000Y-88776000D03*
X186473000Y-88830000D03*
X164008000Y-71403000D03*
X182296000Y-76229000D03*
X182663000Y-87379000D03*
X194488000Y-87405000D03*
X185330000Y-85855000D03*
X184829110Y-85391967D03*
X191553000Y-85220000D03*
X149022000Y-91850000D03*
X176313000Y-77981000D03*
D27*
X193345000Y-99597000D03*
X171755000Y-58195000D03*
X196760000Y-68964000D03*
X150898000Y-63056000D03*
D28*
X121844000Y-60520610D03*
X122000000Y-77727000D03*
D26*
X118020000Y-114557000D03*
X125386000Y-108715000D03*
D28*
X135560000Y-99134000D03*
D26*
X125767000Y-77760000D03*
D27*
X201854000Y-97549000D03*
D26*
X168993200Y-87887000D03*
X173914004Y-89421000D03*
D28*
X112965400Y-81537000D03*
D26*
X114159200Y-76965000D03*
D28*
X139864000Y-84204000D03*
D26*
X175932000Y-89919000D03*
X116115000Y-128146000D03*
X114464000Y-128146000D03*
D28*
X128956000Y-63630000D03*
X115240000Y-64646000D03*
D26*
X108636000Y-77346000D03*
D28*
X110668000Y-80902000D03*
D27*
X159358500Y-132718000D03*
D28*
X104558000Y-82299000D03*
D27*
X112446000Y-131458000D03*
D28*
X167183000Y-100978000D03*
D27*
X198806000Y-133113000D03*
X190082581Y-132400990D03*
D29*
X145833000Y-100841000D03*
D27*
X183107500Y-132591000D03*
X189902000Y-130622500D03*
X175551000Y-132273500D03*
X166851500Y-133353000D03*
X143864500Y-132400500D03*
X151421000Y-132654500D03*
X116877000Y-131702000D03*
X132498000Y-126876000D03*
X116877000Y-126495000D03*
X133006000Y-131575000D03*
X128053000Y-132464000D03*
X144450000Y-107978994D03*
X189789000Y-106074000D03*
X179502000Y-105439000D03*
D26*
X135052000Y-79023000D03*
X151181000Y-86135000D03*
D27*
X161213994Y-107344000D03*
X158801000Y-61243000D03*
D26*
X205664000Y-79769000D03*
D27*
X197662990Y-107455000D03*
X166661000Y-114049000D03*
X192950000Y-107445000D03*
X177248000Y-110112000D03*
X137832000Y-113076264D03*
X156628000Y-93856000D03*
D26*
X171247000Y-89818000D03*
X166929000Y-88141000D03*
X145466000Y-90199000D03*
X145765999Y-82116999D03*
D27*
X164135000Y-83087000D03*
D26*
X180645000Y-85373000D03*
X173405986Y-81817000D03*
X192709992Y-97565000D03*
X179756000Y-84484000D03*
X194615000Y-97565000D03*
X184074000Y-97565000D03*
X172898000Y-78388000D03*
X170217000Y-78616000D03*
X160438000Y-88141000D03*
X175170010Y-84458000D03*
X183535800Y-95341840D03*
X113067000Y-57407000D03*
X181661000Y-75975000D03*
X186360000Y-84611000D03*
X193218000Y-83722000D03*
X195631000Y-89564000D03*
X183439000Y-80293000D03*
X197775990Y-66932000D03*
X168834000Y-63529000D03*
X195758000Y-65053000D03*
X179756000Y-62640000D03*
X194234000Y-70260000D03*
X193726000Y-69752000D03*
X177851000Y-83214000D03*
X187884000Y-96549000D03*
X173279000Y-91723000D03*
X178994000Y-83341000D03*
X162230000Y-73943000D03*
X162738000Y-75340000D03*
X155499000Y-75721000D03*
X152451000Y-75340000D03*
X153066975Y-75787625D03*
X146482000Y-74705000D03*
X145212000Y-75213000D03*
X175946008Y-74403390D03*
X164135000Y-76483000D03*
X157651927Y-70761927D03*
X161341000Y-76483000D03*
X143561000Y-75213000D03*
X176708000Y-74705000D03*
X164006480Y-77137009D03*
X157023000Y-70641000D03*
X160960000Y-76991000D03*
X193853000Y-92739000D03*
X195250000Y-94771000D03*
X195250000Y-98454000D03*
X181026000Y-88802000D03*
X180772000Y-86897000D03*
X177089000Y-83213994D03*
M02*
