%FSLAX45Y45*%
G04 Gerber Fmt 4.5, Leading zero omitted, Abs format (unit mm)*
G04 Created by KiCad (PCBNEW 4.0.6) date 09/04/17 18:40:54*
%MOMM*%
%LPD*%
G01*
G04 APERTURE LIST*
%ADD10C,0.127000*%
%ADD11C,2.000000*%
%ADD12C,0.200000*%
%ADD13C,0.300000*%
G04 APERTURE END LIST*
D10*
D11*
X20900000Y-15000000D02*
X20900000Y-5000000D01*
X9900000Y-15000000D02*
X20900000Y-15000000D01*
X9900000Y-5000000D02*
X9900000Y-15000000D01*
X20900000Y-5000000D02*
X9900000Y-5000000D01*
D12*
X18881000Y-6592200D02*
X19031000Y-6742200D01*
X19031000Y-6592200D02*
X18881000Y-6742200D01*
X17476000Y-5467200D02*
G75*
G03X17476000Y-5467200I-100000J0D01*
G01*
X10400000Y-5365000D02*
X10400000Y-5635000D01*
X10265000Y-5500000D02*
X10535000Y-5500000D01*
X10500000Y-13415000D02*
X10500000Y-13685000D01*
X10365000Y-13550000D02*
X10635000Y-13550000D01*
X20300000Y-10615000D02*
X20300000Y-10885000D01*
X20165000Y-10750000D02*
X20435000Y-10750000D01*
X20400000Y-5365000D02*
X20400000Y-5635000D01*
X20265000Y-5500000D02*
X20535000Y-5500000D01*
D13*
X10071429Y-15565714D02*
X10071429Y-15265714D01*
X10142857Y-15265714D01*
X10185714Y-15280000D01*
X10214286Y-15308571D01*
X10228571Y-15337143D01*
X10242857Y-15394286D01*
X10242857Y-15437143D01*
X10228571Y-15494286D01*
X10214286Y-15522857D01*
X10185714Y-15551429D01*
X10142857Y-15565714D01*
X10071429Y-15565714D01*
X10371429Y-15565714D02*
X10371429Y-15365714D01*
X10371429Y-15422857D02*
X10385714Y-15394286D01*
X10400000Y-15380000D01*
X10428571Y-15365714D01*
X10457143Y-15365714D01*
X10557143Y-15565714D02*
X10557143Y-15365714D01*
X10557143Y-15265714D02*
X10542857Y-15280000D01*
X10557143Y-15294286D01*
X10571429Y-15280000D01*
X10557143Y-15265714D01*
X10557143Y-15294286D01*
X10742857Y-15565714D02*
X10714286Y-15551429D01*
X10700000Y-15522857D01*
X10700000Y-15265714D01*
X10900000Y-15565714D02*
X10871429Y-15551429D01*
X10857143Y-15522857D01*
X10857143Y-15265714D01*
X11242857Y-15565714D02*
X11242857Y-15265714D01*
X11342857Y-15480000D01*
X11442857Y-15265714D01*
X11442857Y-15565714D01*
X11714286Y-15565714D02*
X11714286Y-15408571D01*
X11700000Y-15380000D01*
X11671428Y-15365714D01*
X11614286Y-15365714D01*
X11585714Y-15380000D01*
X11714286Y-15551429D02*
X11685714Y-15565714D01*
X11614286Y-15565714D01*
X11585714Y-15551429D01*
X11571428Y-15522857D01*
X11571428Y-15494286D01*
X11585714Y-15465714D01*
X11614286Y-15451429D01*
X11685714Y-15451429D01*
X11714286Y-15437143D01*
X11857143Y-15365714D02*
X11857143Y-15665714D01*
X11857143Y-15380000D02*
X11885714Y-15365714D01*
X11942857Y-15365714D01*
X11971428Y-15380000D01*
X11985714Y-15394286D01*
X12000000Y-15422857D01*
X12000000Y-15508571D01*
X11985714Y-15537143D01*
X11971428Y-15551429D01*
X11942857Y-15565714D01*
X11885714Y-15565714D01*
X11857143Y-15551429D01*
X12128571Y-15537143D02*
X12142857Y-15551429D01*
X12128571Y-15565714D01*
X12114286Y-15551429D01*
X12128571Y-15537143D01*
X12128571Y-15565714D01*
X12128571Y-15380000D02*
X12142857Y-15394286D01*
X12128571Y-15408571D01*
X12114286Y-15394286D01*
X12128571Y-15380000D01*
X12128571Y-15408571D01*
X9650000Y-15985000D02*
X9800000Y-16135000D01*
X9800000Y-15985000D02*
X9650000Y-16135000D01*
X10228571Y-16195714D02*
X10057143Y-16195714D01*
X10142857Y-16195714D02*
X10142857Y-15895714D01*
X10114286Y-15938571D01*
X10085714Y-15967143D01*
X10057143Y-15981429D01*
X10357143Y-16167143D02*
X10371429Y-16181429D01*
X10357143Y-16195714D01*
X10342857Y-16181429D01*
X10357143Y-16167143D01*
X10357143Y-16195714D01*
X10642857Y-15895714D02*
X10500000Y-15895714D01*
X10485714Y-16038571D01*
X10500000Y-16024286D01*
X10528571Y-16010000D01*
X10600000Y-16010000D01*
X10628571Y-16024286D01*
X10642857Y-16038571D01*
X10657143Y-16067143D01*
X10657143Y-16138571D01*
X10642857Y-16167143D01*
X10628571Y-16181429D01*
X10600000Y-16195714D01*
X10528571Y-16195714D01*
X10500000Y-16181429D01*
X10485714Y-16167143D01*
X10842857Y-15895714D02*
X10871429Y-15895714D01*
X10900000Y-15910000D01*
X10914286Y-15924286D01*
X10928571Y-15952857D01*
X10942857Y-16010000D01*
X10942857Y-16081429D01*
X10928571Y-16138571D01*
X10914286Y-16167143D01*
X10900000Y-16181429D01*
X10871429Y-16195714D01*
X10842857Y-16195714D01*
X10814286Y-16181429D01*
X10800000Y-16167143D01*
X10785714Y-16138571D01*
X10771429Y-16081429D01*
X10771429Y-16010000D01*
X10785714Y-15952857D01*
X10800000Y-15924286D01*
X10814286Y-15910000D01*
X10842857Y-15895714D01*
X11071429Y-16195714D02*
X11071429Y-15995714D01*
X11071429Y-16024286D02*
X11085714Y-16010000D01*
X11114286Y-15995714D01*
X11157143Y-15995714D01*
X11185714Y-16010000D01*
X11200000Y-16038571D01*
X11200000Y-16195714D01*
X11200000Y-16038571D02*
X11214286Y-16010000D01*
X11242857Y-15995714D01*
X11285714Y-15995714D01*
X11314286Y-16010000D01*
X11328571Y-16038571D01*
X11328571Y-16195714D01*
X11471428Y-16195714D02*
X11471428Y-15995714D01*
X11471428Y-16024286D02*
X11485714Y-16010000D01*
X11514286Y-15995714D01*
X11557143Y-15995714D01*
X11585714Y-16010000D01*
X11600000Y-16038571D01*
X11600000Y-16195714D01*
X11600000Y-16038571D02*
X11614286Y-16010000D01*
X11642857Y-15995714D01*
X11685714Y-15995714D01*
X11714286Y-16010000D01*
X11728571Y-16038571D01*
X11728571Y-16195714D01*
X12314286Y-15881429D02*
X12057143Y-16267143D01*
X12700000Y-15895714D02*
X12728571Y-15895714D01*
X12757143Y-15910000D01*
X12771428Y-15924286D01*
X12785714Y-15952857D01*
X12800000Y-16010000D01*
X12800000Y-16081429D01*
X12785714Y-16138571D01*
X12771428Y-16167143D01*
X12757143Y-16181429D01*
X12728571Y-16195714D01*
X12700000Y-16195714D01*
X12671428Y-16181429D01*
X12657143Y-16167143D01*
X12642857Y-16138571D01*
X12628571Y-16081429D01*
X12628571Y-16010000D01*
X12642857Y-15952857D01*
X12657143Y-15924286D01*
X12671428Y-15910000D01*
X12700000Y-15895714D01*
X12928571Y-16167143D02*
X12942857Y-16181429D01*
X12928571Y-16195714D01*
X12914286Y-16181429D01*
X12928571Y-16167143D01*
X12928571Y-16195714D01*
X13128571Y-15895714D02*
X13157143Y-15895714D01*
X13185714Y-15910000D01*
X13200000Y-15924286D01*
X13214285Y-15952857D01*
X13228571Y-16010000D01*
X13228571Y-16081429D01*
X13214285Y-16138571D01*
X13200000Y-16167143D01*
X13185714Y-16181429D01*
X13157143Y-16195714D01*
X13128571Y-16195714D01*
X13100000Y-16181429D01*
X13085714Y-16167143D01*
X13071428Y-16138571D01*
X13057143Y-16081429D01*
X13057143Y-16010000D01*
X13071428Y-15952857D01*
X13085714Y-15924286D01*
X13100000Y-15910000D01*
X13128571Y-15895714D01*
X13500000Y-15895714D02*
X13357143Y-15895714D01*
X13342857Y-16038571D01*
X13357143Y-16024286D01*
X13385714Y-16010000D01*
X13457143Y-16010000D01*
X13485714Y-16024286D01*
X13500000Y-16038571D01*
X13514285Y-16067143D01*
X13514285Y-16138571D01*
X13500000Y-16167143D01*
X13485714Y-16181429D01*
X13457143Y-16195714D01*
X13385714Y-16195714D01*
X13357143Y-16181429D01*
X13342857Y-16167143D01*
X13657143Y-16195714D02*
X13714285Y-16195714D01*
X13742857Y-16181429D01*
X13757143Y-16167143D01*
X13785714Y-16124286D01*
X13800000Y-16067143D01*
X13800000Y-15952857D01*
X13785714Y-15924286D01*
X13771428Y-15910000D01*
X13742857Y-15895714D01*
X13685714Y-15895714D01*
X13657143Y-15910000D01*
X13642857Y-15924286D01*
X13628571Y-15952857D01*
X13628571Y-16024286D01*
X13642857Y-16052857D01*
X13657143Y-16067143D01*
X13685714Y-16081429D01*
X13742857Y-16081429D01*
X13771428Y-16067143D01*
X13785714Y-16052857D01*
X13800000Y-16024286D01*
X13914286Y-15895714D02*
X13914286Y-15952857D01*
X14028571Y-15895714D02*
X14028571Y-15952857D01*
X14471428Y-16310000D02*
X14457143Y-16295714D01*
X14428571Y-16252857D01*
X14414285Y-16224286D01*
X14400000Y-16181429D01*
X14385714Y-16110000D01*
X14385714Y-16052857D01*
X14400000Y-15981429D01*
X14414285Y-15938571D01*
X14428571Y-15910000D01*
X14457143Y-15867143D01*
X14471428Y-15852857D01*
X14742857Y-16195714D02*
X14571428Y-16195714D01*
X14657143Y-16195714D02*
X14657143Y-15895714D01*
X14628571Y-15938571D01*
X14600000Y-15967143D01*
X14571428Y-15981429D01*
X15100000Y-16195714D02*
X15100000Y-15895714D01*
X15228571Y-16195714D02*
X15228571Y-16038571D01*
X15214285Y-16010000D01*
X15185714Y-15995714D01*
X15142857Y-15995714D01*
X15114285Y-16010000D01*
X15100000Y-16024286D01*
X15414285Y-16195714D02*
X15385714Y-16181429D01*
X15371428Y-16167143D01*
X15357143Y-16138571D01*
X15357143Y-16052857D01*
X15371428Y-16024286D01*
X15385714Y-16010000D01*
X15414285Y-15995714D01*
X15457143Y-15995714D01*
X15485714Y-16010000D01*
X15500000Y-16024286D01*
X15514285Y-16052857D01*
X15514285Y-16138571D01*
X15500000Y-16167143D01*
X15485714Y-16181429D01*
X15457143Y-16195714D01*
X15414285Y-16195714D01*
X15685714Y-16195714D02*
X15657143Y-16181429D01*
X15642857Y-16152857D01*
X15642857Y-15895714D01*
X15914286Y-16181429D02*
X15885714Y-16195714D01*
X15828571Y-16195714D01*
X15800000Y-16181429D01*
X15785714Y-16152857D01*
X15785714Y-16038571D01*
X15800000Y-16010000D01*
X15828571Y-15995714D01*
X15885714Y-15995714D01*
X15914286Y-16010000D01*
X15928571Y-16038571D01*
X15928571Y-16067143D01*
X15785714Y-16095714D01*
X16028571Y-16310000D02*
X16042857Y-16295714D01*
X16071428Y-16252857D01*
X16085714Y-16224286D01*
X16100000Y-16181429D01*
X16114286Y-16110000D01*
X16114286Y-16052857D01*
X16100000Y-15981429D01*
X16085714Y-15938571D01*
X16071428Y-15910000D01*
X16042857Y-15867143D01*
X16028571Y-15852857D01*
X16571428Y-16310000D02*
X16557143Y-16295714D01*
X16528571Y-16252857D01*
X16514286Y-16224286D01*
X16500000Y-16181429D01*
X16485714Y-16110000D01*
X16485714Y-16052857D01*
X16500000Y-15981429D01*
X16514286Y-15938571D01*
X16528571Y-15910000D01*
X16557143Y-15867143D01*
X16571428Y-15852857D01*
X16685714Y-15995714D02*
X16685714Y-16195714D01*
X16685714Y-16024286D02*
X16700000Y-16010000D01*
X16728571Y-15995714D01*
X16771428Y-15995714D01*
X16800000Y-16010000D01*
X16814286Y-16038571D01*
X16814286Y-16195714D01*
X17000000Y-16195714D02*
X16971429Y-16181429D01*
X16957143Y-16167143D01*
X16942857Y-16138571D01*
X16942857Y-16052857D01*
X16957143Y-16024286D01*
X16971429Y-16010000D01*
X17000000Y-15995714D01*
X17042857Y-15995714D01*
X17071429Y-16010000D01*
X17085714Y-16024286D01*
X17100000Y-16052857D01*
X17100000Y-16138571D01*
X17085714Y-16167143D01*
X17071429Y-16181429D01*
X17042857Y-16195714D01*
X17000000Y-16195714D01*
X17185714Y-15995714D02*
X17300000Y-15995714D01*
X17228571Y-15895714D02*
X17228571Y-16152857D01*
X17242857Y-16181429D01*
X17271429Y-16195714D01*
X17300000Y-16195714D01*
X17628571Y-15995714D02*
X17628571Y-16295714D01*
X17628571Y-16010000D02*
X17657143Y-15995714D01*
X17714286Y-15995714D01*
X17742857Y-16010000D01*
X17757143Y-16024286D01*
X17771429Y-16052857D01*
X17771429Y-16138571D01*
X17757143Y-16167143D01*
X17742857Y-16181429D01*
X17714286Y-16195714D01*
X17657143Y-16195714D01*
X17628571Y-16181429D01*
X17942857Y-16195714D02*
X17914286Y-16181429D01*
X17900000Y-16152857D01*
X17900000Y-15895714D01*
X18185714Y-16195714D02*
X18185714Y-16038571D01*
X18171429Y-16010000D01*
X18142857Y-15995714D01*
X18085714Y-15995714D01*
X18057143Y-16010000D01*
X18185714Y-16181429D02*
X18157143Y-16195714D01*
X18085714Y-16195714D01*
X18057143Y-16181429D01*
X18042857Y-16152857D01*
X18042857Y-16124286D01*
X18057143Y-16095714D01*
X18085714Y-16081429D01*
X18157143Y-16081429D01*
X18185714Y-16067143D01*
X18285714Y-15995714D02*
X18400000Y-15995714D01*
X18328572Y-15895714D02*
X18328572Y-16152857D01*
X18342857Y-16181429D01*
X18371429Y-16195714D01*
X18400000Y-16195714D01*
X18614286Y-16181429D02*
X18585714Y-16195714D01*
X18528572Y-16195714D01*
X18500000Y-16181429D01*
X18485714Y-16152857D01*
X18485714Y-16038571D01*
X18500000Y-16010000D01*
X18528572Y-15995714D01*
X18585714Y-15995714D01*
X18614286Y-16010000D01*
X18628572Y-16038571D01*
X18628572Y-16067143D01*
X18485714Y-16095714D01*
X18885714Y-16195714D02*
X18885714Y-15895714D01*
X18885714Y-16181429D02*
X18857143Y-16195714D01*
X18800000Y-16195714D01*
X18771429Y-16181429D01*
X18757143Y-16167143D01*
X18742857Y-16138571D01*
X18742857Y-16052857D01*
X18757143Y-16024286D01*
X18771429Y-16010000D01*
X18800000Y-15995714D01*
X18857143Y-15995714D01*
X18885714Y-16010000D01*
X19000000Y-16310000D02*
X19014286Y-16295714D01*
X19042857Y-16252857D01*
X19057143Y-16224286D01*
X19071429Y-16181429D01*
X19085714Y-16110000D01*
X19085714Y-16052857D01*
X19071429Y-15981429D01*
X19057143Y-15938571D01*
X19042857Y-15910000D01*
X19014286Y-15867143D01*
X19000000Y-15852857D01*
X9800000Y-16456000D02*
G75*
G03X9800000Y-16456000I-100000J0D01*
G01*
X10057143Y-16320286D02*
X10071429Y-16306000D01*
X10100000Y-16291714D01*
X10171429Y-16291714D01*
X10200000Y-16306000D01*
X10214286Y-16320286D01*
X10228571Y-16348857D01*
X10228571Y-16377429D01*
X10214286Y-16420286D01*
X10042857Y-16591714D01*
X10228571Y-16591714D01*
X10357143Y-16563143D02*
X10371429Y-16577429D01*
X10357143Y-16591714D01*
X10342857Y-16577429D01*
X10357143Y-16563143D01*
X10357143Y-16591714D01*
X10557143Y-16291714D02*
X10585714Y-16291714D01*
X10614286Y-16306000D01*
X10628571Y-16320286D01*
X10642857Y-16348857D01*
X10657143Y-16406000D01*
X10657143Y-16477429D01*
X10642857Y-16534571D01*
X10628571Y-16563143D01*
X10614286Y-16577429D01*
X10585714Y-16591714D01*
X10557143Y-16591714D01*
X10528571Y-16577429D01*
X10514286Y-16563143D01*
X10500000Y-16534571D01*
X10485714Y-16477429D01*
X10485714Y-16406000D01*
X10500000Y-16348857D01*
X10514286Y-16320286D01*
X10528571Y-16306000D01*
X10557143Y-16291714D01*
X10842857Y-16291714D02*
X10871429Y-16291714D01*
X10900000Y-16306000D01*
X10914286Y-16320286D01*
X10928571Y-16348857D01*
X10942857Y-16406000D01*
X10942857Y-16477429D01*
X10928571Y-16534571D01*
X10914286Y-16563143D01*
X10900000Y-16577429D01*
X10871429Y-16591714D01*
X10842857Y-16591714D01*
X10814286Y-16577429D01*
X10800000Y-16563143D01*
X10785714Y-16534571D01*
X10771429Y-16477429D01*
X10771429Y-16406000D01*
X10785714Y-16348857D01*
X10800000Y-16320286D01*
X10814286Y-16306000D01*
X10842857Y-16291714D01*
X11071429Y-16591714D02*
X11071429Y-16391714D01*
X11071429Y-16420286D02*
X11085714Y-16406000D01*
X11114286Y-16391714D01*
X11157143Y-16391714D01*
X11185714Y-16406000D01*
X11200000Y-16434571D01*
X11200000Y-16591714D01*
X11200000Y-16434571D02*
X11214286Y-16406000D01*
X11242857Y-16391714D01*
X11285714Y-16391714D01*
X11314286Y-16406000D01*
X11328571Y-16434571D01*
X11328571Y-16591714D01*
X11471428Y-16591714D02*
X11471428Y-16391714D01*
X11471428Y-16420286D02*
X11485714Y-16406000D01*
X11514286Y-16391714D01*
X11557143Y-16391714D01*
X11585714Y-16406000D01*
X11600000Y-16434571D01*
X11600000Y-16591714D01*
X11600000Y-16434571D02*
X11614286Y-16406000D01*
X11642857Y-16391714D01*
X11685714Y-16391714D01*
X11714286Y-16406000D01*
X11728571Y-16434571D01*
X11728571Y-16591714D01*
X12314286Y-16277429D02*
X12057143Y-16663143D01*
X12700000Y-16291714D02*
X12728571Y-16291714D01*
X12757143Y-16306000D01*
X12771428Y-16320286D01*
X12785714Y-16348857D01*
X12800000Y-16406000D01*
X12800000Y-16477429D01*
X12785714Y-16534571D01*
X12771428Y-16563143D01*
X12757143Y-16577429D01*
X12728571Y-16591714D01*
X12700000Y-16591714D01*
X12671428Y-16577429D01*
X12657143Y-16563143D01*
X12642857Y-16534571D01*
X12628571Y-16477429D01*
X12628571Y-16406000D01*
X12642857Y-16348857D01*
X12657143Y-16320286D01*
X12671428Y-16306000D01*
X12700000Y-16291714D01*
X12928571Y-16563143D02*
X12942857Y-16577429D01*
X12928571Y-16591714D01*
X12914286Y-16577429D01*
X12928571Y-16563143D01*
X12928571Y-16591714D01*
X13128571Y-16291714D02*
X13157143Y-16291714D01*
X13185714Y-16306000D01*
X13200000Y-16320286D01*
X13214285Y-16348857D01*
X13228571Y-16406000D01*
X13228571Y-16477429D01*
X13214285Y-16534571D01*
X13200000Y-16563143D01*
X13185714Y-16577429D01*
X13157143Y-16591714D01*
X13128571Y-16591714D01*
X13100000Y-16577429D01*
X13085714Y-16563143D01*
X13071428Y-16534571D01*
X13057143Y-16477429D01*
X13057143Y-16406000D01*
X13071428Y-16348857D01*
X13085714Y-16320286D01*
X13100000Y-16306000D01*
X13128571Y-16291714D01*
X13328571Y-16291714D02*
X13528571Y-16291714D01*
X13400000Y-16591714D01*
X13657143Y-16591714D02*
X13714285Y-16591714D01*
X13742857Y-16577429D01*
X13757143Y-16563143D01*
X13785714Y-16520286D01*
X13800000Y-16463143D01*
X13800000Y-16348857D01*
X13785714Y-16320286D01*
X13771428Y-16306000D01*
X13742857Y-16291714D01*
X13685714Y-16291714D01*
X13657143Y-16306000D01*
X13642857Y-16320286D01*
X13628571Y-16348857D01*
X13628571Y-16420286D01*
X13642857Y-16448857D01*
X13657143Y-16463143D01*
X13685714Y-16477429D01*
X13742857Y-16477429D01*
X13771428Y-16463143D01*
X13785714Y-16448857D01*
X13800000Y-16420286D01*
X13914286Y-16291714D02*
X13914286Y-16348857D01*
X14028571Y-16291714D02*
X14028571Y-16348857D01*
X14471428Y-16706000D02*
X14457143Y-16691714D01*
X14428571Y-16648857D01*
X14414285Y-16620286D01*
X14400000Y-16577429D01*
X14385714Y-16506000D01*
X14385714Y-16448857D01*
X14400000Y-16377429D01*
X14414285Y-16334571D01*
X14428571Y-16306000D01*
X14457143Y-16263143D01*
X14471428Y-16248857D01*
X14742857Y-16591714D02*
X14571428Y-16591714D01*
X14657143Y-16591714D02*
X14657143Y-16291714D01*
X14628571Y-16334571D01*
X14600000Y-16363143D01*
X14571428Y-16377429D01*
X15100000Y-16591714D02*
X15100000Y-16291714D01*
X15228571Y-16591714D02*
X15228571Y-16434571D01*
X15214285Y-16406000D01*
X15185714Y-16391714D01*
X15142857Y-16391714D01*
X15114285Y-16406000D01*
X15100000Y-16420286D01*
X15414285Y-16591714D02*
X15385714Y-16577429D01*
X15371428Y-16563143D01*
X15357143Y-16534571D01*
X15357143Y-16448857D01*
X15371428Y-16420286D01*
X15385714Y-16406000D01*
X15414285Y-16391714D01*
X15457143Y-16391714D01*
X15485714Y-16406000D01*
X15500000Y-16420286D01*
X15514285Y-16448857D01*
X15514285Y-16534571D01*
X15500000Y-16563143D01*
X15485714Y-16577429D01*
X15457143Y-16591714D01*
X15414285Y-16591714D01*
X15685714Y-16591714D02*
X15657143Y-16577429D01*
X15642857Y-16548857D01*
X15642857Y-16291714D01*
X15914286Y-16577429D02*
X15885714Y-16591714D01*
X15828571Y-16591714D01*
X15800000Y-16577429D01*
X15785714Y-16548857D01*
X15785714Y-16434571D01*
X15800000Y-16406000D01*
X15828571Y-16391714D01*
X15885714Y-16391714D01*
X15914286Y-16406000D01*
X15928571Y-16434571D01*
X15928571Y-16463143D01*
X15785714Y-16491714D01*
X16028571Y-16706000D02*
X16042857Y-16691714D01*
X16071428Y-16648857D01*
X16085714Y-16620286D01*
X16100000Y-16577429D01*
X16114286Y-16506000D01*
X16114286Y-16448857D01*
X16100000Y-16377429D01*
X16085714Y-16334571D01*
X16071428Y-16306000D01*
X16042857Y-16263143D01*
X16028571Y-16248857D01*
X16571428Y-16706000D02*
X16557143Y-16691714D01*
X16528571Y-16648857D01*
X16514286Y-16620286D01*
X16500000Y-16577429D01*
X16485714Y-16506000D01*
X16485714Y-16448857D01*
X16500000Y-16377429D01*
X16514286Y-16334571D01*
X16528571Y-16306000D01*
X16557143Y-16263143D01*
X16571428Y-16248857D01*
X16685714Y-16391714D02*
X16685714Y-16591714D01*
X16685714Y-16420286D02*
X16700000Y-16406000D01*
X16728571Y-16391714D01*
X16771428Y-16391714D01*
X16800000Y-16406000D01*
X16814286Y-16434571D01*
X16814286Y-16591714D01*
X17000000Y-16591714D02*
X16971429Y-16577429D01*
X16957143Y-16563143D01*
X16942857Y-16534571D01*
X16942857Y-16448857D01*
X16957143Y-16420286D01*
X16971429Y-16406000D01*
X17000000Y-16391714D01*
X17042857Y-16391714D01*
X17071429Y-16406000D01*
X17085714Y-16420286D01*
X17100000Y-16448857D01*
X17100000Y-16534571D01*
X17085714Y-16563143D01*
X17071429Y-16577429D01*
X17042857Y-16591714D01*
X17000000Y-16591714D01*
X17185714Y-16391714D02*
X17300000Y-16391714D01*
X17228571Y-16291714D02*
X17228571Y-16548857D01*
X17242857Y-16577429D01*
X17271429Y-16591714D01*
X17300000Y-16591714D01*
X17628571Y-16391714D02*
X17628571Y-16691714D01*
X17628571Y-16406000D02*
X17657143Y-16391714D01*
X17714286Y-16391714D01*
X17742857Y-16406000D01*
X17757143Y-16420286D01*
X17771429Y-16448857D01*
X17771429Y-16534571D01*
X17757143Y-16563143D01*
X17742857Y-16577429D01*
X17714286Y-16591714D01*
X17657143Y-16591714D01*
X17628571Y-16577429D01*
X17942857Y-16591714D02*
X17914286Y-16577429D01*
X17900000Y-16548857D01*
X17900000Y-16291714D01*
X18185714Y-16591714D02*
X18185714Y-16434571D01*
X18171429Y-16406000D01*
X18142857Y-16391714D01*
X18085714Y-16391714D01*
X18057143Y-16406000D01*
X18185714Y-16577429D02*
X18157143Y-16591714D01*
X18085714Y-16591714D01*
X18057143Y-16577429D01*
X18042857Y-16548857D01*
X18042857Y-16520286D01*
X18057143Y-16491714D01*
X18085714Y-16477429D01*
X18157143Y-16477429D01*
X18185714Y-16463143D01*
X18285714Y-16391714D02*
X18400000Y-16391714D01*
X18328572Y-16291714D02*
X18328572Y-16548857D01*
X18342857Y-16577429D01*
X18371429Y-16591714D01*
X18400000Y-16591714D01*
X18614286Y-16577429D02*
X18585714Y-16591714D01*
X18528572Y-16591714D01*
X18500000Y-16577429D01*
X18485714Y-16548857D01*
X18485714Y-16434571D01*
X18500000Y-16406000D01*
X18528572Y-16391714D01*
X18585714Y-16391714D01*
X18614286Y-16406000D01*
X18628572Y-16434571D01*
X18628572Y-16463143D01*
X18485714Y-16491714D01*
X18885714Y-16591714D02*
X18885714Y-16291714D01*
X18885714Y-16577429D02*
X18857143Y-16591714D01*
X18800000Y-16591714D01*
X18771429Y-16577429D01*
X18757143Y-16563143D01*
X18742857Y-16534571D01*
X18742857Y-16448857D01*
X18757143Y-16420286D01*
X18771429Y-16406000D01*
X18800000Y-16391714D01*
X18857143Y-16391714D01*
X18885714Y-16406000D01*
X19000000Y-16706000D02*
X19014286Y-16691714D01*
X19042857Y-16648857D01*
X19057143Y-16620286D01*
X19071429Y-16577429D01*
X19085714Y-16506000D01*
X19085714Y-16448857D01*
X19071429Y-16377429D01*
X19057143Y-16334571D01*
X19042857Y-16306000D01*
X19014286Y-16263143D01*
X19000000Y-16248857D01*
X9665000Y-16717000D02*
X9665000Y-16987000D01*
X9530000Y-16852000D02*
X9800000Y-16852000D01*
X10057143Y-16716286D02*
X10071429Y-16702000D01*
X10100000Y-16687714D01*
X10171429Y-16687714D01*
X10200000Y-16702000D01*
X10214286Y-16716286D01*
X10228571Y-16744857D01*
X10228571Y-16773429D01*
X10214286Y-16816286D01*
X10042857Y-16987714D01*
X10228571Y-16987714D01*
X10357143Y-16959143D02*
X10371429Y-16973429D01*
X10357143Y-16987714D01*
X10342857Y-16973429D01*
X10357143Y-16959143D01*
X10357143Y-16987714D01*
X10471428Y-16687714D02*
X10671428Y-16687714D01*
X10542857Y-16987714D01*
X10842857Y-16687714D02*
X10871429Y-16687714D01*
X10900000Y-16702000D01*
X10914286Y-16716286D01*
X10928571Y-16744857D01*
X10942857Y-16802000D01*
X10942857Y-16873429D01*
X10928571Y-16930572D01*
X10914286Y-16959143D01*
X10900000Y-16973429D01*
X10871429Y-16987714D01*
X10842857Y-16987714D01*
X10814286Y-16973429D01*
X10800000Y-16959143D01*
X10785714Y-16930572D01*
X10771429Y-16873429D01*
X10771429Y-16802000D01*
X10785714Y-16744857D01*
X10800000Y-16716286D01*
X10814286Y-16702000D01*
X10842857Y-16687714D01*
X11071429Y-16987714D02*
X11071429Y-16787714D01*
X11071429Y-16816286D02*
X11085714Y-16802000D01*
X11114286Y-16787714D01*
X11157143Y-16787714D01*
X11185714Y-16802000D01*
X11200000Y-16830572D01*
X11200000Y-16987714D01*
X11200000Y-16830572D02*
X11214286Y-16802000D01*
X11242857Y-16787714D01*
X11285714Y-16787714D01*
X11314286Y-16802000D01*
X11328571Y-16830572D01*
X11328571Y-16987714D01*
X11471428Y-16987714D02*
X11471428Y-16787714D01*
X11471428Y-16816286D02*
X11485714Y-16802000D01*
X11514286Y-16787714D01*
X11557143Y-16787714D01*
X11585714Y-16802000D01*
X11600000Y-16830572D01*
X11600000Y-16987714D01*
X11600000Y-16830572D02*
X11614286Y-16802000D01*
X11642857Y-16787714D01*
X11685714Y-16787714D01*
X11714286Y-16802000D01*
X11728571Y-16830572D01*
X11728571Y-16987714D01*
X12314286Y-16673429D02*
X12057143Y-17059143D01*
X12700000Y-16687714D02*
X12728571Y-16687714D01*
X12757143Y-16702000D01*
X12771428Y-16716286D01*
X12785714Y-16744857D01*
X12800000Y-16802000D01*
X12800000Y-16873429D01*
X12785714Y-16930572D01*
X12771428Y-16959143D01*
X12757143Y-16973429D01*
X12728571Y-16987714D01*
X12700000Y-16987714D01*
X12671428Y-16973429D01*
X12657143Y-16959143D01*
X12642857Y-16930572D01*
X12628571Y-16873429D01*
X12628571Y-16802000D01*
X12642857Y-16744857D01*
X12657143Y-16716286D01*
X12671428Y-16702000D01*
X12700000Y-16687714D01*
X12928571Y-16959143D02*
X12942857Y-16973429D01*
X12928571Y-16987714D01*
X12914286Y-16973429D01*
X12928571Y-16959143D01*
X12928571Y-16987714D01*
X13228571Y-16987714D02*
X13057143Y-16987714D01*
X13142857Y-16987714D02*
X13142857Y-16687714D01*
X13114285Y-16730571D01*
X13085714Y-16759143D01*
X13057143Y-16773429D01*
X13414285Y-16687714D02*
X13442857Y-16687714D01*
X13471428Y-16702000D01*
X13485714Y-16716286D01*
X13500000Y-16744857D01*
X13514285Y-16802000D01*
X13514285Y-16873429D01*
X13500000Y-16930572D01*
X13485714Y-16959143D01*
X13471428Y-16973429D01*
X13442857Y-16987714D01*
X13414285Y-16987714D01*
X13385714Y-16973429D01*
X13371428Y-16959143D01*
X13357143Y-16930572D01*
X13342857Y-16873429D01*
X13342857Y-16802000D01*
X13357143Y-16744857D01*
X13371428Y-16716286D01*
X13385714Y-16702000D01*
X13414285Y-16687714D01*
X13771428Y-16687714D02*
X13714285Y-16687714D01*
X13685714Y-16702000D01*
X13671428Y-16716286D01*
X13642857Y-16759143D01*
X13628571Y-16816286D01*
X13628571Y-16930572D01*
X13642857Y-16959143D01*
X13657143Y-16973429D01*
X13685714Y-16987714D01*
X13742857Y-16987714D01*
X13771428Y-16973429D01*
X13785714Y-16959143D01*
X13800000Y-16930572D01*
X13800000Y-16859143D01*
X13785714Y-16830572D01*
X13771428Y-16816286D01*
X13742857Y-16802000D01*
X13685714Y-16802000D01*
X13657143Y-16816286D01*
X13642857Y-16830572D01*
X13628571Y-16859143D01*
X13914286Y-16687714D02*
X13914286Y-16744857D01*
X14028571Y-16687714D02*
X14028571Y-16744857D01*
X14471428Y-17102000D02*
X14457143Y-17087714D01*
X14428571Y-17044857D01*
X14414285Y-17016286D01*
X14400000Y-16973429D01*
X14385714Y-16902000D01*
X14385714Y-16844857D01*
X14400000Y-16773429D01*
X14414285Y-16730571D01*
X14428571Y-16702000D01*
X14457143Y-16659143D01*
X14471428Y-16644857D01*
X14714285Y-16787714D02*
X14714285Y-16987714D01*
X14642857Y-16673429D02*
X14571428Y-16887714D01*
X14757143Y-16887714D01*
X15100000Y-16987714D02*
X15100000Y-16687714D01*
X15228571Y-16987714D02*
X15228571Y-16830572D01*
X15214285Y-16802000D01*
X15185714Y-16787714D01*
X15142857Y-16787714D01*
X15114285Y-16802000D01*
X15100000Y-16816286D01*
X15414285Y-16987714D02*
X15385714Y-16973429D01*
X15371428Y-16959143D01*
X15357143Y-16930572D01*
X15357143Y-16844857D01*
X15371428Y-16816286D01*
X15385714Y-16802000D01*
X15414285Y-16787714D01*
X15457143Y-16787714D01*
X15485714Y-16802000D01*
X15500000Y-16816286D01*
X15514285Y-16844857D01*
X15514285Y-16930572D01*
X15500000Y-16959143D01*
X15485714Y-16973429D01*
X15457143Y-16987714D01*
X15414285Y-16987714D01*
X15685714Y-16987714D02*
X15657143Y-16973429D01*
X15642857Y-16944857D01*
X15642857Y-16687714D01*
X15914286Y-16973429D02*
X15885714Y-16987714D01*
X15828571Y-16987714D01*
X15800000Y-16973429D01*
X15785714Y-16944857D01*
X15785714Y-16830572D01*
X15800000Y-16802000D01*
X15828571Y-16787714D01*
X15885714Y-16787714D01*
X15914286Y-16802000D01*
X15928571Y-16830572D01*
X15928571Y-16859143D01*
X15785714Y-16887714D01*
X16042857Y-16973429D02*
X16071428Y-16987714D01*
X16128571Y-16987714D01*
X16157143Y-16973429D01*
X16171428Y-16944857D01*
X16171428Y-16930572D01*
X16157143Y-16902000D01*
X16128571Y-16887714D01*
X16085714Y-16887714D01*
X16057143Y-16873429D01*
X16042857Y-16844857D01*
X16042857Y-16830572D01*
X16057143Y-16802000D01*
X16085714Y-16787714D01*
X16128571Y-16787714D01*
X16157143Y-16802000D01*
X16271428Y-17102000D02*
X16285714Y-17087714D01*
X16314286Y-17044857D01*
X16328571Y-17016286D01*
X16342857Y-16973429D01*
X16357143Y-16902000D01*
X16357143Y-16844857D01*
X16342857Y-16773429D01*
X16328571Y-16730571D01*
X16314286Y-16702000D01*
X16285714Y-16659143D01*
X16271428Y-16644857D01*
X16814286Y-17102000D02*
X16800000Y-17087714D01*
X16771428Y-17044857D01*
X16757143Y-17016286D01*
X16742857Y-16973429D01*
X16728571Y-16902000D01*
X16728571Y-16844857D01*
X16742857Y-16773429D01*
X16757143Y-16730571D01*
X16771428Y-16702000D01*
X16800000Y-16659143D01*
X16814286Y-16644857D01*
X16928571Y-16787714D02*
X16928571Y-16987714D01*
X16928571Y-16816286D02*
X16942857Y-16802000D01*
X16971428Y-16787714D01*
X17014286Y-16787714D01*
X17042857Y-16802000D01*
X17057143Y-16830572D01*
X17057143Y-16987714D01*
X17242857Y-16987714D02*
X17214286Y-16973429D01*
X17200000Y-16959143D01*
X17185714Y-16930572D01*
X17185714Y-16844857D01*
X17200000Y-16816286D01*
X17214286Y-16802000D01*
X17242857Y-16787714D01*
X17285714Y-16787714D01*
X17314286Y-16802000D01*
X17328571Y-16816286D01*
X17342857Y-16844857D01*
X17342857Y-16930572D01*
X17328571Y-16959143D01*
X17314286Y-16973429D01*
X17285714Y-16987714D01*
X17242857Y-16987714D01*
X17428571Y-16787714D02*
X17542857Y-16787714D01*
X17471429Y-16687714D02*
X17471429Y-16944857D01*
X17485714Y-16973429D01*
X17514286Y-16987714D01*
X17542857Y-16987714D01*
X17871429Y-16787714D02*
X17871429Y-17087714D01*
X17871429Y-16802000D02*
X17900000Y-16787714D01*
X17957143Y-16787714D01*
X17985714Y-16802000D01*
X18000000Y-16816286D01*
X18014286Y-16844857D01*
X18014286Y-16930572D01*
X18000000Y-16959143D01*
X17985714Y-16973429D01*
X17957143Y-16987714D01*
X17900000Y-16987714D01*
X17871429Y-16973429D01*
X18185714Y-16987714D02*
X18157143Y-16973429D01*
X18142857Y-16944857D01*
X18142857Y-16687714D01*
X18428571Y-16987714D02*
X18428571Y-16830572D01*
X18414286Y-16802000D01*
X18385714Y-16787714D01*
X18328571Y-16787714D01*
X18300000Y-16802000D01*
X18428571Y-16973429D02*
X18400000Y-16987714D01*
X18328571Y-16987714D01*
X18300000Y-16973429D01*
X18285714Y-16944857D01*
X18285714Y-16916286D01*
X18300000Y-16887714D01*
X18328571Y-16873429D01*
X18400000Y-16873429D01*
X18428571Y-16859143D01*
X18528571Y-16787714D02*
X18642857Y-16787714D01*
X18571429Y-16687714D02*
X18571429Y-16944857D01*
X18585714Y-16973429D01*
X18614286Y-16987714D01*
X18642857Y-16987714D01*
X18857143Y-16973429D02*
X18828572Y-16987714D01*
X18771429Y-16987714D01*
X18742857Y-16973429D01*
X18728572Y-16944857D01*
X18728572Y-16830572D01*
X18742857Y-16802000D01*
X18771429Y-16787714D01*
X18828572Y-16787714D01*
X18857143Y-16802000D01*
X18871429Y-16830572D01*
X18871429Y-16859143D01*
X18728572Y-16887714D01*
X19128572Y-16987714D02*
X19128572Y-16687714D01*
X19128572Y-16973429D02*
X19100000Y-16987714D01*
X19042857Y-16987714D01*
X19014286Y-16973429D01*
X19000000Y-16959143D01*
X18985714Y-16930572D01*
X18985714Y-16844857D01*
X19000000Y-16816286D01*
X19014286Y-16802000D01*
X19042857Y-16787714D01*
X19100000Y-16787714D01*
X19128572Y-16802000D01*
X19242857Y-17102000D02*
X19257143Y-17087714D01*
X19285714Y-17044857D01*
X19300000Y-17016286D01*
X19314286Y-16973429D01*
X19328572Y-16902000D01*
X19328572Y-16844857D01*
X19314286Y-16773429D01*
X19300000Y-16730571D01*
X19285714Y-16702000D01*
X19257143Y-16659143D01*
X19242857Y-16644857D01*
M02*
