G04 #@! TF.FileFunction,Soldermask,Top*
%FSLAX46Y46*%
G04 Gerber Fmt 4.6, Leading zero omitted, Abs format (unit mm)*
G04 Created by KiCad (PCBNEW 4.0.6) date 09/04/17 18:41:23*
%MOMM*%
%LPD*%
G01*
G04 APERTURE LIST*
%ADD10C,0.100000*%
%ADD11C,1.200000*%
%ADD12R,6.400000X4.400000*%
%ADD13R,2.100000X1.700000*%
%ADD14C,2.400000*%
%ADD15C,1.900000*%
%ADD16R,1.400000X0.650000*%
%ADD17R,0.650000X1.400000*%
%ADD18C,3.400000*%
%ADD19C,2.150000*%
%ADD20C,3.100000*%
%ADD21R,1.150000X1.200000*%
%ADD22R,2.300000X1.500000*%
%ADD23R,1.500000X5.000000*%
%ADD24R,11.200000X9.800000*%
%ADD25R,0.908000X1.543000*%
%ADD26R,1.050000X1.460000*%
%ADD27O,1.873200X1.009600*%
%ADD28R,1.000000X2.350000*%
%ADD29R,1.300000X1.200000*%
%ADD30R,1.200000X1.300000*%
%ADD31R,0.900000X1.300000*%
%ADD32R,1.300000X0.900000*%
%ADD33R,2.100000X2.400000*%
%ADD34R,2.400000X2.100000*%
%ADD35R,1.600000X1.300000*%
%ADD36R,1.200000X1.200000*%
%ADD37R,2.000000X2.000000*%
%ADD38C,2.000000*%
%ADD39R,1.200000X1.150000*%
%ADD40R,3.400000X3.400000*%
%ADD41R,1.900000X2.400000*%
%ADD42R,1.200000X1.900000*%
%ADD43R,13.100000X10.400000*%
%ADD44R,1.500000X4.200000*%
%ADD45R,1.300000X2.800000*%
%ADD46R,2.200000X3.700000*%
%ADD47R,1.050000X2.600000*%
%ADD48R,3.850000X2.550000*%
%ADD49O,1.009600X1.873200*%
%ADD50R,2.800000X1.300000*%
%ADD51R,3.700000X2.200000*%
%ADD52O,5.400000X3.400000*%
G04 APERTURE END LIST*
D10*
D11*
X105600000Y-142000000D02*
G75*
G03X105600000Y-142000000I-600000J0D01*
G01*
X203600000Y-62000000D02*
G75*
G03X203600000Y-62000000I-600000J0D01*
G01*
D12*
X105000000Y-142000000D03*
D13*
X168820000Y-56772000D03*
X194520000Y-56772000D03*
X168820000Y-61852000D03*
X168820000Y-59312000D03*
X194520000Y-59312000D03*
X194520000Y-61852000D03*
D14*
X173760000Y-54672000D03*
D15*
X189560000Y-66672000D03*
D16*
X172244840Y-83868040D03*
X172244840Y-84368040D03*
X172244840Y-84868040D03*
X172244840Y-85368040D03*
X172244840Y-85868040D03*
X172244840Y-86368040D03*
X172244840Y-86868040D03*
X172244840Y-87368040D03*
X172244840Y-87868040D03*
X172244840Y-88368040D03*
X172244840Y-88868040D03*
X172244840Y-89368040D03*
X172244840Y-89868040D03*
X172244840Y-90368040D03*
X172244840Y-90868040D03*
X172244840Y-91368040D03*
D17*
X174194840Y-93318040D03*
X174694840Y-93318040D03*
X175194840Y-93318040D03*
X175694840Y-93318040D03*
X176194840Y-93318040D03*
X176694840Y-93318040D03*
X177194840Y-93318040D03*
X177694840Y-93318040D03*
X178194840Y-93318040D03*
X178694840Y-93318040D03*
X179194840Y-93318040D03*
X179694840Y-93318040D03*
X180194840Y-93318040D03*
X180694840Y-93318040D03*
X181194840Y-93318040D03*
X181694840Y-93318040D03*
D16*
X183644840Y-91368040D03*
X183644840Y-90868040D03*
X183644840Y-90368040D03*
X183644840Y-89868040D03*
X183644840Y-89368040D03*
X183644840Y-88868040D03*
X183644840Y-88368040D03*
X183644840Y-87868040D03*
X183644840Y-87368040D03*
X183644840Y-86868040D03*
X183644840Y-86368040D03*
X183644840Y-85868040D03*
X183644840Y-85368040D03*
X183644840Y-84868040D03*
X183644840Y-84368040D03*
X183644840Y-83868040D03*
D17*
X181694840Y-81918040D03*
X181194840Y-81918040D03*
X180694840Y-81918040D03*
X180194840Y-81918040D03*
X179694840Y-81918040D03*
X179194840Y-81918040D03*
X178694840Y-81918040D03*
X178194840Y-81918040D03*
X177694840Y-81918040D03*
X177194840Y-81918040D03*
X176694840Y-81918040D03*
X176194840Y-81918040D03*
X175694840Y-81918040D03*
X175194840Y-81918040D03*
X174694840Y-81918040D03*
X174194840Y-81918040D03*
D18*
X184314000Y-77346000D03*
D19*
X122084000Y-105540000D03*
X129584000Y-105540000D03*
X127084000Y-105540000D03*
X124584000Y-105540000D03*
D20*
X104000000Y-55000000D03*
D21*
X173880840Y-80494040D03*
X173880840Y-78994040D03*
D22*
X167288840Y-86506040D03*
X167288840Y-84006040D03*
D23*
X118600000Y-73775000D03*
X120300000Y-73775000D03*
X122000000Y-73775000D03*
X123700000Y-73775000D03*
X125400000Y-73775000D03*
D24*
X122000000Y-64625000D03*
D25*
X196506000Y-85220000D03*
X197776000Y-85220000D03*
X199046000Y-85220000D03*
X200316000Y-85220000D03*
X201586000Y-85220000D03*
X202856000Y-85220000D03*
X204126000Y-85220000D03*
X205396000Y-85220000D03*
X205396000Y-75060000D03*
X204126000Y-75060000D03*
X202856000Y-75060000D03*
X201586000Y-75060000D03*
X200316000Y-75060000D03*
X199046000Y-75060000D03*
X197776000Y-75060000D03*
X196506000Y-75060000D03*
D26*
X160250000Y-95337000D03*
X161200000Y-95337000D03*
X162150000Y-95337000D03*
X162150000Y-93137000D03*
X160250000Y-93137000D03*
D27*
X117018000Y-117135242D03*
X117018000Y-118405242D03*
X117018000Y-119675242D03*
X117018000Y-120945242D03*
X122606000Y-120945242D03*
X122606000Y-119675242D03*
X122606000Y-118405242D03*
X122606000Y-117135242D03*
D28*
X162966600Y-119846280D03*
X164236600Y-119846280D03*
X165506600Y-119846280D03*
X166776600Y-119846280D03*
X168046600Y-119846280D03*
X169316600Y-119846280D03*
X170586600Y-119846280D03*
X171856600Y-119846280D03*
X173126600Y-119846280D03*
X174396600Y-119846280D03*
X174396600Y-110446280D03*
X173126600Y-110446280D03*
X171856600Y-110446280D03*
X170586600Y-110446280D03*
X169316600Y-110446280D03*
X168046600Y-110446280D03*
X166776600Y-110446280D03*
X165506600Y-110446280D03*
X164236600Y-110446280D03*
X162966600Y-110446280D03*
X147726600Y-119846280D03*
X148996600Y-119846280D03*
X150266600Y-119846280D03*
X151536600Y-119846280D03*
X152806600Y-119846280D03*
X154076600Y-119846280D03*
X155346600Y-119846280D03*
X156616600Y-119846280D03*
X157886600Y-119846280D03*
X159156600Y-119846280D03*
X159156600Y-110446280D03*
X157886600Y-110446280D03*
X156616600Y-110446280D03*
X155346600Y-110446280D03*
X154076600Y-110446280D03*
X152806600Y-110446280D03*
X151536600Y-110446280D03*
X150266600Y-110446280D03*
X148996600Y-110446280D03*
X147726600Y-110446280D03*
D18*
X105066000Y-125860000D03*
X105066000Y-130305000D03*
X156769000Y-67466000D03*
X102780000Y-78870000D03*
X114972000Y-106810000D03*
X186854000Y-74044000D03*
X161214000Y-85373000D03*
X114210000Y-112017000D03*
X165010000Y-95380000D03*
X117385000Y-98962000D03*
X107860000Y-146180000D03*
X103796000Y-146180000D03*
X142912000Y-120526000D03*
X139102000Y-120526000D03*
X135292000Y-120526000D03*
X142912000Y-115192000D03*
X139102000Y-115192000D03*
X135292000Y-115192000D03*
D29*
X192218000Y-125164000D03*
X192218000Y-127064000D03*
X194218000Y-126114000D03*
X176470000Y-125164000D03*
X176470000Y-127064000D03*
X178470000Y-126114000D03*
X160722000Y-125164000D03*
X160722000Y-127064000D03*
X162722000Y-126114000D03*
X144974000Y-125164000D03*
X144974000Y-127064000D03*
X146974000Y-126114000D03*
X129226000Y-125164000D03*
X129226000Y-127064000D03*
X131226000Y-126114000D03*
X113478000Y-125164000D03*
X113478000Y-127064000D03*
X115478000Y-126114000D03*
D30*
X194168000Y-132480000D03*
X192268000Y-132480000D03*
X193218000Y-134480000D03*
X178420000Y-132480000D03*
X176520000Y-132480000D03*
X177470000Y-134480000D03*
X162672000Y-132480000D03*
X160772000Y-132480000D03*
X161722000Y-134480000D03*
X146924000Y-132480000D03*
X145024000Y-132480000D03*
X145974000Y-134480000D03*
X131176000Y-132480000D03*
X129276000Y-132480000D03*
X130226000Y-134480000D03*
D31*
X196657000Y-65408000D03*
X198157000Y-65408000D03*
D32*
X104494500Y-74564000D03*
X104494500Y-76064000D03*
D31*
X187604000Y-86363000D03*
X186104000Y-86363000D03*
D32*
X128956000Y-78604000D03*
X128956000Y-77104000D03*
X128956000Y-75556000D03*
X128956000Y-74056000D03*
X188632000Y-94340000D03*
X188632000Y-92840000D03*
D31*
X107898000Y-60084000D03*
X109398000Y-60084000D03*
D32*
X122846000Y-113009000D03*
X122846000Y-111509000D03*
D31*
X196506000Y-86998000D03*
X198006000Y-86998000D03*
D32*
X121195000Y-111509000D03*
X121195000Y-113009000D03*
X204380000Y-71655000D03*
X204380000Y-73155000D03*
X194474000Y-76608000D03*
X194474000Y-78108000D03*
D31*
X179202840Y-74537040D03*
X177702840Y-74537040D03*
X179202840Y-76061040D03*
X177702840Y-76061040D03*
D32*
X127559000Y-117377000D03*
X127559000Y-115877000D03*
D31*
X145936000Y-105286000D03*
X144436000Y-105286000D03*
D32*
X172009000Y-76078000D03*
X172009000Y-74578000D03*
X173519000Y-74578000D03*
X173519000Y-76078000D03*
X180504000Y-103762000D03*
X180504000Y-102262000D03*
X178980000Y-103762000D03*
X178980000Y-102262000D03*
X198665000Y-111013000D03*
X198665000Y-112513000D03*
D31*
X161835000Y-91316000D03*
X160335000Y-91316000D03*
D32*
X124892000Y-119790242D03*
X124892000Y-118290242D03*
D31*
X112966000Y-95126000D03*
X114466000Y-95126000D03*
X114466000Y-93348000D03*
X112966000Y-93348000D03*
X200342000Y-124844000D03*
X201842000Y-124844000D03*
X184594000Y-124844000D03*
X186094000Y-124844000D03*
X168846000Y-124844000D03*
X170346000Y-124844000D03*
X153098000Y-124844000D03*
X154598000Y-124844000D03*
X137350000Y-124844000D03*
X138850000Y-124844000D03*
X121602000Y-124844000D03*
X123102000Y-124844000D03*
X197040000Y-124844000D03*
X198540000Y-124844000D03*
X181292000Y-124844000D03*
X182792000Y-124844000D03*
X165544000Y-124844000D03*
X167044000Y-124844000D03*
X149796000Y-124844000D03*
X151296000Y-124844000D03*
X134048000Y-124844000D03*
X135548000Y-124844000D03*
X118300000Y-124844000D03*
X119800000Y-124844000D03*
D32*
X192202000Y-130674000D03*
X192202000Y-129174000D03*
X176454000Y-130674000D03*
X176454000Y-129174000D03*
X160706000Y-130674000D03*
X160706000Y-129174000D03*
X144958000Y-130674000D03*
X144958000Y-129174000D03*
X129210000Y-130674000D03*
X129210000Y-129174000D03*
X113462000Y-130674000D03*
X113462000Y-129174000D03*
X194234000Y-130674000D03*
X194234000Y-129174000D03*
X178486000Y-130674000D03*
X178486000Y-129174000D03*
X162738000Y-130674000D03*
X162738000Y-129174000D03*
X146990000Y-130674000D03*
X146990000Y-129174000D03*
X131242000Y-130674000D03*
X131242000Y-129174000D03*
X115494000Y-130674000D03*
X115494000Y-129174000D03*
D33*
X146456600Y-96318280D03*
X146456600Y-92318280D03*
X150393600Y-96318280D03*
X150393600Y-92318280D03*
D34*
X114274000Y-102238000D03*
X118274000Y-102238000D03*
X114351000Y-91088000D03*
X118351000Y-91088000D03*
D35*
X194318000Y-137290000D03*
X192118000Y-137290000D03*
X178570000Y-137290000D03*
X176370000Y-137290000D03*
X162822000Y-137290000D03*
X160622000Y-137290000D03*
X147074000Y-137290000D03*
X144874000Y-137290000D03*
X131326000Y-137290000D03*
X129126000Y-137290000D03*
X115324000Y-137290000D03*
X113124000Y-137290000D03*
D36*
X105828000Y-76076000D03*
X105828000Y-74576000D03*
X180504000Y-99214000D03*
X180504000Y-100714000D03*
X178980000Y-99214000D03*
X178980000Y-100714000D03*
D21*
X190678000Y-98085000D03*
X190678000Y-99585000D03*
X113194000Y-75707000D03*
X113194000Y-77207000D03*
X158039000Y-61370000D03*
X158039000Y-62870000D03*
X108636000Y-74564000D03*
X108636000Y-76064000D03*
X156515000Y-61394000D03*
X156515000Y-62894000D03*
X179869000Y-113946000D03*
X179869000Y-115446000D03*
D37*
X139370000Y-63966000D03*
D38*
X139370000Y-67466000D03*
D37*
X105588000Y-70234000D03*
D38*
X105588000Y-66734000D03*
D39*
X123610000Y-80902000D03*
X122110000Y-80902000D03*
D21*
X106145500Y-61886000D03*
X106145500Y-63386000D03*
X194474000Y-80878000D03*
X194474000Y-79378000D03*
X128942000Y-109211000D03*
X128942000Y-107711000D03*
X130275500Y-109211000D03*
X130275500Y-107711000D03*
D40*
X156628000Y-87694000D03*
X156628000Y-80194000D03*
X147545000Y-76711000D03*
X140045000Y-76711000D03*
D39*
X204888000Y-69726000D03*
X203388000Y-69726000D03*
X154102000Y-91088000D03*
X152602000Y-91088000D03*
X144045000Y-90707000D03*
X142545000Y-90707000D03*
X115859600Y-80317800D03*
X117359600Y-80317800D03*
D21*
X185056840Y-82579000D03*
X185056840Y-84079000D03*
D39*
X139624000Y-90707000D03*
X141124000Y-90707000D03*
X152578000Y-92866000D03*
X154078000Y-92866000D03*
D21*
X158660000Y-93372000D03*
X158660000Y-94872000D03*
D37*
X117583000Y-85220000D03*
D38*
X114083000Y-85220000D03*
D40*
X140995600Y-93876280D03*
X140995600Y-101376280D03*
D21*
X174896840Y-95123040D03*
X174896840Y-96623040D03*
X137705000Y-96344500D03*
X137705000Y-97844500D03*
X170832840Y-83542040D03*
X170832840Y-82042040D03*
D40*
X130974000Y-112845000D03*
X130974000Y-120345000D03*
D39*
X121094000Y-122596242D03*
X122594000Y-122596242D03*
D21*
X166280000Y-88522000D03*
X166280000Y-90022000D03*
D39*
X114466000Y-96904000D03*
X112966000Y-96904000D03*
X171479840Y-95365040D03*
X172979840Y-95365040D03*
X167923840Y-82030040D03*
X169423840Y-82030040D03*
D21*
X145940840Y-110490040D03*
X145940840Y-111990040D03*
X161180840Y-110617040D03*
X161180840Y-112117040D03*
D39*
X169320840Y-80760040D03*
X170820840Y-80760040D03*
D21*
X169308840Y-84939040D03*
X169308840Y-83439040D03*
D39*
X197040000Y-126876000D03*
X198540000Y-126876000D03*
X181292000Y-126876000D03*
X182792000Y-126876000D03*
X165544000Y-126876000D03*
X167044000Y-126876000D03*
X149796000Y-126876000D03*
X151296000Y-126876000D03*
X134048000Y-126876000D03*
X135548000Y-126876000D03*
X118300000Y-126876000D03*
X119800000Y-126876000D03*
X201842000Y-126876000D03*
X200342000Y-126876000D03*
X186094000Y-126876000D03*
X184594000Y-126876000D03*
X170346000Y-126876000D03*
X168846000Y-126876000D03*
X154598000Y-126876000D03*
X153098000Y-126876000D03*
X138850000Y-126876000D03*
X137350000Y-126876000D03*
X123102000Y-126876000D03*
X121602000Y-126876000D03*
D30*
X115428000Y-132480000D03*
X113528000Y-132480000D03*
X114478000Y-134480000D03*
D39*
X182270000Y-94730040D03*
X180770000Y-94730040D03*
D18*
X172122000Y-100460000D03*
D31*
X123989000Y-107826000D03*
X122489000Y-107826000D03*
D20*
X204000000Y-55000000D03*
X105000000Y-135500000D03*
X203000000Y-107500000D03*
D18*
X201332000Y-88522000D03*
D41*
X195744000Y-108924000D03*
X195744000Y-117224000D03*
X181944000Y-117224000D03*
X181944000Y-108924000D03*
D42*
X192044000Y-114624000D03*
X190944000Y-114624000D03*
X189844000Y-114624000D03*
X188744000Y-114624000D03*
X187644000Y-114624000D03*
X186544000Y-114624000D03*
X185444000Y-114624000D03*
X184344000Y-114624000D03*
D30*
X124563000Y-113001000D03*
X126463000Y-113001000D03*
X125513000Y-111001000D03*
D31*
X113347000Y-119891000D03*
X114847000Y-119891000D03*
D39*
X114847000Y-121415000D03*
X113347000Y-121415000D03*
D31*
X114847000Y-118367000D03*
X113347000Y-118367000D03*
D43*
X128000000Y-88000000D03*
D44*
X125460000Y-98000000D03*
X130540000Y-98000000D03*
D45*
X116301600Y-140450280D03*
X117801600Y-140450280D03*
X119301600Y-140450280D03*
X120801600Y-140450280D03*
X122301600Y-140450280D03*
X123801600Y-140450280D03*
D46*
X113701600Y-145500280D03*
X126401600Y-145500280D03*
D45*
X195041600Y-140450280D03*
X196541600Y-140450280D03*
X198041600Y-140450280D03*
X199541600Y-140450280D03*
X201041600Y-140450280D03*
X202541600Y-140450280D03*
D46*
X192441600Y-145500280D03*
X205141600Y-145500280D03*
D45*
X132049600Y-140450280D03*
X133549600Y-140450280D03*
X135049600Y-140450280D03*
X136549600Y-140450280D03*
X138049600Y-140450280D03*
X139549600Y-140450280D03*
D46*
X129449600Y-145500280D03*
X142149600Y-145500280D03*
D45*
X147797600Y-140450280D03*
X149297600Y-140450280D03*
X150797600Y-140450280D03*
X152297600Y-140450280D03*
X153797600Y-140450280D03*
X155297600Y-140450280D03*
D46*
X145197600Y-145500280D03*
X157897600Y-145500280D03*
D45*
X163545600Y-140450280D03*
X165045600Y-140450280D03*
X166545600Y-140450280D03*
X168045600Y-140450280D03*
X169545600Y-140450280D03*
X171045600Y-140450280D03*
D46*
X160945600Y-145500280D03*
X173645600Y-145500280D03*
D45*
X179293600Y-140450280D03*
X180793600Y-140450280D03*
X182293600Y-140450280D03*
X183793600Y-140450280D03*
X185293600Y-140450280D03*
X186793600Y-140450280D03*
D46*
X176693600Y-145500280D03*
X189393600Y-145500280D03*
D47*
X122606000Y-135601500D03*
X120066000Y-135601500D03*
D48*
X121336000Y-129301500D03*
D47*
X121336000Y-135601500D03*
X123876000Y-135601500D03*
X118796000Y-135601500D03*
X138354000Y-135601500D03*
X135814000Y-135601500D03*
D48*
X137084000Y-129301500D03*
D47*
X137084000Y-135601500D03*
X139624000Y-135601500D03*
X134544000Y-135601500D03*
X154102000Y-135601500D03*
X151562000Y-135601500D03*
D48*
X152832000Y-129301500D03*
D47*
X152832000Y-135601500D03*
X155372000Y-135601500D03*
X150292000Y-135601500D03*
X169850000Y-135601500D03*
X167310000Y-135601500D03*
D48*
X168580000Y-129301500D03*
D47*
X168580000Y-135601500D03*
X171120000Y-135601500D03*
X166040000Y-135601500D03*
X185598000Y-135601500D03*
X183058000Y-135601500D03*
D48*
X184328000Y-129301500D03*
D47*
X184328000Y-135601500D03*
X186868000Y-135601500D03*
X181788000Y-135601500D03*
X201346000Y-135601500D03*
X198806000Y-135601500D03*
D48*
X200076000Y-129301500D03*
D47*
X200076000Y-135601500D03*
X202616000Y-135601500D03*
X197536000Y-135601500D03*
X142710100Y-88184780D03*
X140170100Y-88184780D03*
D48*
X141440100Y-81884780D03*
D47*
X141440100Y-88184780D03*
X143980100Y-88184780D03*
X138900100Y-88184780D03*
X151600100Y-88184780D03*
X149060100Y-88184780D03*
D48*
X150330100Y-81884780D03*
D47*
X150330100Y-88184780D03*
X152870100Y-88184780D03*
X147790100Y-88184780D03*
D32*
X185711000Y-93221000D03*
X185711000Y-91721000D03*
D29*
X117417000Y-111067000D03*
X117417000Y-112967000D03*
X119417000Y-112017000D03*
D18*
X118415000Y-95152000D03*
D49*
X192075000Y-101756000D03*
X193345000Y-101756000D03*
X194615000Y-101756000D03*
X195885000Y-101756000D03*
X195885000Y-96168000D03*
X194615000Y-96168000D03*
X193345000Y-96168000D03*
X192075000Y-96168000D03*
D32*
X194488000Y-85016000D03*
X194488000Y-86516000D03*
D31*
X181419000Y-73435000D03*
X182919000Y-73435000D03*
D18*
X152959000Y-66196000D03*
X149657000Y-68609000D03*
D50*
X199725000Y-99156000D03*
X199725000Y-97656000D03*
X199725000Y-96156000D03*
X199725000Y-94656000D03*
D51*
X204775000Y-101756000D03*
X204875000Y-92056000D03*
D32*
X152451000Y-74705000D03*
X152451000Y-73205000D03*
X154102000Y-74705000D03*
X154102000Y-73205000D03*
X146736000Y-73804000D03*
X146736000Y-72304000D03*
X145212000Y-73804000D03*
X145212000Y-72304000D03*
X143688000Y-73792000D03*
X143688000Y-72292000D03*
X161087000Y-74046000D03*
X161087000Y-72546000D03*
D31*
X145363000Y-62640000D03*
X146863000Y-62640000D03*
X145363000Y-64291000D03*
X146863000Y-64291000D03*
X162079000Y-75340000D03*
X160579000Y-75340000D03*
D32*
X155753000Y-74705000D03*
X155753000Y-73205000D03*
D18*
X168834000Y-73562000D03*
X166700000Y-76864000D03*
X161214000Y-67212000D03*
X186995000Y-80547000D03*
D50*
X141077000Y-106647000D03*
X141077000Y-108147000D03*
D51*
X136027000Y-104047000D03*
X135927000Y-110747000D03*
D50*
X155372000Y-102669000D03*
X155372000Y-104169000D03*
D51*
X150322000Y-100069000D03*
X150222000Y-106769000D03*
D45*
X185181000Y-97622000D03*
X186681000Y-97622000D03*
D46*
X182581000Y-102672000D03*
X189281000Y-102772000D03*
D50*
X199711000Y-118815000D03*
X199711000Y-117315000D03*
D51*
X204761000Y-121415000D03*
X204861000Y-114715000D03*
D52*
X106688000Y-89538000D03*
X106688000Y-93498000D03*
X106688000Y-97458000D03*
X106688000Y-101418000D03*
X106590000Y-108490000D03*
X106590000Y-112450000D03*
X106590000Y-116410000D03*
X106590000Y-120370000D03*
D12*
X203000000Y-62000000D03*
M02*
