G04 #@! TF.FileFunction,Legend,Bot*
%FSLAX46Y46*%
G04 Gerber Fmt 4.6, Leading zero omitted, Abs format (unit mm)*
G04 Created by KiCad (PCBNEW 4.0.6) date 09/06/17 08:45:04*
%MOMM*%
%LPD*%
G01*
G04 APERTURE LIST*
%ADD10C,0.100000*%
%ADD11C,0.400000*%
%ADD12C,0.127000*%
%ADD13C,0.150000*%
%ADD14C,0.120000*%
G04 APERTURE END LIST*
D10*
D11*
X161898000Y-57364000D02*
G75*
G03X161898000Y-57364000I-200000J0D01*
G01*
D12*
X160198000Y-57364000D02*
X142198000Y-57364000D01*
D13*
X160198000Y-76864000D02*
X160198000Y-51371000D01*
X160198000Y-51364000D02*
X142198000Y-51364000D01*
X142198000Y-51364000D02*
X142198000Y-76864000D01*
X142198000Y-76864000D02*
X160198000Y-76864000D01*
X172340000Y-68227000D02*
X172640000Y-68227000D01*
X172340000Y-61827000D02*
X172640000Y-61827000D01*
X201340000Y-68227000D02*
X197040000Y-68227000D01*
X201340000Y-61827000D02*
X197040000Y-61827000D01*
X172635229Y-68244552D02*
G75*
G03X182840000Y-75727000I10204771J3217552D01*
G01*
X197044771Y-68244552D02*
G75*
G02X186840000Y-75727000I-10204771J3217552D01*
G01*
X172635229Y-61809448D02*
G75*
G02X182840000Y-54327000I10204771J-3217552D01*
G01*
X197044771Y-61809448D02*
G75*
G03X186840000Y-54327000I-10204771J-3217552D01*
G01*
X186840000Y-54327000D02*
X182840000Y-54327000D01*
X172340000Y-61827000D02*
X172340000Y-68227000D01*
X186840000Y-75727000D02*
X182840000Y-75727000D01*
X201340000Y-68227000D02*
X201340000Y-61827000D01*
D14*
X164853840Y-94661040D02*
X164853840Y-78686040D01*
X164853840Y-78686040D02*
X169953840Y-78686040D01*
X169953840Y-78686040D02*
X169953840Y-94661040D01*
D13*
X111000000Y-81100000D02*
X111000000Y-52900000D01*
X132200000Y-52900000D02*
X132200000Y-81100000D01*
X111000000Y-52900000D02*
X132200000Y-52900000D01*
X132200000Y-81100000D02*
X111000000Y-81100000D01*
X140354095Y-56250381D02*
X140354095Y-57059905D01*
X140306476Y-57155143D01*
X140258857Y-57202762D01*
X140163619Y-57250381D01*
X139973142Y-57250381D01*
X139877904Y-57202762D01*
X139830285Y-57155143D01*
X139782666Y-57059905D01*
X139782666Y-56250381D01*
X138782666Y-57250381D02*
X139354095Y-57250381D01*
X139068381Y-57250381D02*
X139068381Y-56250381D01*
X139163619Y-56393238D01*
X139258857Y-56488476D01*
X139354095Y-56536095D01*
X138306476Y-57250381D02*
X138116000Y-57250381D01*
X138020761Y-57202762D01*
X137973142Y-57155143D01*
X137877904Y-57012286D01*
X137830285Y-56821810D01*
X137830285Y-56440857D01*
X137877904Y-56345619D01*
X137925523Y-56298000D01*
X138020761Y-56250381D01*
X138211238Y-56250381D01*
X138306476Y-56298000D01*
X138354095Y-56345619D01*
X138401714Y-56440857D01*
X138401714Y-56678952D01*
X138354095Y-56774190D01*
X138306476Y-56821810D01*
X138211238Y-56869429D01*
X138020761Y-56869429D01*
X137925523Y-56821810D01*
X137877904Y-56774190D01*
X137830285Y-56678952D01*
X199210714Y-70950571D02*
X199067857Y-70998190D01*
X199020238Y-71045810D01*
X198972619Y-71141048D01*
X198972619Y-71283905D01*
X199020238Y-71379143D01*
X199067857Y-71426762D01*
X199163095Y-71474381D01*
X199544048Y-71474381D01*
X199544048Y-70474381D01*
X199210714Y-70474381D01*
X199115476Y-70522000D01*
X199067857Y-70569619D01*
X199020238Y-70664857D01*
X199020238Y-70760095D01*
X199067857Y-70855333D01*
X199115476Y-70902952D01*
X199210714Y-70950571D01*
X199544048Y-70950571D01*
X198686905Y-70474381D02*
X198115476Y-70474381D01*
X198401191Y-71474381D02*
X198401191Y-70474381D01*
X197258333Y-71474381D02*
X197829762Y-71474381D01*
X197544048Y-71474381D02*
X197544048Y-70474381D01*
X197639286Y-70617238D01*
X197734524Y-70712476D01*
X197829762Y-70760095D01*
X202570571Y-79278477D02*
X202570571Y-78945143D01*
X203094381Y-78945143D02*
X202094381Y-78945143D01*
X202094381Y-79421334D01*
X203094381Y-80326096D02*
X203094381Y-79754667D01*
X203094381Y-80040381D02*
X202094381Y-80040381D01*
X202237238Y-79945143D01*
X202332476Y-79849905D01*
X202380095Y-79754667D01*
X203094381Y-81278477D02*
X203094381Y-80707048D01*
X203094381Y-80992762D02*
X202094381Y-80992762D01*
X202237238Y-80897524D01*
X202332476Y-80802286D01*
X202380095Y-80707048D01*
X163830030Y-88284849D02*
X164306221Y-88284849D01*
X163306221Y-87951516D02*
X163830030Y-88284849D01*
X163306221Y-88618183D01*
X163401459Y-88903897D02*
X163353840Y-88951516D01*
X163306221Y-89046754D01*
X163306221Y-89284850D01*
X163353840Y-89380088D01*
X163401459Y-89427707D01*
X163496697Y-89475326D01*
X163591935Y-89475326D01*
X163734792Y-89427707D01*
X164306221Y-88856278D01*
X164306221Y-89475326D01*
X123238095Y-64352381D02*
X123238095Y-65161905D01*
X123190476Y-65257143D01*
X123142857Y-65304762D01*
X123047619Y-65352381D01*
X122857142Y-65352381D01*
X122761904Y-65304762D01*
X122714285Y-65257143D01*
X122666666Y-65161905D01*
X122666666Y-64352381D01*
X121666666Y-65352381D02*
X122238095Y-65352381D01*
X121952381Y-65352381D02*
X121952381Y-64352381D01*
X122047619Y-64495238D01*
X122142857Y-64590476D01*
X122238095Y-64638095D01*
X121333333Y-64352381D02*
X120666666Y-64352381D01*
X121095238Y-65352381D01*
M02*
