G04 #@! TF.FileFunction,Copper,L2,Bot,Signal*
%FSLAX46Y46*%
G04 Gerber Fmt 4.6, Leading zero omitted, Abs format (unit mm)*
G04 Created by KiCad (PCBNEW 4.0.6) date 09/05/17 21:18:10*
%MOMM*%
%LPD*%
G01*
G04 APERTURE LIST*
%ADD10C,0.100000*%
%ADD11R,2.300000X0.900000*%
%ADD12R,0.900000X2.300000*%
%ADD13R,6.000000X6.000000*%
%ADD14R,4.000000X4.000000*%
%ADD15C,1.750000*%
%ADD16R,2.800000X3.000000*%
%ADD17R,1.600000X1.600000*%
%ADD18C,1.600000*%
%ADD19R,2.000000X7.875000*%
%ADD20R,2.400000X1.800000*%
%ADD21R,1.600000X1.200000*%
%ADD22O,5.000000X3.000000*%
%ADD23C,0.400000*%
%ADD24C,0.600000*%
%ADD25C,1.400000*%
%ADD26C,3.000000*%
%ADD27C,0.203200*%
%ADD28C,0.900000*%
%ADD29C,1.270000*%
%ADD30C,3.048000*%
%ADD31C,0.508000*%
%ADD32C,0.250000*%
%ADD33C,0.254000*%
G04 APERTURE END LIST*
D10*
D11*
X160548000Y-58864000D03*
D12*
X156898000Y-77214000D03*
D11*
X141848000Y-58864000D03*
X160548000Y-60134000D03*
X160548000Y-61404000D03*
X160548000Y-62674000D03*
X160548000Y-63944000D03*
X160548000Y-65214000D03*
X160548000Y-66484000D03*
X160548000Y-67754000D03*
X160548000Y-69024000D03*
X160548000Y-70294000D03*
X160548000Y-71564000D03*
X160548000Y-72834000D03*
X160548000Y-74104000D03*
X160548000Y-75374000D03*
X141848000Y-60134000D03*
X141848000Y-61404000D03*
X141848000Y-62674000D03*
X141848000Y-63944000D03*
X141848000Y-65214000D03*
X141848000Y-66484000D03*
X141848000Y-67754000D03*
X141848000Y-69024000D03*
X141848000Y-70294000D03*
X141848000Y-71564000D03*
X141848000Y-72834000D03*
X141848000Y-74104000D03*
X141848000Y-75374000D03*
D12*
X155628000Y-77214000D03*
X154358000Y-77214000D03*
X153088000Y-77214000D03*
X151818000Y-77214000D03*
X150548000Y-77214000D03*
X149278000Y-77214000D03*
X148008000Y-77214000D03*
X146738000Y-77214000D03*
X145468000Y-77214000D03*
D13*
X150898000Y-66564000D03*
D14*
X201840000Y-65027000D03*
X171840000Y-65027000D03*
D15*
X122084000Y-105540000D03*
X129584000Y-105540000D03*
X127084000Y-105540000D03*
X124584000Y-105540000D03*
D16*
X205142000Y-83338000D03*
X205142000Y-76838000D03*
D17*
X139370000Y-63966000D03*
D18*
X139370000Y-67466000D03*
D17*
X105588000Y-70234000D03*
D18*
X105588000Y-66734000D03*
D17*
X117583000Y-85220000D03*
D18*
X114083000Y-85220000D03*
D19*
X167403840Y-82823540D03*
X167403840Y-94698540D03*
D20*
X110960000Y-77760000D03*
X110960000Y-75220000D03*
X110960000Y-72680000D03*
X110960000Y-70140000D03*
X110960000Y-67600000D03*
X110960000Y-65060000D03*
X110960000Y-62520000D03*
X110960000Y-59980000D03*
X110960000Y-57440000D03*
X110960000Y-54900000D03*
X132160000Y-54900000D03*
X132160000Y-57440000D03*
X132160000Y-59980000D03*
X132160000Y-62520000D03*
X132160000Y-65060000D03*
X132160000Y-67600000D03*
X132160000Y-70140000D03*
X132160000Y-72680000D03*
X132160000Y-75220000D03*
X132160000Y-77760000D03*
D21*
X132160000Y-80300000D03*
D22*
X106688000Y-89538000D03*
X106688000Y-93498000D03*
X106688000Y-97458000D03*
X106688000Y-101418000D03*
X106590000Y-108490000D03*
X106590000Y-112450000D03*
X106590000Y-116410000D03*
X106590000Y-120370000D03*
D23*
X204888000Y-68583000D03*
D24*
X119290000Y-142243006D03*
D23*
X102413000Y-129773320D03*
D24*
X198044000Y-142370000D03*
X182296000Y-142370000D03*
X166548000Y-142370000D03*
X150800000Y-142370000D03*
X135052000Y-142370000D03*
D23*
X116637000Y-138586000D03*
X122098000Y-133734000D03*
X132512000Y-138713000D03*
X138100000Y-133226000D03*
X153961000Y-133861000D03*
X148373000Y-138306000D03*
X169836000Y-133861000D03*
X164121000Y-138560000D03*
X185584000Y-133861000D03*
X179869000Y-138560000D03*
X201332000Y-133861000D03*
X195617000Y-138560000D03*
X169088000Y-85881000D03*
X168696786Y-81690000D03*
X170496400Y-85270800D03*
X170090000Y-84229400D03*
X168947010Y-92205000D03*
X171467840Y-94222040D03*
X138735000Y-102645004D03*
X173278996Y-90707000D03*
X134530000Y-102111000D03*
X115099000Y-100206000D03*
X115099000Y-116843000D03*
X171233000Y-91062000D03*
X198792000Y-86998000D03*
X108114000Y-61407500D03*
D25*
X136195000Y-70387000D03*
D23*
X112700006Y-74705000D03*
D25*
X136816000Y-54232000D03*
D23*
X108636000Y-72774000D03*
X194996000Y-104550000D03*
X199568000Y-107963004D03*
X190566837Y-104494163D03*
X179615000Y-98428000D03*
X168960996Y-97819000D03*
X179629000Y-97691998D03*
X156261000Y-99343000D03*
X159182000Y-98184000D03*
X121322006Y-144529000D03*
X125987390Y-119764000D03*
X120814000Y-142243000D03*
X199427000Y-138687000D03*
X183806000Y-138560000D03*
X167931000Y-138687000D03*
X152310000Y-138687000D03*
X136435000Y-138433000D03*
X120814000Y-137671000D03*
X120179000Y-144910000D03*
X122338000Y-142370000D03*
X199554000Y-137798000D03*
X184949000Y-138433000D03*
X168058000Y-137798000D03*
X152818000Y-138179000D03*
X137959000Y-138433000D03*
X122338000Y-138179000D03*
X126021000Y-118240000D03*
X192315000Y-88268000D03*
X185203000Y-88395000D03*
X189789000Y-100460000D03*
X193344986Y-94136000D03*
X190519845Y-89750660D03*
X162865000Y-70005998D03*
X162864994Y-68863000D03*
X185330000Y-89919000D03*
X193345000Y-100359000D03*
X192710000Y-94771000D03*
X193345000Y-103407000D03*
X187376000Y-112043000D03*
X192314998Y-90427000D03*
X186600000Y-112779000D03*
X196139000Y-100232000D03*
X188632000Y-92078000D03*
X190004497Y-90373010D03*
X184695000Y-90322050D03*
X148006010Y-126251000D03*
X148119000Y-129162000D03*
X163486000Y-126876000D03*
X163613000Y-129171500D03*
X179488000Y-126749000D03*
X179742000Y-129162000D03*
X195363000Y-126368000D03*
X195744000Y-129416000D03*
X151840333Y-114753500D03*
X144944000Y-116716000D03*
X161454000Y-114430000D03*
X166153000Y-112144000D03*
X166675000Y-99517610D03*
X170485000Y-98819000D03*
X165772000Y-87252000D03*
X173265000Y-86871000D03*
X179628990Y-77626000D03*
X126783000Y-114938000D03*
X178994000Y-77118000D03*
X126656000Y-114303000D03*
X178486000Y-76562390D03*
X126148000Y-115446000D03*
X179742000Y-90807990D03*
X196887000Y-76584000D03*
X117512000Y-109858000D03*
X131863000Y-105667000D03*
X141134000Y-111890000D03*
X158533000Y-97539000D03*
X186487000Y-95406000D03*
X162611000Y-97692000D03*
X165645000Y-97793000D03*
X168947000Y-96396000D03*
X181279992Y-76356000D03*
X125513000Y-104143000D03*
X183298000Y-82045000D03*
X192569000Y-86871000D03*
X185203000Y-86871000D03*
X112813000Y-59947000D03*
X187997000Y-84585000D03*
X192075000Y-84611000D03*
X184568000Y-86368040D03*
X183806000Y-82299000D03*
X109017000Y-66831000D03*
X143688000Y-62640000D03*
X164516000Y-81817000D03*
X147244000Y-69879000D03*
X174168000Y-92231000D03*
X148514000Y-72165000D03*
X163754000Y-87659000D03*
X163773013Y-90580000D03*
X163754000Y-87659000D03*
X143688000Y-64037000D03*
X163754000Y-81944000D03*
X146355000Y-70387000D03*
X147879000Y-72292000D03*
X163119002Y-90199000D03*
X163119000Y-87659000D03*
X171233000Y-91676680D03*
X168946147Y-92859011D03*
X179694840Y-92157840D03*
X185838000Y-89296650D03*
X191045000Y-89204610D03*
X187235000Y-131448000D03*
X183425000Y-131448000D03*
X157886600Y-114130280D03*
X171360000Y-131448000D03*
X167296000Y-131448000D03*
X164121000Y-131194000D03*
X158420000Y-102645000D03*
X147738000Y-113160000D03*
X168326000Y-103661000D03*
X158420000Y-103914986D03*
X151536600Y-118067280D03*
X166776600Y-118067280D03*
X124638000Y-132474000D03*
X152817998Y-121796000D03*
X118897600Y-137498280D03*
X136576000Y-123584000D03*
X154087994Y-121796000D03*
X135026600Y-133942280D03*
X168834000Y-104169004D03*
X158420000Y-104550000D03*
X155346600Y-118098040D03*
X170586600Y-118067280D03*
X169342000Y-104677000D03*
X158420000Y-105185000D03*
X156616600Y-118098040D03*
X171856600Y-118067280D03*
X157404006Y-121822000D03*
X150278000Y-131067000D03*
X160451996Y-102137000D03*
X159168000Y-108842000D03*
X166280000Y-132210000D03*
X157886600Y-112098280D03*
X160325008Y-105185000D03*
X159963539Y-108251344D03*
X171848840Y-108827040D03*
X171975840Y-105144040D03*
X158419976Y-107725000D03*
X158419998Y-105820000D03*
X170578840Y-108827040D03*
X170705840Y-105779040D03*
X157886600Y-113114280D03*
X164744600Y-125687280D03*
X167919600Y-125687280D03*
X181889600Y-133688280D03*
X170866000Y-97803000D03*
X164502000Y-117732000D03*
X140372000Y-123447000D03*
X137242237Y-122004763D03*
X140880000Y-121923000D03*
X141769000Y-123701000D03*
X174168000Y-102518000D03*
X174408000Y-108842000D03*
X136435000Y-118621000D03*
X150913000Y-115827000D03*
X162470000Y-115446000D03*
X166153000Y-113414000D03*
X151548000Y-115318996D03*
X140499000Y-117351000D03*
X161962000Y-114938000D03*
X166153000Y-112779000D03*
X180377000Y-91189000D03*
X197776000Y-76584000D03*
X191807000Y-88776000D03*
X186473000Y-88830000D03*
X164008000Y-71403000D03*
X182296000Y-76229000D03*
X182663000Y-87379000D03*
X194488000Y-87405000D03*
X185330000Y-85855000D03*
X184829110Y-85391967D03*
X191553000Y-85220000D03*
X149022000Y-91850000D03*
X176313000Y-77981000D03*
D24*
X193345000Y-99597000D03*
X171755000Y-58195000D03*
X196760000Y-68964000D03*
X150898000Y-63056000D03*
D25*
X121844000Y-60520610D03*
X122000000Y-77727000D03*
D23*
X118020000Y-114557000D03*
X125386000Y-108715000D03*
D25*
X135560000Y-99134000D03*
D23*
X125767000Y-77760000D03*
D24*
X201854000Y-97549000D03*
D23*
X168993200Y-87887000D03*
X173914004Y-89421000D03*
D25*
X112965400Y-81537000D03*
D23*
X114159200Y-76965000D03*
D25*
X139864000Y-84204000D03*
D23*
X175932000Y-89919000D03*
X116115000Y-128146000D03*
X114464000Y-128146000D03*
D25*
X128956000Y-63630000D03*
X115240000Y-64646000D03*
D23*
X108636000Y-77346000D03*
D25*
X110668000Y-80902000D03*
D24*
X159358500Y-132718000D03*
D25*
X104558000Y-82299000D03*
D24*
X112446000Y-131458000D03*
D25*
X167183000Y-100978000D03*
D24*
X198806000Y-133113000D03*
X190082581Y-132400990D03*
D26*
X145833000Y-100841000D03*
D24*
X183107500Y-132591000D03*
X189902000Y-130622500D03*
X175551000Y-132273500D03*
X166851500Y-133353000D03*
X143864500Y-132400500D03*
X151421000Y-132654500D03*
X116877000Y-131702000D03*
X132498000Y-126876000D03*
X116877000Y-126495000D03*
X133006000Y-131575000D03*
X128053000Y-132464000D03*
X144450000Y-107978994D03*
X189789000Y-106074000D03*
X179502000Y-105439000D03*
D23*
X135052000Y-79023000D03*
X151181000Y-86135000D03*
D24*
X161213994Y-107344000D03*
X158801000Y-61243000D03*
D23*
X205664000Y-79769000D03*
D24*
X197662990Y-107455000D03*
X166661000Y-114049000D03*
X192950000Y-107445000D03*
X177248000Y-110112000D03*
X137832000Y-113076264D03*
X156628000Y-93856000D03*
D23*
X171247000Y-89818000D03*
X166929000Y-88141000D03*
X145466000Y-90199000D03*
X145765999Y-82116999D03*
D24*
X164135000Y-83087000D03*
D23*
X180645000Y-85373000D03*
X173405986Y-81817000D03*
X192709992Y-97565000D03*
X179756000Y-84484000D03*
X194615000Y-97565000D03*
X184074000Y-97565000D03*
X172898000Y-78388000D03*
X170217000Y-78616000D03*
X160438000Y-88141000D03*
X175170010Y-84458000D03*
X183535800Y-95341840D03*
X113067000Y-57407000D03*
X181661000Y-75975000D03*
X186360000Y-84611000D03*
X193218000Y-83722000D03*
X195631000Y-89564000D03*
X183439000Y-80293000D03*
X197775990Y-66932000D03*
X168834000Y-63529000D03*
X195758000Y-65053000D03*
X179756000Y-62640000D03*
X194234000Y-70260000D03*
X193726000Y-69752000D03*
X177851000Y-83214000D03*
X187884000Y-96549000D03*
X173279000Y-91723000D03*
X178994000Y-83341000D03*
X162230000Y-73943000D03*
X162738000Y-75340000D03*
X155499000Y-75721000D03*
X152451000Y-75340000D03*
X153066975Y-75787625D03*
X146482000Y-74705000D03*
X145212000Y-75213000D03*
X175946008Y-74403390D03*
X164135000Y-76483000D03*
X157651927Y-70761927D03*
X161341000Y-76483000D03*
X143561000Y-75213000D03*
X176708000Y-74705000D03*
X164006480Y-77137009D03*
X157023000Y-70641000D03*
X160960000Y-76991000D03*
X193853000Y-92739000D03*
X195250000Y-94771000D03*
X195250000Y-98454000D03*
X181026000Y-88802000D03*
X180772000Y-86897000D03*
X177089000Y-83213994D03*
D27*
X203192800Y-68583000D02*
X204463736Y-68583000D01*
X204463736Y-68583000D02*
X204888000Y-68583000D01*
X201840000Y-65027000D02*
X201840000Y-67230200D01*
X201840000Y-67230200D02*
X203192800Y-68583000D01*
D28*
X135052000Y-142370000D02*
X135052000Y-146942000D01*
X150800000Y-142370000D02*
X150800000Y-146942000D01*
X119290000Y-142243006D02*
X119290000Y-146928000D01*
X119290000Y-146928000D02*
X119304000Y-146942000D01*
D29*
X102413000Y-129773320D02*
X102413000Y-124547000D01*
X102413000Y-124547000D02*
X106590000Y-120370000D01*
D30*
X119304000Y-146942000D02*
X113000518Y-146942000D01*
X113000518Y-146942000D02*
X110668000Y-144609482D01*
X110668000Y-144609482D02*
X110668000Y-132474000D01*
X110668000Y-132474000D02*
X109652000Y-131458000D01*
X109652000Y-131458000D02*
X108636000Y-130442000D01*
X108636000Y-130442000D02*
X108636000Y-122416000D01*
X108636000Y-122416000D02*
X106590000Y-120370000D01*
X182296000Y-146942000D02*
X198044000Y-146942000D01*
X166548000Y-146942000D02*
X182296000Y-146942000D01*
X150800000Y-146942000D02*
X166548000Y-146942000D01*
X135052000Y-146942000D02*
X150800000Y-146942000D01*
X119304000Y-146942000D02*
X135052000Y-146942000D01*
X106590000Y-101320000D02*
X104982000Y-101320000D01*
X104982000Y-101320000D02*
X102032000Y-104270000D01*
X102032000Y-104270000D02*
X102032000Y-119256000D01*
X102032000Y-119256000D02*
X103146000Y-120370000D01*
X103146000Y-120370000D02*
X106590000Y-120370000D01*
D28*
X182296000Y-142370000D02*
X182296000Y-146942000D01*
D31*
X182296000Y-146942000D02*
X182296000Y-146180000D01*
X182296000Y-146180000D02*
X182296000Y-146942000D01*
D28*
X166548000Y-142370000D02*
X166548000Y-146942000D01*
D31*
X166548000Y-146942000D02*
X166548000Y-146180000D01*
X166548000Y-146180000D02*
X166548000Y-146942000D01*
X150800000Y-146942000D02*
X150800000Y-146434000D01*
X150800000Y-146434000D02*
X150800000Y-146942000D01*
X135052000Y-146942000D02*
X135052000Y-146434000D01*
X135052000Y-146434000D02*
X135052000Y-146942000D01*
X119304000Y-146942000D02*
X119304000Y-145926000D01*
X119304000Y-145926000D02*
X119304000Y-146942000D01*
D28*
X198044000Y-142370000D02*
X198044000Y-146942000D01*
D31*
X198044000Y-146942000D02*
X198044000Y-146180000D01*
X198044000Y-146180000D02*
X198044000Y-146942000D01*
D32*
X116637000Y-138303158D02*
X116637000Y-138586000D01*
X116637000Y-136147000D02*
X116637000Y-138303158D01*
X119043000Y-133741000D02*
X116637000Y-136147000D01*
X122091000Y-133741000D02*
X119043000Y-133741000D01*
X122098000Y-133734000D02*
X122091000Y-133741000D01*
X119050000Y-133734000D02*
X119043000Y-133741000D01*
D33*
X138100000Y-133226000D02*
X134544000Y-133226000D01*
X132512000Y-138430158D02*
X132512000Y-138713000D01*
X132512000Y-135258000D02*
X132512000Y-138430158D01*
X134544000Y-133226000D02*
X132512000Y-135258000D01*
D32*
X152818000Y-133861000D02*
X153961000Y-133861000D01*
X148373000Y-138306000D02*
X152818000Y-133861000D01*
X168820000Y-133861000D02*
X169836000Y-133861000D01*
X164121000Y-138560000D02*
X168820000Y-133861000D01*
X184568000Y-133861000D02*
X185584000Y-133861000D01*
X179869000Y-138560000D02*
X184568000Y-133861000D01*
X200316000Y-133861000D02*
X201332000Y-133861000D01*
X195617000Y-138560000D02*
X200316000Y-133861000D01*
D27*
X167403840Y-82823540D02*
X167403840Y-85085840D01*
X167403840Y-85085840D02*
X168199000Y-85881000D01*
X168199000Y-85881000D02*
X169088000Y-85881000D01*
D33*
X167403840Y-82823540D02*
X167403840Y-82739160D01*
X168188786Y-82198000D02*
X168696786Y-81690000D01*
X167403840Y-82739160D02*
X167945000Y-82198000D01*
X167945000Y-82198000D02*
X168188786Y-82198000D01*
X167403840Y-84570040D02*
X167403840Y-82823540D01*
D27*
X170296401Y-85070801D02*
X170496400Y-85270800D01*
X170090000Y-84229400D02*
X170090000Y-84864400D01*
X170090000Y-84864400D02*
X170296401Y-85070801D01*
D33*
X168747011Y-92404999D02*
X168947010Y-92205000D01*
X167403840Y-93748170D02*
X168747011Y-92404999D01*
X167403840Y-94698540D02*
X167403840Y-93748170D01*
X170991340Y-94698540D02*
X167403840Y-94698540D01*
X171467840Y-94222040D02*
X170991340Y-94698540D01*
X167403840Y-94730040D02*
X167403840Y-94698540D01*
D32*
X139017842Y-102645004D02*
X138735000Y-102645004D01*
X152988442Y-88801400D02*
X139144838Y-102645004D01*
X169196438Y-88801400D02*
X152988442Y-88801400D01*
X170902039Y-90507001D02*
X169196438Y-88801400D01*
X173078997Y-90507001D02*
X170902039Y-90507001D01*
X173278996Y-90707000D02*
X173078997Y-90507001D01*
X139144838Y-102645004D02*
X139017842Y-102645004D01*
X134247158Y-102111000D02*
X134530000Y-102111000D01*
X117004000Y-102111000D02*
X134247158Y-102111000D01*
X115099000Y-100206000D02*
X117004000Y-102111000D01*
D27*
X115298999Y-116643001D02*
X115099000Y-116843000D01*
X126481399Y-116001601D02*
X115940399Y-116001601D01*
X129831000Y-112652000D02*
X126481399Y-116001601D01*
X115940399Y-116001601D02*
X115298999Y-116643001D01*
D32*
X153171611Y-89311389D02*
X168966470Y-89311389D01*
X171133389Y-90962389D02*
X171233000Y-91062000D01*
X170617469Y-90962389D02*
X171133389Y-90962389D01*
X168966470Y-89311389D02*
X170617469Y-90962389D01*
X129831000Y-112652000D02*
X153171611Y-89311389D01*
D27*
X201582000Y-86998000D02*
X198792000Y-86998000D01*
X205142000Y-83338000D02*
X205142000Y-83438000D01*
X205142000Y-83438000D02*
X201582000Y-86998000D01*
D33*
X110960000Y-62520000D02*
X109226500Y-62520000D01*
X109226500Y-62520000D02*
X108114000Y-61407500D01*
D29*
X136816000Y-54232000D02*
X136816000Y-69766000D01*
X136816000Y-69766000D02*
X136195000Y-70387000D01*
D27*
X112700006Y-74883194D02*
X112700006Y-74705000D01*
X112363200Y-75220000D02*
X112700006Y-74883194D01*
X110960000Y-75220000D02*
X112363200Y-75220000D01*
D33*
X108636000Y-72774000D02*
X108636000Y-72680000D01*
X108636000Y-72680000D02*
X108636000Y-72774000D01*
X108636000Y-72774000D02*
X108636000Y-72680000D01*
D29*
X110960000Y-72680000D02*
X110960000Y-75220000D01*
X105588000Y-70234000D02*
X105588000Y-72680000D01*
X105588000Y-72680000D02*
X108636000Y-72680000D01*
X108636000Y-72680000D02*
X110960000Y-72680000D01*
D33*
X195278842Y-104550000D02*
X194996000Y-104550000D01*
X196154996Y-104550000D02*
X195278842Y-104550000D01*
X199568000Y-107963004D02*
X196154996Y-104550000D01*
X179615000Y-98428000D02*
X180885000Y-99698000D01*
X180885000Y-99698000D02*
X184912076Y-99698000D01*
X184912076Y-99698000D02*
X189708239Y-104494163D01*
X189708239Y-104494163D02*
X190283995Y-104494163D01*
X190283995Y-104494163D02*
X190566837Y-104494163D01*
D27*
X169160995Y-97619001D02*
X168960996Y-97819000D01*
X179629000Y-97691998D02*
X179302003Y-97365001D01*
X179302003Y-97365001D02*
X169414995Y-97365001D01*
X169414995Y-97365001D02*
X169160995Y-97619001D01*
X156460999Y-99143001D02*
X156261000Y-99343000D01*
X157420000Y-98184000D02*
X156460999Y-99143001D01*
X159182000Y-98184000D02*
X157420000Y-98184000D01*
X121122007Y-144329001D02*
X121322006Y-144529000D01*
X120814000Y-144020994D02*
X121122007Y-144329001D01*
X120814000Y-142243000D02*
X120814000Y-144020994D01*
X125987390Y-119764000D02*
X125987390Y-136712610D01*
X125987390Y-136712610D02*
X125283000Y-137417000D01*
X125283000Y-137417000D02*
X121068000Y-137417000D01*
X121068000Y-137417000D02*
X120814000Y-137671000D01*
D32*
X182028000Y-140338000D02*
X197776000Y-140338000D01*
X197776000Y-140338000D02*
X199427000Y-138687000D01*
X166407000Y-140338000D02*
X182028000Y-140338000D01*
X182028000Y-140338000D02*
X183806000Y-138560000D01*
X150659000Y-140338000D02*
X166407000Y-140338000D01*
X167931000Y-138814000D02*
X167931000Y-138687000D01*
X166407000Y-140338000D02*
X167931000Y-138814000D01*
X134530000Y-140338000D02*
X150659000Y-140338000D01*
X150659000Y-140338000D02*
X152310000Y-138687000D01*
X120814000Y-137671000D02*
X120814000Y-138560000D01*
X134530000Y-140338000D02*
X136435000Y-138433000D01*
X122592000Y-140338000D02*
X134530000Y-140338000D01*
X120814000Y-138560000D02*
X122592000Y-140338000D01*
D27*
X120378999Y-145109999D02*
X120179000Y-144910000D01*
X121629333Y-145109999D02*
X120378999Y-145109999D01*
X122338000Y-142370000D02*
X122338000Y-144401332D01*
X122338000Y-144401332D02*
X121629333Y-145109999D01*
D33*
X128561000Y-139830000D02*
X127136988Y-139830000D01*
X127136988Y-139830000D02*
X125485988Y-138179000D01*
D27*
X126220999Y-118439999D02*
X126021000Y-118240000D01*
X126416000Y-118635000D02*
X126220999Y-118439999D01*
X125485988Y-138179000D02*
X126416000Y-137248988D01*
X122338000Y-138179000D02*
X125485988Y-138179000D01*
X126416000Y-137248988D02*
X126416000Y-118635000D01*
D32*
X184949000Y-138433000D02*
X184949000Y-139068000D01*
X197522000Y-139830000D02*
X199554000Y-137798000D01*
X185711000Y-139830000D02*
X197522000Y-139830000D01*
X184949000Y-139068000D02*
X185711000Y-139830000D01*
X168058000Y-137798000D02*
X168185000Y-137798000D01*
X184441000Y-137925000D02*
X184949000Y-138433000D01*
X183425000Y-137925000D02*
X184441000Y-137925000D01*
X181774000Y-139576000D02*
X183425000Y-137925000D01*
X169963000Y-139576000D02*
X181774000Y-139576000D01*
X168185000Y-137798000D02*
X169963000Y-139576000D01*
X152818000Y-138179000D02*
X152818000Y-138306000D01*
X166026000Y-139830000D02*
X168058000Y-137798000D01*
X154342000Y-139830000D02*
X166026000Y-139830000D01*
X152818000Y-138306000D02*
X154342000Y-139830000D01*
X137959000Y-138433000D02*
X137959000Y-138814000D01*
X152691000Y-138052000D02*
X152818000Y-138179000D01*
X152056000Y-138052000D02*
X152691000Y-138052000D01*
X150278000Y-139830000D02*
X152056000Y-138052000D01*
X138975000Y-139830000D02*
X150278000Y-139830000D01*
X137959000Y-138814000D02*
X138975000Y-139830000D01*
X135546000Y-138179000D02*
X135927000Y-137798000D01*
X128561000Y-139830000D02*
X133895000Y-139830000D01*
X133895000Y-139830000D02*
X135546000Y-138179000D01*
X137324000Y-137798000D02*
X137959000Y-138433000D01*
X135927000Y-137798000D02*
X137324000Y-137798000D01*
D27*
X186363078Y-88268000D02*
X186236078Y-88395000D01*
X192315000Y-88268000D02*
X186363078Y-88268000D01*
X186236078Y-88395000D02*
X185203000Y-88395000D01*
X193062144Y-94136000D02*
X193344986Y-94136000D01*
X192583000Y-94136000D02*
X193062144Y-94136000D01*
X189789000Y-96930000D02*
X192583000Y-94136000D01*
X189789000Y-100460000D02*
X189789000Y-96930000D01*
X162864994Y-70005992D02*
X162865000Y-70005998D01*
X162864994Y-68863000D02*
X162864994Y-70005992D01*
X185330000Y-89919000D02*
X185457000Y-89792000D01*
X185457000Y-89792000D02*
X190478505Y-89792000D01*
X190478505Y-89792000D02*
X190519845Y-89750660D01*
X187376000Y-112043000D02*
X187376000Y-110392000D01*
X187376000Y-110392000D02*
X193345000Y-104423000D01*
X193345000Y-104423000D02*
X193345000Y-103407000D01*
X192710000Y-94771000D02*
X192075000Y-95406000D01*
X192075000Y-95406000D02*
X192075000Y-99089000D01*
X192075000Y-99089000D02*
X193345000Y-100359000D01*
X192261008Y-90373010D02*
X192314998Y-90427000D01*
X190004497Y-90373010D02*
X192261008Y-90373010D01*
X196139000Y-100514842D02*
X196139000Y-100232000D01*
X186600000Y-112779000D02*
X187779924Y-112779000D01*
X187779924Y-112779000D02*
X192129001Y-108429923D01*
X192129001Y-108429923D02*
X192129001Y-106527999D01*
X192129001Y-106527999D02*
X196139000Y-102518000D01*
X196139000Y-102518000D02*
X196139000Y-100514842D01*
X188632000Y-92078000D02*
X188632000Y-91737000D01*
X188632000Y-91737000D02*
X189995990Y-90373010D01*
X189995990Y-90373010D02*
X190004497Y-90373010D01*
X189721655Y-90373010D02*
X190004497Y-90373010D01*
X184695000Y-90322050D02*
X184977842Y-90322050D01*
X184977842Y-90322050D02*
X185028802Y-90373010D01*
X185028802Y-90373010D02*
X189721655Y-90373010D01*
X148119000Y-126363990D02*
X148006010Y-126251000D01*
X148119000Y-129162000D02*
X148119000Y-126363990D01*
X163613000Y-129171500D02*
X163613000Y-127003000D01*
X163613000Y-127003000D02*
X163486000Y-126876000D01*
X179742000Y-129162000D02*
X179488000Y-128908000D01*
X179488000Y-128908000D02*
X179488000Y-126749000D01*
X195744000Y-129416000D02*
X195363000Y-129035000D01*
X195363000Y-129035000D02*
X195363000Y-126368000D01*
X144944000Y-116716000D02*
X148246000Y-116716000D01*
X150208500Y-114753500D02*
X151557491Y-114753500D01*
X148246000Y-116716000D02*
X150208500Y-114753500D01*
X151557491Y-114753500D02*
X151840333Y-114753500D01*
X163435210Y-112448790D02*
X161454000Y-114430000D01*
X166153000Y-112144000D02*
X165870158Y-112144000D01*
X165870158Y-112144000D02*
X165565368Y-112448790D01*
X165565368Y-112448790D02*
X163435210Y-112448790D01*
X169786390Y-99517610D02*
X166957842Y-99517610D01*
X170485000Y-98819000D02*
X169786390Y-99517610D01*
X166957842Y-99517610D02*
X166675000Y-99517610D01*
X172474158Y-87379000D02*
X165899000Y-87379000D01*
X165899000Y-87379000D02*
X165772000Y-87252000D01*
X173265000Y-86871000D02*
X172982158Y-86871000D01*
X172982158Y-86871000D02*
X172474158Y-87379000D01*
X126783000Y-114938000D02*
X129069000Y-112652000D01*
X162230000Y-82071000D02*
X166852789Y-77448211D01*
X129069000Y-112652000D02*
X129069000Y-111168000D01*
X129069000Y-111168000D02*
X158166000Y-82071000D01*
X158166000Y-82071000D02*
X162230000Y-82071000D01*
X166852789Y-77448211D02*
X176826856Y-77448211D01*
X176826856Y-77448211D02*
X177004645Y-77626000D01*
X177004645Y-77626000D02*
X179346148Y-77626000D01*
X179346148Y-77626000D02*
X179628990Y-77626000D01*
X126656000Y-114303000D02*
X126656000Y-112946000D01*
X166802000Y-76991000D02*
X178584158Y-76991000D01*
X126656000Y-112946000D02*
X157912000Y-81690000D01*
X157912000Y-81690000D02*
X162103000Y-81690000D01*
X162103000Y-81690000D02*
X166802000Y-76991000D01*
X178584158Y-76991000D02*
X178711158Y-77118000D01*
X178711158Y-77118000D02*
X178994000Y-77118000D01*
X126148000Y-115446000D02*
X126148000Y-112819000D01*
X161976000Y-81309000D02*
X166722610Y-76562390D01*
X126148000Y-112819000D02*
X157658000Y-81309000D01*
X157658000Y-81309000D02*
X161976000Y-81309000D01*
X166722610Y-76562390D02*
X178203158Y-76562390D01*
X178203158Y-76562390D02*
X178486000Y-76562390D01*
X196887000Y-76584000D02*
X196887000Y-92713000D01*
X196887000Y-92713000D02*
X196353000Y-93247000D01*
X196353000Y-93247000D02*
X183578000Y-93247000D01*
X183578000Y-93247000D02*
X180938991Y-90607991D01*
X180938991Y-90607991D02*
X179941999Y-90607991D01*
X179941999Y-90607991D02*
X179742000Y-90807990D01*
X131863000Y-105667000D02*
X129831000Y-107699000D01*
X129831000Y-107699000D02*
X119671000Y-107699000D01*
X119671000Y-107699000D02*
X117512000Y-109858000D01*
D33*
X158533000Y-97539000D02*
X156247000Y-97539000D01*
X156247000Y-97539000D02*
X141896000Y-111890000D01*
X141896000Y-111890000D02*
X141134000Y-111890000D01*
X186487000Y-96549000D02*
X186487000Y-95688842D01*
X184825921Y-98210079D02*
X186487000Y-96549000D01*
X181048079Y-98210079D02*
X184825921Y-98210079D01*
X179234000Y-96396000D02*
X181048079Y-98210079D01*
X168947000Y-96396000D02*
X179234000Y-96396000D01*
X186487000Y-95688842D02*
X186487000Y-95406000D01*
X162712000Y-97793000D02*
X162611000Y-97692000D01*
X165645000Y-97793000D02*
X162712000Y-97793000D01*
D27*
X181079993Y-76156001D02*
X181279992Y-76356000D01*
X157404000Y-80928000D02*
X161849000Y-80928000D01*
X161849000Y-80928000D02*
X166643212Y-76133788D01*
X125513000Y-104143000D02*
X134189000Y-104143000D01*
X134189000Y-104143000D02*
X157404000Y-80928000D01*
X166643212Y-76133788D02*
X181057780Y-76133788D01*
X181057780Y-76133788D02*
X181079993Y-76156001D01*
X183298000Y-82045000D02*
X183298000Y-86109000D01*
X184060000Y-86871000D02*
X185203000Y-86871000D01*
X183298000Y-86109000D02*
X184060000Y-86871000D01*
D33*
X185203000Y-86871000D02*
X192569000Y-86871000D01*
X110960000Y-59980000D02*
X112780000Y-59980000D01*
X112780000Y-59980000D02*
X112813000Y-59947000D01*
X187997000Y-84585000D02*
X192049000Y-84585000D01*
X192049000Y-84585000D02*
X192075000Y-84611000D01*
D27*
X183806000Y-82299000D02*
X183806000Y-85855000D01*
X183806000Y-85855000D02*
X184319040Y-86368040D01*
X184319040Y-86368040D02*
X184568000Y-86368040D01*
X110960000Y-67600000D02*
X109556800Y-67600000D01*
X109017000Y-67060200D02*
X109017000Y-66831000D01*
X109556800Y-67600000D02*
X109017000Y-67060200D01*
X143405158Y-62640000D02*
X143688000Y-62640000D01*
X142198000Y-62674000D02*
X142232000Y-62640000D01*
X142232000Y-62640000D02*
X143405158Y-62640000D01*
X163754000Y-87659000D02*
X163246000Y-87151000D01*
X163246000Y-83087000D02*
X164316001Y-82016999D01*
X164316001Y-82016999D02*
X164516000Y-81817000D01*
X163246000Y-87151000D02*
X163246000Y-83087000D01*
X148514000Y-72165000D02*
X147117000Y-70768000D01*
X147117000Y-70006000D02*
X147244000Y-69879000D01*
X147117000Y-70768000D02*
X147117000Y-70006000D01*
X173885158Y-92231000D02*
X174168000Y-92231000D01*
X168925401Y-90380001D02*
X170776400Y-92231000D01*
X163973012Y-90380001D02*
X168925401Y-90380001D01*
X163773013Y-90580000D02*
X163973012Y-90380001D01*
X170776400Y-92231000D02*
X173885158Y-92231000D01*
X143405158Y-64037000D02*
X143688000Y-64037000D01*
X142291000Y-64037000D02*
X143405158Y-64037000D01*
X142198000Y-63944000D02*
X142291000Y-64037000D01*
X163554001Y-82143999D02*
X163754000Y-81944000D01*
X162738000Y-82960000D02*
X163554001Y-82143999D01*
X162738000Y-87278000D02*
X162738000Y-82960000D01*
X163119000Y-87659000D02*
X162738000Y-87278000D01*
X146355000Y-70768000D02*
X146355000Y-70669842D01*
X147879000Y-72292000D02*
X146355000Y-70768000D01*
X146355000Y-70669842D02*
X146355000Y-70387000D01*
X163319001Y-89999001D02*
X163119002Y-90199000D01*
X170730080Y-91676680D02*
X169052401Y-89999001D01*
X171233000Y-91676680D02*
X170730080Y-91676680D01*
X169052401Y-89999001D02*
X163319001Y-89999001D01*
X169146146Y-93059010D02*
X168946147Y-92859011D01*
X178793670Y-93059010D02*
X169146146Y-93059010D01*
X179694840Y-92157840D02*
X178793670Y-93059010D01*
X185838000Y-89296650D02*
X190952960Y-89296650D01*
X190952960Y-89296650D02*
X191045000Y-89204610D01*
X164109600Y-124163280D02*
X164109600Y-120353280D01*
X164109600Y-120353280D02*
X157886600Y-114130280D01*
D32*
X167296000Y-131448000D02*
X171360000Y-131448000D01*
X164109600Y-124163280D02*
X164121000Y-131194000D01*
X183425000Y-131448000D02*
X187235000Y-131448000D01*
X158253000Y-102645000D02*
X158420000Y-102645000D01*
X147738000Y-113160000D02*
X158253000Y-102645000D01*
D33*
X168326000Y-103943842D02*
X168326000Y-103661000D01*
X166776600Y-118067280D02*
X168326000Y-116517880D01*
X168326000Y-116517880D02*
X168326000Y-103943842D01*
D27*
X151536600Y-118067280D02*
X155626000Y-113977880D01*
X158220001Y-104114985D02*
X158420000Y-103914986D01*
X155626000Y-113977880D02*
X155626000Y-106708986D01*
X155626000Y-106708986D02*
X158220001Y-104114985D01*
D33*
X119613720Y-137498280D02*
X124438001Y-132673999D01*
X118897600Y-137498280D02*
X119613720Y-137498280D01*
X124438001Y-132673999D02*
X124638000Y-132474000D01*
D32*
X140245000Y-124209000D02*
X139620000Y-123584000D01*
D27*
X140245000Y-124209000D02*
X150404998Y-124209000D01*
D32*
X152817998Y-121796000D02*
X150404998Y-124209000D01*
X136858842Y-123584000D02*
X136576000Y-123584000D01*
X139620000Y-123584000D02*
X136858842Y-123584000D01*
D27*
X138131714Y-133942280D02*
X146965994Y-125108000D01*
X146965994Y-125108000D02*
X150775994Y-125108000D01*
X150775994Y-125108000D02*
X153887995Y-121995999D01*
X153887995Y-121995999D02*
X154087994Y-121796000D01*
D32*
X135026600Y-133942280D02*
X138131714Y-133942280D01*
D33*
X168834000Y-104451846D02*
X168834000Y-104169004D01*
X168834000Y-116314680D02*
X168834000Y-104451846D01*
X170586600Y-118067280D02*
X168834000Y-116314680D01*
D27*
X156134000Y-117310640D02*
X156134000Y-106836000D01*
X155346600Y-118098040D02*
X156134000Y-117310640D01*
X158220001Y-104749999D02*
X158420000Y-104550000D01*
X156134000Y-106836000D02*
X158220001Y-104749999D01*
D33*
X169342000Y-115552680D02*
X169342000Y-104959842D01*
X171856600Y-118067280D02*
X169342000Y-115552680D01*
X169342000Y-104959842D02*
X169342000Y-104677000D01*
D27*
X158220001Y-105384999D02*
X158420000Y-105185000D01*
X156616600Y-106988400D02*
X158220001Y-105384999D01*
X156616600Y-118098040D02*
X156616600Y-106988400D01*
X157204007Y-122021999D02*
X157404006Y-121822000D01*
X150278000Y-128948006D02*
X157204007Y-122021999D01*
X150278000Y-131067000D02*
X150278000Y-128948006D01*
D32*
X159168000Y-108842000D02*
X159168000Y-103420996D01*
X159168000Y-103420996D02*
X160251997Y-102336999D01*
X160251997Y-102336999D02*
X160451996Y-102137000D01*
D27*
X166280000Y-132210000D02*
X166036000Y-131966000D01*
X166036000Y-131966000D02*
X163881000Y-131966000D01*
X163881000Y-131966000D02*
X162357000Y-130442000D01*
X162357000Y-130442000D02*
X162357000Y-119901000D01*
X162357000Y-119901000D02*
X157023000Y-114567000D01*
X157023000Y-114567000D02*
X157023000Y-112535000D01*
X157023000Y-112535000D02*
X157259721Y-112298279D01*
X157259721Y-112298279D02*
X157686601Y-112298279D01*
X157686601Y-112298279D02*
X157886600Y-112098280D01*
D33*
X166280000Y-132146500D02*
X166280000Y-132210000D01*
X157898100Y-112109780D02*
X157886600Y-112098280D01*
X160125009Y-105384999D02*
X160325008Y-105185000D01*
X159963539Y-105546469D02*
X160125009Y-105384999D01*
X159963539Y-108251344D02*
X159963539Y-105546469D01*
X171848840Y-105271040D02*
X171848840Y-108827040D01*
X171975840Y-105144040D02*
X171848840Y-105271040D01*
X158419998Y-107724978D02*
X158419976Y-107725000D01*
X158419998Y-105820000D02*
X158419998Y-107724978D01*
X170578840Y-105906040D02*
X170578840Y-108827040D01*
X170705840Y-105779040D02*
X170578840Y-105906040D01*
D27*
X167919600Y-125687280D02*
X164770000Y-122537680D01*
X164770000Y-122537680D02*
X164770000Y-119997680D01*
X164770000Y-119997680D02*
X158086599Y-113314279D01*
X158086599Y-113314279D02*
X157886600Y-113114280D01*
D32*
X167919600Y-125687280D02*
X175920600Y-133688280D01*
X175920600Y-133688280D02*
X181889600Y-133688280D01*
D27*
X166151000Y-99089000D02*
X169580000Y-99089000D01*
X167564000Y-114670000D02*
X167564000Y-103772000D01*
X167564000Y-103772000D02*
X165659000Y-101867000D01*
X164502000Y-117732000D02*
X167564000Y-114670000D01*
X165659000Y-101867000D02*
X165659000Y-99581000D01*
X165659000Y-99581000D02*
X166151000Y-99089000D01*
X169580000Y-99089000D02*
X170666001Y-98002999D01*
X170666001Y-98002999D02*
X170866000Y-97803000D01*
X140172001Y-123247001D02*
X140372000Y-123447000D01*
X138929763Y-122004763D02*
X140172001Y-123247001D01*
X137242237Y-122004763D02*
X138929763Y-122004763D01*
X141007000Y-122656158D02*
X141007000Y-122050000D01*
X141007000Y-122050000D02*
X140880000Y-121923000D01*
X141769000Y-123701000D02*
X141769000Y-123418158D01*
X141769000Y-123418158D02*
X141007000Y-122656158D01*
D33*
X174168000Y-108602000D02*
X174168000Y-102800842D01*
X174168000Y-102800842D02*
X174168000Y-102518000D01*
X174408000Y-108842000D02*
X174168000Y-108602000D01*
D27*
X150913000Y-115827000D02*
X148881000Y-117859000D01*
X137197000Y-117859000D02*
X136435000Y-118621000D01*
X148881000Y-117859000D02*
X137197000Y-117859000D01*
X164502000Y-113414000D02*
X162470000Y-115446000D01*
X166153000Y-113414000D02*
X164502000Y-113414000D01*
X151265158Y-115318996D02*
X151548000Y-115318996D01*
X150532004Y-115318996D02*
X151265158Y-115318996D01*
X148500000Y-117351000D02*
X150532004Y-115318996D01*
X140499000Y-117351000D02*
X148500000Y-117351000D01*
X164121000Y-112779000D02*
X161962000Y-114938000D01*
X166153000Y-112779000D02*
X164121000Y-112779000D01*
X197776000Y-76584000D02*
X197776000Y-92585330D01*
X197776000Y-92585330D02*
X196733330Y-93628000D01*
X196733330Y-93628000D02*
X183324000Y-93628000D01*
X183324000Y-93628000D02*
X181084999Y-91388999D01*
X181084999Y-91388999D02*
X180576999Y-91388999D01*
X180576999Y-91388999D02*
X180377000Y-91189000D01*
X186809842Y-88776000D02*
X191807000Y-88776000D01*
X186755842Y-88830000D02*
X186809842Y-88776000D01*
X186473000Y-88830000D02*
X186755842Y-88830000D01*
X164008000Y-71403000D02*
X164008000Y-64122518D01*
X164008000Y-64122518D02*
X161289482Y-61404000D01*
X161289482Y-61404000D02*
X160198000Y-61404000D01*
X182495999Y-76428999D02*
X182296000Y-76229000D01*
X182663000Y-76596000D02*
X182495999Y-76428999D01*
X182663000Y-87379000D02*
X182663000Y-76596000D01*
X185330000Y-85855000D02*
X185610000Y-86135000D01*
X185610000Y-86135000D02*
X193218000Y-86135000D01*
X193218000Y-86135000D02*
X194488000Y-87405000D01*
D33*
X191553000Y-85220000D02*
X191553000Y-85260000D01*
X191553000Y-85260000D02*
X191421033Y-85391967D01*
X191421033Y-85391967D02*
X185111952Y-85391967D01*
X185111952Y-85391967D02*
X184829110Y-85391967D01*
D27*
X149221999Y-91650001D02*
X149022000Y-91850000D01*
X158420000Y-82452000D02*
X149221999Y-91650001D01*
X176113001Y-77781001D02*
X167027999Y-77781001D01*
X167027999Y-77781001D02*
X162357000Y-82452000D01*
X162357000Y-82452000D02*
X158420000Y-82452000D01*
X176313000Y-77981000D02*
X176113001Y-77781001D01*
D31*
X201854000Y-97549000D02*
X197679000Y-97549000D01*
X195631000Y-99597000D02*
X193627842Y-99597000D01*
X197679000Y-97549000D02*
X195631000Y-99597000D01*
X193627842Y-99597000D02*
X193345000Y-99597000D01*
X139370000Y-67466000D02*
X137973000Y-66069000D01*
X137973000Y-66069000D02*
X137973000Y-60481000D01*
X137973000Y-60481000D02*
X139590000Y-58864000D01*
X139590000Y-58864000D02*
X141241000Y-58864000D01*
X150898000Y-70072000D02*
X150898000Y-66564000D01*
X156898000Y-76072000D02*
X150898000Y-70072000D01*
X156898000Y-76864000D02*
X156898000Y-76072000D01*
X171840000Y-58280000D02*
X171755000Y-58195000D01*
X171840000Y-65027000D02*
X171840000Y-58280000D01*
X171086000Y-58864000D02*
X171455001Y-58494999D01*
X171455001Y-58494999D02*
X171755000Y-58195000D01*
X160198000Y-58864000D02*
X171086000Y-58864000D01*
X146706000Y-58864000D02*
X160198000Y-58864000D01*
X142198000Y-58864000D02*
X146706000Y-58864000D01*
X146706000Y-58864000D02*
X150898000Y-63056000D01*
X150898000Y-63056000D02*
X150898000Y-66564000D01*
X196760000Y-68964000D02*
X173269000Y-68964000D01*
X173269000Y-68964000D02*
X171840000Y-67535000D01*
X171840000Y-67535000D02*
X171840000Y-65027000D01*
D29*
X110960000Y-77760000D02*
X114210000Y-77760000D01*
X114210000Y-77760000D02*
X115861000Y-77760000D01*
D31*
X114159200Y-76965000D02*
X114159200Y-77709200D01*
X114159200Y-77709200D02*
X114210000Y-77760000D01*
D29*
X115861000Y-77760000D02*
X121590000Y-77760000D01*
X110960000Y-70140000D02*
X115861000Y-70140000D01*
X115861000Y-77760000D02*
X115861000Y-70140000D01*
X115861000Y-70140000D02*
X117620000Y-70140000D01*
D33*
X125386000Y-108715000D02*
X124243000Y-108715000D01*
X124243000Y-108715000D02*
X118401000Y-114557000D01*
X118401000Y-114557000D02*
X118020000Y-114557000D01*
D29*
X121590000Y-77760000D02*
X125767000Y-77760000D01*
X125767000Y-77760000D02*
X132160000Y-77760000D01*
D27*
X168993200Y-87887000D02*
X169794987Y-87887000D01*
X169794987Y-87887000D02*
X170820987Y-88913000D01*
X170820987Y-88913000D02*
X173406000Y-88913000D01*
X173406000Y-88913000D02*
X173914000Y-89421000D01*
X175932000Y-89919000D02*
X175434000Y-89421000D01*
X174196846Y-89421000D02*
X173914004Y-89421000D01*
X175434000Y-89421000D02*
X174196846Y-89421000D01*
D29*
X112330400Y-80902000D02*
X112965400Y-81537000D01*
X110668000Y-80902000D02*
X112330400Y-80902000D01*
X132879000Y-91189000D02*
X139864000Y-84204000D01*
X132879000Y-99134000D02*
X111628000Y-99134000D01*
X133756600Y-99134000D02*
X132879000Y-99134000D01*
X132879000Y-99134000D02*
X132879000Y-91189000D01*
D33*
X108636000Y-77346000D02*
X110546000Y-77346000D01*
X110546000Y-77346000D02*
X110960000Y-77760000D01*
X114464000Y-128146000D02*
X116115000Y-128146000D01*
D29*
X135560000Y-99134000D02*
X133756600Y-99134000D01*
X111628000Y-99134000D02*
X109854000Y-97360000D01*
X109854000Y-97360000D02*
X106590000Y-97360000D01*
X105588000Y-66734000D02*
X106660000Y-66734000D01*
X108730000Y-70140000D02*
X110960000Y-70140000D01*
X108636000Y-70234000D02*
X108730000Y-70140000D01*
X108636000Y-68710000D02*
X108636000Y-70234000D01*
X106660000Y-66734000D02*
X108636000Y-68710000D01*
X121590000Y-66170000D02*
X122700000Y-65060000D01*
X117620000Y-70140000D02*
X122700000Y-65060000D01*
X122700000Y-65060000D02*
X132160000Y-65060000D01*
X134149000Y-121034000D02*
X134974500Y-120208500D01*
X134974500Y-120208500D02*
X158076500Y-120208500D01*
X158076500Y-120208500D02*
X159358500Y-121490500D01*
X159358500Y-121490500D02*
X159358500Y-132718000D01*
X117583000Y-85220000D02*
X117512000Y-85220000D01*
X112686000Y-87125000D02*
X108559999Y-82998999D01*
X108559999Y-82998999D02*
X105257999Y-82998999D01*
X117512000Y-85220000D02*
X115607000Y-87125000D01*
X115607000Y-87125000D02*
X112686000Y-87125000D01*
X105257999Y-82998999D02*
X104558000Y-82299000D01*
D31*
X112645999Y-131657999D02*
X112446000Y-131458000D01*
X112690000Y-131702000D02*
X112645999Y-131657999D01*
X116877000Y-131702000D02*
X112690000Y-131702000D01*
D29*
X168172949Y-100978000D02*
X167183000Y-100978000D01*
X174422000Y-100978000D02*
X168172949Y-100978000D01*
X175805000Y-102361000D02*
X174422000Y-100978000D01*
X175805000Y-116525500D02*
X175805000Y-102361000D01*
X189902000Y-130622500D02*
X175805000Y-116525500D01*
D31*
X159358500Y-132718000D02*
X161200000Y-132718000D01*
X161200000Y-132718000D02*
X165645000Y-132718000D01*
X132498000Y-126876000D02*
X132498000Y-125860000D01*
X132498000Y-125860000D02*
X134149000Y-124209000D01*
X134149000Y-121034000D02*
X134149000Y-124209000D01*
X120687000Y-119383000D02*
X120687000Y-122685000D01*
X120687000Y-122685000D02*
X116877000Y-126495000D01*
D29*
X189902000Y-130622500D02*
X189902000Y-132220409D01*
X189902000Y-132220409D02*
X190082581Y-132400990D01*
D31*
X198806000Y-133113000D02*
X190794591Y-133113000D01*
X190794591Y-133113000D02*
X190082581Y-132400990D01*
X189902000Y-132591000D02*
X190082581Y-132410419D01*
X190082581Y-132410419D02*
X190082581Y-132400990D01*
X183107500Y-132591000D02*
X189902000Y-132591000D01*
D30*
X134149000Y-112525000D02*
X134149000Y-116589000D01*
X145833000Y-100841000D02*
X134149000Y-112525000D01*
D31*
X183107500Y-132591000D02*
X175868500Y-132591000D01*
X175868500Y-132591000D02*
X175551000Y-132273500D01*
X151167000Y-132400500D02*
X143864500Y-132400500D01*
X151421000Y-132654500D02*
X151167000Y-132400500D01*
X166280000Y-133353000D02*
X166851500Y-133353000D01*
X165645000Y-132718000D02*
X166280000Y-133353000D01*
X151421000Y-132654500D02*
X157326500Y-132654500D01*
X157326500Y-132654500D02*
X159295000Y-132654500D01*
X159295000Y-132654500D02*
X159358500Y-132718000D01*
X116877000Y-126495000D02*
X116877000Y-131702000D01*
X132498000Y-126876000D02*
X133006000Y-126876000D01*
X123481000Y-116589000D02*
X120687000Y-119383000D01*
X134149000Y-116589000D02*
X123481000Y-116589000D01*
D30*
X134149000Y-116589000D02*
X134149000Y-121034000D01*
D31*
X132117000Y-132464000D02*
X128053000Y-132464000D01*
X133006000Y-131575000D02*
X132117000Y-132464000D01*
X133006000Y-126876000D02*
X133006000Y-131575000D01*
X144450000Y-107554730D02*
X144450000Y-107978994D01*
X156628000Y-93856000D02*
X144450000Y-106034000D01*
X144025736Y-107978994D02*
X144450000Y-107978994D01*
X137832000Y-113076264D02*
X142929270Y-107978994D01*
X142929270Y-107978994D02*
X144025736Y-107978994D01*
X144450000Y-106034000D02*
X144450000Y-107554730D01*
X189489001Y-105774001D02*
X189789000Y-106074000D01*
X189154000Y-105439000D02*
X189489001Y-105774001D01*
X179502000Y-105439000D02*
X189154000Y-105439000D01*
X179202001Y-105738999D02*
X179502000Y-105439000D01*
X177248000Y-107693000D02*
X179202001Y-105738999D01*
X177248000Y-110112000D02*
X177248000Y-107693000D01*
X137211000Y-81182000D02*
X135351999Y-79322999D01*
X146228000Y-81182000D02*
X137211000Y-81182000D01*
X151181000Y-86135000D02*
X146228000Y-81182000D01*
X135351999Y-79322999D02*
X135052000Y-79023000D01*
X156628000Y-93856000D02*
X161213994Y-98441994D01*
X165925000Y-107344000D02*
X161638258Y-107344000D01*
X161213994Y-106919736D02*
X161213994Y-107344000D01*
X166960999Y-108379999D02*
X165925000Y-107344000D01*
X166661000Y-114049000D02*
X166960999Y-113749001D01*
X161213994Y-98441994D02*
X161213994Y-106919736D01*
X166960999Y-113749001D02*
X166960999Y-108379999D01*
X161638258Y-107344000D02*
X161213994Y-107344000D01*
X158801000Y-60960158D02*
X158801000Y-61243000D01*
X160198000Y-60134000D02*
X159627158Y-60134000D01*
X159627158Y-60134000D02*
X158801000Y-60960158D01*
D27*
X205464001Y-79569001D02*
X205664000Y-79769000D01*
X205142000Y-79247000D02*
X205464001Y-79569001D01*
X205142000Y-76838000D02*
X205142000Y-79247000D01*
D31*
X197652990Y-107445000D02*
X197662990Y-107455000D01*
X192950000Y-107445000D02*
X197652990Y-107445000D01*
D27*
X171047001Y-89618001D02*
X171247000Y-89818000D01*
X169769999Y-88340999D02*
X171047001Y-89618001D01*
X167128999Y-88340999D02*
X169769999Y-88340999D01*
X166929000Y-88141000D02*
X167128999Y-88340999D01*
D33*
X166929000Y-88141000D02*
X164744006Y-88141000D01*
D31*
X145765999Y-89899001D02*
X145765999Y-82116999D01*
X145466000Y-90199000D02*
X145765999Y-89899001D01*
X164334999Y-83286999D02*
X164135000Y-83087000D01*
X164516006Y-87913000D02*
X164516006Y-83468006D01*
X164516006Y-83468006D02*
X164334999Y-83286999D01*
D33*
X179756000Y-84484000D02*
X180645000Y-85373000D01*
X173605985Y-82016999D02*
X173405986Y-81817000D01*
X175170010Y-83581024D02*
X173605985Y-82016999D01*
X175170010Y-84458000D02*
X175170010Y-83581024D01*
D27*
X194615000Y-97565000D02*
X192709992Y-97565000D01*
D33*
X179730000Y-84458000D02*
X179756000Y-84484000D01*
X175170010Y-84458000D02*
X179730000Y-84458000D01*
X183874001Y-97365001D02*
X184074000Y-97565000D01*
X183535800Y-97026800D02*
X183874001Y-97365001D01*
X183535800Y-95341840D02*
X183535800Y-97026800D01*
D27*
X172698001Y-78587999D02*
X172898000Y-78388000D01*
X172670000Y-78616000D02*
X172698001Y-78587999D01*
X170217000Y-78616000D02*
X172670000Y-78616000D01*
D33*
X160438000Y-88141000D02*
X164288006Y-88141000D01*
X164288006Y-88141000D02*
X164516006Y-87913000D01*
X164744006Y-88141000D02*
X164516006Y-87913000D01*
X113034000Y-57440000D02*
X113067000Y-57407000D01*
X110960000Y-57440000D02*
X112780000Y-57440000D01*
X112780000Y-57440000D02*
X113034000Y-57440000D01*
D27*
X132160000Y-75220000D02*
X132460000Y-75220000D01*
X166548000Y-75721000D02*
X181407000Y-75721000D01*
X181461001Y-75775001D02*
X181661000Y-75975000D01*
X132460000Y-75220000D02*
X136644000Y-79404000D01*
X136644000Y-79404000D02*
X142291000Y-79404000D01*
X142291000Y-79404000D02*
X143434000Y-80547000D01*
X143434000Y-80547000D02*
X161722000Y-80547000D01*
X161722000Y-80547000D02*
X166548000Y-75721000D01*
X181407000Y-75721000D02*
X181461001Y-75775001D01*
X193218000Y-83722000D02*
X187249000Y-83722000D01*
X187249000Y-83722000D02*
X186360000Y-84611000D01*
X183439000Y-80293000D02*
X191059000Y-80293000D01*
X191059000Y-80293000D02*
X195631000Y-84865000D01*
X195631000Y-84865000D02*
X195631000Y-89564000D01*
X132160000Y-62520000D02*
X132460000Y-62520000D01*
X132460000Y-62520000D02*
X133909000Y-63969000D01*
X133909000Y-63969000D02*
X133909000Y-75975000D01*
X197775990Y-67214842D02*
X197775990Y-66932000D01*
X133909000Y-75975000D02*
X136957000Y-79023000D01*
X136957000Y-79023000D02*
X142418000Y-79023000D01*
X142418000Y-79023000D02*
X143561000Y-80166000D01*
X143561000Y-80166000D02*
X161595000Y-80166000D01*
X161595000Y-80166000D02*
X166421000Y-75340000D01*
X166421000Y-75340000D02*
X192924000Y-75340000D01*
X197775990Y-70488010D02*
X197775990Y-67214842D01*
X192924000Y-75340000D02*
X197775990Y-70488010D01*
D33*
X132160000Y-62520000D02*
X131860000Y-62520000D01*
D27*
X168834000Y-69975170D02*
X168834000Y-63811842D01*
X168834000Y-63811842D02*
X168834000Y-63529000D01*
X135052011Y-57492011D02*
X135052011Y-74959011D01*
X132460000Y-54900000D02*
X135052011Y-57492011D01*
X135052011Y-74959011D02*
X137846000Y-77753000D01*
X137846000Y-77753000D02*
X142926000Y-77753000D01*
X142926000Y-77753000D02*
X144068989Y-78895989D01*
X144068989Y-78895989D02*
X159913181Y-78895989D01*
X159913181Y-78895989D02*
X168834000Y-69975170D01*
D33*
X132160000Y-54900000D02*
X132460000Y-54900000D01*
D27*
X195558001Y-64853001D02*
X195758000Y-65053000D01*
X193345000Y-62640000D02*
X195558001Y-64853001D01*
X179756000Y-62640000D02*
X193345000Y-62640000D01*
X132460000Y-59980000D02*
X134290000Y-61810000D01*
X134290000Y-61810000D02*
X134290000Y-75594000D01*
X142539908Y-78642000D02*
X143682908Y-79785000D01*
X143682908Y-79785000D02*
X160198000Y-79785000D01*
X134290000Y-75594000D02*
X137338000Y-78642000D01*
X137338000Y-78642000D02*
X142539908Y-78642000D01*
X160198000Y-79785000D02*
X166040000Y-73943000D01*
X166040000Y-73943000D02*
X190268158Y-73943000D01*
X190268158Y-73943000D02*
X193951158Y-70260000D01*
X193951158Y-70260000D02*
X194234000Y-70260000D01*
D33*
X132160000Y-59980000D02*
X132460000Y-59980000D01*
D27*
X132160000Y-59980000D02*
X131860000Y-59980000D01*
X132460000Y-57440000D02*
X134671000Y-59651000D01*
X134671000Y-59651000D02*
X134671000Y-75213000D01*
X134671000Y-75213000D02*
X137592000Y-78134000D01*
X137592000Y-78134000D02*
X142672000Y-78134000D01*
X142672000Y-78134000D02*
X143815000Y-79277000D01*
X143815000Y-79277000D02*
X160112678Y-79277000D01*
X193443158Y-69752000D02*
X193726000Y-69752000D01*
X160112678Y-79277000D02*
X165954678Y-73435000D01*
X165954678Y-73435000D02*
X189760158Y-73435000D01*
X189760158Y-73435000D02*
X193443158Y-69752000D01*
D33*
X132160000Y-57440000D02*
X132460000Y-57440000D01*
D27*
X187884000Y-96549000D02*
X187884000Y-96168670D01*
X187884000Y-96168670D02*
X186584141Y-94868811D01*
X183028811Y-94868811D02*
X179121000Y-90961000D01*
X186584141Y-94868811D02*
X183028811Y-94868811D01*
X179121000Y-90961000D02*
X179121000Y-89945000D01*
X179121000Y-89945000D02*
X182169000Y-86897000D01*
X182169000Y-86897000D02*
X182169000Y-84271013D01*
X182169000Y-84271013D02*
X180730987Y-82833000D01*
X180730987Y-82833000D02*
X178232000Y-82833000D01*
X178232000Y-82833000D02*
X177851000Y-83214000D01*
X173561842Y-91723000D02*
X173279000Y-91723000D01*
X181661000Y-84611000D02*
X181661000Y-86770000D01*
X180391000Y-83341000D02*
X181661000Y-84611000D01*
X178994000Y-83341000D02*
X180391000Y-83341000D01*
X176708000Y-91723000D02*
X173561842Y-91723000D01*
X181661000Y-86770000D02*
X176708000Y-91723000D01*
X160359000Y-73943000D02*
X161947158Y-73943000D01*
X161947158Y-73943000D02*
X162230000Y-73943000D01*
X160198000Y-74104000D02*
X160359000Y-73943000D01*
X162738000Y-75340000D02*
X160232000Y-75340000D01*
X160232000Y-75340000D02*
X160198000Y-75374000D01*
X155499000Y-75721000D02*
X155499000Y-76735000D01*
X155499000Y-76735000D02*
X155628000Y-76864000D01*
X152451000Y-75340000D02*
X153721000Y-75340000D01*
X153721000Y-75340000D02*
X154358000Y-75977000D01*
X154358000Y-75977000D02*
X154358000Y-76864000D01*
X153066975Y-75787625D02*
X153066975Y-76842975D01*
X153066975Y-76842975D02*
X153088000Y-76864000D01*
X146738000Y-76864000D02*
X146738000Y-74961000D01*
X146738000Y-74961000D02*
X146482000Y-74705000D01*
X145468000Y-76864000D02*
X145468000Y-75469000D01*
X145468000Y-75469000D02*
X145212000Y-75213000D01*
X175663166Y-74403390D02*
X175946008Y-74403390D01*
X166214610Y-74403390D02*
X175663166Y-74403390D01*
X164135000Y-76483000D02*
X166214610Y-74403390D01*
X157651927Y-70761927D02*
X157651927Y-74698927D01*
X157651927Y-74698927D02*
X159232789Y-76279789D01*
X161137789Y-76279789D02*
X161341000Y-76483000D01*
X159232789Y-76279789D02*
X161137789Y-76279789D01*
X143561000Y-75213000D02*
X142359000Y-75213000D01*
X142359000Y-75213000D02*
X142198000Y-75374000D01*
X164006480Y-77137009D02*
X164206479Y-76937010D01*
X164206479Y-76937010D02*
X164315990Y-76937010D01*
X164315990Y-76937010D02*
X166421000Y-74832000D01*
X166421000Y-74832000D02*
X176581000Y-74832000D01*
X176581000Y-74832000D02*
X176708000Y-74705000D01*
X158674000Y-76737000D02*
X158928000Y-76737000D01*
X157023000Y-75086000D02*
X158674000Y-76737000D01*
X157023000Y-70641000D02*
X157023000Y-75086000D01*
X160706000Y-76737000D02*
X160960000Y-76991000D01*
X158928000Y-76737000D02*
X160706000Y-76737000D01*
X184963000Y-92739000D02*
X193570158Y-92739000D01*
X181026000Y-88802000D02*
X184963000Y-92739000D01*
X193570158Y-92739000D02*
X193853000Y-92739000D01*
X177089000Y-83213994D02*
X177851006Y-83976000D01*
X177851006Y-83976000D02*
X180137000Y-83976000D01*
X180137000Y-83976000D02*
X181200603Y-85039603D01*
X181200603Y-85039603D02*
X181200603Y-86468397D01*
X181200603Y-86468397D02*
X180772000Y-86897000D01*
X195250000Y-98454000D02*
X195250000Y-94771000D01*
D33*
G36*
X134023866Y-52098498D02*
X134181106Y-52129913D01*
X134303781Y-52211989D01*
X134385737Y-52334742D01*
X134417000Y-52492012D01*
X134417000Y-56102658D01*
X133800259Y-55485917D01*
X133800259Y-54000000D01*
X133770150Y-53839985D01*
X133675581Y-53693020D01*
X133531285Y-53594427D01*
X133360000Y-53559741D01*
X130960000Y-53559741D01*
X130799985Y-53589850D01*
X130653020Y-53684419D01*
X130554427Y-53828715D01*
X130519741Y-54000000D01*
X130519741Y-55800000D01*
X130549850Y-55960015D01*
X130644419Y-56106980D01*
X130737107Y-56170311D01*
X130653020Y-56224419D01*
X130554427Y-56368715D01*
X130519741Y-56540000D01*
X130519741Y-58340000D01*
X130549850Y-58500015D01*
X130644419Y-58646980D01*
X130737107Y-58710311D01*
X130653020Y-58764419D01*
X130554427Y-58908715D01*
X130519741Y-59080000D01*
X130519741Y-60880000D01*
X130549850Y-61040015D01*
X130644419Y-61186980D01*
X130737107Y-61250311D01*
X130653020Y-61304419D01*
X130554427Y-61448715D01*
X130519741Y-61620000D01*
X130519741Y-63420000D01*
X130549850Y-63580015D01*
X130644419Y-63726980D01*
X130788715Y-63825573D01*
X130960000Y-63860259D01*
X133045918Y-63860259D01*
X133375600Y-64189941D01*
X133375600Y-66262900D01*
X133360000Y-66259741D01*
X130960000Y-66259741D01*
X130799985Y-66289850D01*
X130653020Y-66384419D01*
X130554427Y-66528715D01*
X130519741Y-66700000D01*
X130519741Y-68500000D01*
X130549850Y-68660015D01*
X130644419Y-68806980D01*
X130737107Y-68870311D01*
X130653020Y-68924419D01*
X130554427Y-69068715D01*
X130519741Y-69240000D01*
X130519741Y-71040000D01*
X130549850Y-71200015D01*
X130644419Y-71346980D01*
X130737107Y-71410311D01*
X130653020Y-71464419D01*
X130554427Y-71608715D01*
X130519741Y-71780000D01*
X130519741Y-73580000D01*
X130549850Y-73740015D01*
X130644419Y-73886980D01*
X130737107Y-73950311D01*
X130653020Y-74004419D01*
X130554427Y-74148715D01*
X130519741Y-74320000D01*
X130519741Y-76120000D01*
X130549850Y-76280015D01*
X130644419Y-76426980D01*
X130788715Y-76525573D01*
X130960000Y-76560259D01*
X133045917Y-76560259D01*
X134417000Y-77931342D01*
X134417000Y-78767608D01*
X134366200Y-79023000D01*
X134417000Y-79278392D01*
X134417000Y-81933510D01*
X134396822Y-82060824D01*
X134342867Y-82166642D01*
X134258837Y-82250591D01*
X134152967Y-82304444D01*
X134025629Y-82324499D01*
X109370374Y-82300690D01*
X109314341Y-82244657D01*
X108968246Y-82013404D01*
X108559999Y-81932198D01*
X108559994Y-81932199D01*
X107752210Y-81932199D01*
X107747000Y-81905988D01*
X107747000Y-79700000D01*
X130919741Y-79700000D01*
X130919741Y-80900000D01*
X130949850Y-81060015D01*
X131044419Y-81206980D01*
X131188715Y-81305573D01*
X131360000Y-81340259D01*
X132960000Y-81340259D01*
X133120015Y-81310150D01*
X133266980Y-81215581D01*
X133365573Y-81071285D01*
X133400259Y-80900000D01*
X133400259Y-79700000D01*
X133370150Y-79539985D01*
X133275581Y-79393020D01*
X133131285Y-79294427D01*
X132960000Y-79259741D01*
X131360000Y-79259741D01*
X131199985Y-79289850D01*
X131053020Y-79384419D01*
X130954427Y-79528715D01*
X130919741Y-79700000D01*
X107747000Y-79700000D01*
X107747000Y-73746800D01*
X109354216Y-73746800D01*
X109444419Y-73886980D01*
X109537107Y-73950311D01*
X109453020Y-74004419D01*
X109354427Y-74148715D01*
X109319741Y-74320000D01*
X109319741Y-76120000D01*
X109349850Y-76280015D01*
X109444419Y-76426980D01*
X109588715Y-76525573D01*
X109760000Y-76560259D01*
X112160000Y-76560259D01*
X112320015Y-76530150D01*
X112466980Y-76435581D01*
X112565573Y-76291285D01*
X112600259Y-76120000D01*
X112600259Y-75690790D01*
X112740371Y-75597171D01*
X113077174Y-75260367D01*
X113077177Y-75260365D01*
X113155747Y-75142776D01*
X113235308Y-75063353D01*
X113331696Y-74831224D01*
X113331916Y-74579879D01*
X113235933Y-74347581D01*
X113058359Y-74169698D01*
X112826230Y-74073310D01*
X112574885Y-74073090D01*
X112526973Y-74092887D01*
X112475581Y-74013020D01*
X112382893Y-73949689D01*
X112466980Y-73895581D01*
X112565573Y-73751285D01*
X112600259Y-73580000D01*
X112600259Y-71780000D01*
X112570150Y-71619985D01*
X112475581Y-71473020D01*
X112331285Y-71374427D01*
X112160000Y-71339741D01*
X109760000Y-71339741D01*
X109599985Y-71369850D01*
X109453020Y-71464419D01*
X109354427Y-71608715D01*
X109353519Y-71613200D01*
X107747000Y-71613200D01*
X107747000Y-61934140D01*
X107755647Y-61942802D01*
X107932458Y-62016220D01*
X108831369Y-62915132D01*
X109012657Y-63036265D01*
X109226500Y-63078800D01*
X109319741Y-63078800D01*
X109319741Y-63420000D01*
X109349850Y-63580015D01*
X109444419Y-63726980D01*
X109537107Y-63790311D01*
X109453020Y-63844419D01*
X109354427Y-63988715D01*
X109319741Y-64160000D01*
X109319741Y-65960000D01*
X109349850Y-66120015D01*
X109444419Y-66266980D01*
X109537107Y-66330311D01*
X109459657Y-66380148D01*
X109375353Y-66295698D01*
X109143224Y-66199310D01*
X108891879Y-66199090D01*
X108659581Y-66295073D01*
X108481698Y-66472647D01*
X108385310Y-66704776D01*
X108385090Y-66956121D01*
X108481073Y-67188419D01*
X108516080Y-67223487D01*
X108524203Y-67264323D01*
X108639829Y-67437371D01*
X109179627Y-67977168D01*
X109179629Y-67977171D01*
X109283363Y-68046484D01*
X109319741Y-68070790D01*
X109319741Y-68500000D01*
X109349850Y-68660015D01*
X109444419Y-68806980D01*
X109588715Y-68905573D01*
X109760000Y-68940259D01*
X112160000Y-68940259D01*
X112320015Y-68910150D01*
X112466980Y-68815581D01*
X112565573Y-68671285D01*
X112600259Y-68500000D01*
X112600259Y-66700000D01*
X112570150Y-66539985D01*
X112475581Y-66393020D01*
X112382893Y-66329689D01*
X112466980Y-66275581D01*
X112565573Y-66131285D01*
X112600259Y-65960000D01*
X112600259Y-64160000D01*
X112570150Y-63999985D01*
X112475581Y-63853020D01*
X112382893Y-63789689D01*
X112466980Y-63735581D01*
X112565573Y-63591285D01*
X112600259Y-63420000D01*
X112600259Y-61620000D01*
X112570150Y-61459985D01*
X112475581Y-61313020D01*
X112382893Y-61249689D01*
X112466980Y-61195581D01*
X112565573Y-61051285D01*
X112600259Y-60880000D01*
X112600259Y-60542765D01*
X112686776Y-60578690D01*
X112938121Y-60578910D01*
X113170419Y-60482927D01*
X113348302Y-60305353D01*
X113444690Y-60073224D01*
X113444910Y-59821879D01*
X113348927Y-59589581D01*
X113171353Y-59411698D01*
X112939224Y-59315310D01*
X112687879Y-59315090D01*
X112600259Y-59351294D01*
X112600259Y-59080000D01*
X112570150Y-58919985D01*
X112475581Y-58773020D01*
X112382893Y-58709689D01*
X112466980Y-58655581D01*
X112565573Y-58511285D01*
X112600259Y-58340000D01*
X112600259Y-57998800D01*
X112844710Y-57998800D01*
X112940776Y-58038690D01*
X113192121Y-58038910D01*
X113424419Y-57942927D01*
X113602302Y-57765353D01*
X113698690Y-57533224D01*
X113698910Y-57281879D01*
X113602927Y-57049581D01*
X113425353Y-56871698D01*
X113193224Y-56775310D01*
X112941879Y-56775090D01*
X112709581Y-56871073D01*
X112699436Y-56881200D01*
X112600259Y-56881200D01*
X112600259Y-56540000D01*
X112570150Y-56379985D01*
X112475581Y-56233020D01*
X112382893Y-56169689D01*
X112466980Y-56115581D01*
X112565573Y-55971285D01*
X112600259Y-55800000D01*
X112600259Y-54000000D01*
X112570150Y-53839985D01*
X112475581Y-53693020D01*
X112331285Y-53594427D01*
X112160000Y-53559741D01*
X109760000Y-53559741D01*
X109599985Y-53589850D01*
X109453020Y-53684419D01*
X109354427Y-53828715D01*
X109319741Y-54000000D01*
X109319741Y-55800000D01*
X109349850Y-55960015D01*
X109444419Y-56106980D01*
X109537107Y-56170311D01*
X109453020Y-56224419D01*
X109354427Y-56368715D01*
X109319741Y-56540000D01*
X109319741Y-58340000D01*
X109349850Y-58500015D01*
X109444419Y-58646980D01*
X109537107Y-58710311D01*
X109453020Y-58764419D01*
X109354427Y-58908715D01*
X109319741Y-59080000D01*
X109319741Y-60880000D01*
X109349850Y-61040015D01*
X109444419Y-61186980D01*
X109537107Y-61250311D01*
X109453020Y-61304419D01*
X109354427Y-61448715D01*
X109319741Y-61620000D01*
X109319741Y-61822978D01*
X108722511Y-61225749D01*
X108649927Y-61050081D01*
X108472353Y-60872198D01*
X108240224Y-60775810D01*
X107988879Y-60775590D01*
X107756581Y-60871573D01*
X107747000Y-60881137D01*
X107747000Y-52464490D01*
X107767178Y-52337176D01*
X107821133Y-52231358D01*
X107905163Y-52147409D01*
X108011033Y-52093556D01*
X108138371Y-52073501D01*
X134023866Y-52098498D01*
X134023866Y-52098498D01*
G37*
X134023866Y-52098498D02*
X134181106Y-52129913D01*
X134303781Y-52211989D01*
X134385737Y-52334742D01*
X134417000Y-52492012D01*
X134417000Y-56102658D01*
X133800259Y-55485917D01*
X133800259Y-54000000D01*
X133770150Y-53839985D01*
X133675581Y-53693020D01*
X133531285Y-53594427D01*
X133360000Y-53559741D01*
X130960000Y-53559741D01*
X130799985Y-53589850D01*
X130653020Y-53684419D01*
X130554427Y-53828715D01*
X130519741Y-54000000D01*
X130519741Y-55800000D01*
X130549850Y-55960015D01*
X130644419Y-56106980D01*
X130737107Y-56170311D01*
X130653020Y-56224419D01*
X130554427Y-56368715D01*
X130519741Y-56540000D01*
X130519741Y-58340000D01*
X130549850Y-58500015D01*
X130644419Y-58646980D01*
X130737107Y-58710311D01*
X130653020Y-58764419D01*
X130554427Y-58908715D01*
X130519741Y-59080000D01*
X130519741Y-60880000D01*
X130549850Y-61040015D01*
X130644419Y-61186980D01*
X130737107Y-61250311D01*
X130653020Y-61304419D01*
X130554427Y-61448715D01*
X130519741Y-61620000D01*
X130519741Y-63420000D01*
X130549850Y-63580015D01*
X130644419Y-63726980D01*
X130788715Y-63825573D01*
X130960000Y-63860259D01*
X133045918Y-63860259D01*
X133375600Y-64189941D01*
X133375600Y-66262900D01*
X133360000Y-66259741D01*
X130960000Y-66259741D01*
X130799985Y-66289850D01*
X130653020Y-66384419D01*
X130554427Y-66528715D01*
X130519741Y-66700000D01*
X130519741Y-68500000D01*
X130549850Y-68660015D01*
X130644419Y-68806980D01*
X130737107Y-68870311D01*
X130653020Y-68924419D01*
X130554427Y-69068715D01*
X130519741Y-69240000D01*
X130519741Y-71040000D01*
X130549850Y-71200015D01*
X130644419Y-71346980D01*
X130737107Y-71410311D01*
X130653020Y-71464419D01*
X130554427Y-71608715D01*
X130519741Y-71780000D01*
X130519741Y-73580000D01*
X130549850Y-73740015D01*
X130644419Y-73886980D01*
X130737107Y-73950311D01*
X130653020Y-74004419D01*
X130554427Y-74148715D01*
X130519741Y-74320000D01*
X130519741Y-76120000D01*
X130549850Y-76280015D01*
X130644419Y-76426980D01*
X130788715Y-76525573D01*
X130960000Y-76560259D01*
X133045917Y-76560259D01*
X134417000Y-77931342D01*
X134417000Y-78767608D01*
X134366200Y-79023000D01*
X134417000Y-79278392D01*
X134417000Y-81933510D01*
X134396822Y-82060824D01*
X134342867Y-82166642D01*
X134258837Y-82250591D01*
X134152967Y-82304444D01*
X134025629Y-82324499D01*
X109370374Y-82300690D01*
X109314341Y-82244657D01*
X108968246Y-82013404D01*
X108559999Y-81932198D01*
X108559994Y-81932199D01*
X107752210Y-81932199D01*
X107747000Y-81905988D01*
X107747000Y-79700000D01*
X130919741Y-79700000D01*
X130919741Y-80900000D01*
X130949850Y-81060015D01*
X131044419Y-81206980D01*
X131188715Y-81305573D01*
X131360000Y-81340259D01*
X132960000Y-81340259D01*
X133120015Y-81310150D01*
X133266980Y-81215581D01*
X133365573Y-81071285D01*
X133400259Y-80900000D01*
X133400259Y-79700000D01*
X133370150Y-79539985D01*
X133275581Y-79393020D01*
X133131285Y-79294427D01*
X132960000Y-79259741D01*
X131360000Y-79259741D01*
X131199985Y-79289850D01*
X131053020Y-79384419D01*
X130954427Y-79528715D01*
X130919741Y-79700000D01*
X107747000Y-79700000D01*
X107747000Y-73746800D01*
X109354216Y-73746800D01*
X109444419Y-73886980D01*
X109537107Y-73950311D01*
X109453020Y-74004419D01*
X109354427Y-74148715D01*
X109319741Y-74320000D01*
X109319741Y-76120000D01*
X109349850Y-76280015D01*
X109444419Y-76426980D01*
X109588715Y-76525573D01*
X109760000Y-76560259D01*
X112160000Y-76560259D01*
X112320015Y-76530150D01*
X112466980Y-76435581D01*
X112565573Y-76291285D01*
X112600259Y-76120000D01*
X112600259Y-75690790D01*
X112740371Y-75597171D01*
X113077174Y-75260367D01*
X113077177Y-75260365D01*
X113155747Y-75142776D01*
X113235308Y-75063353D01*
X113331696Y-74831224D01*
X113331916Y-74579879D01*
X113235933Y-74347581D01*
X113058359Y-74169698D01*
X112826230Y-74073310D01*
X112574885Y-74073090D01*
X112526973Y-74092887D01*
X112475581Y-74013020D01*
X112382893Y-73949689D01*
X112466980Y-73895581D01*
X112565573Y-73751285D01*
X112600259Y-73580000D01*
X112600259Y-71780000D01*
X112570150Y-71619985D01*
X112475581Y-71473020D01*
X112331285Y-71374427D01*
X112160000Y-71339741D01*
X109760000Y-71339741D01*
X109599985Y-71369850D01*
X109453020Y-71464419D01*
X109354427Y-71608715D01*
X109353519Y-71613200D01*
X107747000Y-71613200D01*
X107747000Y-61934140D01*
X107755647Y-61942802D01*
X107932458Y-62016220D01*
X108831369Y-62915132D01*
X109012657Y-63036265D01*
X109226500Y-63078800D01*
X109319741Y-63078800D01*
X109319741Y-63420000D01*
X109349850Y-63580015D01*
X109444419Y-63726980D01*
X109537107Y-63790311D01*
X109453020Y-63844419D01*
X109354427Y-63988715D01*
X109319741Y-64160000D01*
X109319741Y-65960000D01*
X109349850Y-66120015D01*
X109444419Y-66266980D01*
X109537107Y-66330311D01*
X109459657Y-66380148D01*
X109375353Y-66295698D01*
X109143224Y-66199310D01*
X108891879Y-66199090D01*
X108659581Y-66295073D01*
X108481698Y-66472647D01*
X108385310Y-66704776D01*
X108385090Y-66956121D01*
X108481073Y-67188419D01*
X108516080Y-67223487D01*
X108524203Y-67264323D01*
X108639829Y-67437371D01*
X109179627Y-67977168D01*
X109179629Y-67977171D01*
X109283363Y-68046484D01*
X109319741Y-68070790D01*
X109319741Y-68500000D01*
X109349850Y-68660015D01*
X109444419Y-68806980D01*
X109588715Y-68905573D01*
X109760000Y-68940259D01*
X112160000Y-68940259D01*
X112320015Y-68910150D01*
X112466980Y-68815581D01*
X112565573Y-68671285D01*
X112600259Y-68500000D01*
X112600259Y-66700000D01*
X112570150Y-66539985D01*
X112475581Y-66393020D01*
X112382893Y-66329689D01*
X112466980Y-66275581D01*
X112565573Y-66131285D01*
X112600259Y-65960000D01*
X112600259Y-64160000D01*
X112570150Y-63999985D01*
X112475581Y-63853020D01*
X112382893Y-63789689D01*
X112466980Y-63735581D01*
X112565573Y-63591285D01*
X112600259Y-63420000D01*
X112600259Y-61620000D01*
X112570150Y-61459985D01*
X112475581Y-61313020D01*
X112382893Y-61249689D01*
X112466980Y-61195581D01*
X112565573Y-61051285D01*
X112600259Y-60880000D01*
X112600259Y-60542765D01*
X112686776Y-60578690D01*
X112938121Y-60578910D01*
X113170419Y-60482927D01*
X113348302Y-60305353D01*
X113444690Y-60073224D01*
X113444910Y-59821879D01*
X113348927Y-59589581D01*
X113171353Y-59411698D01*
X112939224Y-59315310D01*
X112687879Y-59315090D01*
X112600259Y-59351294D01*
X112600259Y-59080000D01*
X112570150Y-58919985D01*
X112475581Y-58773020D01*
X112382893Y-58709689D01*
X112466980Y-58655581D01*
X112565573Y-58511285D01*
X112600259Y-58340000D01*
X112600259Y-57998800D01*
X112844710Y-57998800D01*
X112940776Y-58038690D01*
X113192121Y-58038910D01*
X113424419Y-57942927D01*
X113602302Y-57765353D01*
X113698690Y-57533224D01*
X113698910Y-57281879D01*
X113602927Y-57049581D01*
X113425353Y-56871698D01*
X113193224Y-56775310D01*
X112941879Y-56775090D01*
X112709581Y-56871073D01*
X112699436Y-56881200D01*
X112600259Y-56881200D01*
X112600259Y-56540000D01*
X112570150Y-56379985D01*
X112475581Y-56233020D01*
X112382893Y-56169689D01*
X112466980Y-56115581D01*
X112565573Y-55971285D01*
X112600259Y-55800000D01*
X112600259Y-54000000D01*
X112570150Y-53839985D01*
X112475581Y-53693020D01*
X112331285Y-53594427D01*
X112160000Y-53559741D01*
X109760000Y-53559741D01*
X109599985Y-53589850D01*
X109453020Y-53684419D01*
X109354427Y-53828715D01*
X109319741Y-54000000D01*
X109319741Y-55800000D01*
X109349850Y-55960015D01*
X109444419Y-56106980D01*
X109537107Y-56170311D01*
X109453020Y-56224419D01*
X109354427Y-56368715D01*
X109319741Y-56540000D01*
X109319741Y-58340000D01*
X109349850Y-58500015D01*
X109444419Y-58646980D01*
X109537107Y-58710311D01*
X109453020Y-58764419D01*
X109354427Y-58908715D01*
X109319741Y-59080000D01*
X109319741Y-60880000D01*
X109349850Y-61040015D01*
X109444419Y-61186980D01*
X109537107Y-61250311D01*
X109453020Y-61304419D01*
X109354427Y-61448715D01*
X109319741Y-61620000D01*
X109319741Y-61822978D01*
X108722511Y-61225749D01*
X108649927Y-61050081D01*
X108472353Y-60872198D01*
X108240224Y-60775810D01*
X107988879Y-60775590D01*
X107756581Y-60871573D01*
X107747000Y-60881137D01*
X107747000Y-52464490D01*
X107767178Y-52337176D01*
X107821133Y-52231358D01*
X107905163Y-52147409D01*
X108011033Y-52093556D01*
X108138371Y-52073501D01*
X134023866Y-52098498D01*
G36*
X163263851Y-58353301D02*
X163386648Y-58435352D01*
X163468699Y-58558149D01*
X163500000Y-58715509D01*
X163500000Y-62860176D01*
X162138259Y-61498435D01*
X162138259Y-60954000D01*
X162108150Y-60793985D01*
X162093105Y-60770605D01*
X162103573Y-60755285D01*
X162138259Y-60584000D01*
X162138259Y-59684000D01*
X162108150Y-59523985D01*
X162013581Y-59377020D01*
X161869285Y-59278427D01*
X161698000Y-59243741D01*
X159398000Y-59243741D01*
X159237985Y-59273850D01*
X159091020Y-59368419D01*
X158992427Y-59512715D01*
X158957741Y-59684000D01*
X158957741Y-59833549D01*
X158316066Y-60475224D01*
X158167403Y-60697713D01*
X158150495Y-60782715D01*
X158115200Y-60960158D01*
X158115200Y-60986323D01*
X158069327Y-61096797D01*
X158069073Y-61387925D01*
X158180248Y-61656990D01*
X158385927Y-61863028D01*
X158654797Y-61974673D01*
X158945925Y-61974927D01*
X158978001Y-61961673D01*
X158987850Y-62014015D01*
X159002895Y-62037395D01*
X158992427Y-62052715D01*
X158957741Y-62224000D01*
X158957741Y-63124000D01*
X158987850Y-63284015D01*
X159002895Y-63307395D01*
X158992427Y-63322715D01*
X158957741Y-63494000D01*
X158957741Y-64394000D01*
X158987850Y-64554015D01*
X159002895Y-64577395D01*
X158992427Y-64592715D01*
X158957741Y-64764000D01*
X158957741Y-65664000D01*
X158987850Y-65824015D01*
X159002895Y-65847395D01*
X158992427Y-65862715D01*
X158957741Y-66034000D01*
X158957741Y-66934000D01*
X158987850Y-67094015D01*
X159002895Y-67117395D01*
X158992427Y-67132715D01*
X158957741Y-67304000D01*
X158957741Y-68204000D01*
X158987850Y-68364015D01*
X159002895Y-68387395D01*
X158992427Y-68402715D01*
X158957741Y-68574000D01*
X158957741Y-69474000D01*
X158987850Y-69634015D01*
X159002895Y-69657395D01*
X158992427Y-69672715D01*
X158957741Y-69844000D01*
X158957741Y-70744000D01*
X158987850Y-70904015D01*
X159002895Y-70927395D01*
X158992427Y-70942715D01*
X158957741Y-71114000D01*
X158957741Y-72014000D01*
X158987850Y-72174015D01*
X159002895Y-72197395D01*
X158992427Y-72212715D01*
X158957741Y-72384000D01*
X158957741Y-73284000D01*
X158987850Y-73444015D01*
X159002895Y-73467395D01*
X158992427Y-73482715D01*
X158957741Y-73654000D01*
X158957741Y-74554000D01*
X158987850Y-74714015D01*
X159002895Y-74737395D01*
X158992427Y-74752715D01*
X158957741Y-74924000D01*
X158957741Y-75250400D01*
X158185327Y-74477985D01*
X158185327Y-71122179D01*
X158187229Y-71120280D01*
X158283617Y-70888151D01*
X158283837Y-70636806D01*
X158187854Y-70404508D01*
X158010280Y-70226625D01*
X157778151Y-70130237D01*
X157526806Y-70130017D01*
X157441016Y-70165465D01*
X157381353Y-70105698D01*
X157149224Y-70009310D01*
X156897879Y-70009090D01*
X156665581Y-70105073D01*
X156487698Y-70282647D01*
X156391310Y-70514776D01*
X156391090Y-70766121D01*
X156487073Y-70998419D01*
X156489600Y-71000950D01*
X156489600Y-75086000D01*
X156530203Y-75290123D01*
X156645829Y-75463171D01*
X158296827Y-77114168D01*
X158296829Y-77114171D01*
X158454616Y-77219600D01*
X158469877Y-77229797D01*
X158674000Y-77270401D01*
X158674005Y-77270400D01*
X160391836Y-77270400D01*
X160424073Y-77348419D01*
X160565118Y-77489710D01*
X159692239Y-78362589D01*
X156518259Y-78362589D01*
X156518259Y-76064000D01*
X156488150Y-75903985D01*
X156393581Y-75757020D01*
X156249285Y-75658427D01*
X156130876Y-75634449D01*
X156130910Y-75595879D01*
X156034927Y-75363581D01*
X155857353Y-75185698D01*
X155625224Y-75089310D01*
X155373879Y-75089090D01*
X155141581Y-75185073D01*
X154963698Y-75362647D01*
X154867310Y-75594776D01*
X154867274Y-75635744D01*
X154808000Y-75623741D01*
X154751148Y-75623741D01*
X154735171Y-75599829D01*
X154098171Y-74962829D01*
X153925123Y-74847203D01*
X153721000Y-74806600D01*
X152811252Y-74806600D01*
X152809353Y-74804698D01*
X152577224Y-74708310D01*
X152325879Y-74708090D01*
X152093581Y-74804073D01*
X151915698Y-74981647D01*
X151819310Y-75213776D01*
X151819090Y-75465121D01*
X151884630Y-75623741D01*
X151368000Y-75623741D01*
X151207985Y-75653850D01*
X151184605Y-75668895D01*
X151169285Y-75658427D01*
X150998000Y-75623741D01*
X150098000Y-75623741D01*
X149937985Y-75653850D01*
X149914605Y-75668895D01*
X149899285Y-75658427D01*
X149728000Y-75623741D01*
X148828000Y-75623741D01*
X148667985Y-75653850D01*
X148644605Y-75668895D01*
X148629285Y-75658427D01*
X148458000Y-75623741D01*
X147558000Y-75623741D01*
X147397985Y-75653850D01*
X147374605Y-75668895D01*
X147359285Y-75658427D01*
X147271400Y-75640630D01*
X147271400Y-74961005D01*
X147271401Y-74961000D01*
X147230797Y-74756877D01*
X147115171Y-74583829D01*
X147113908Y-74582566D01*
X147113910Y-74579879D01*
X147017927Y-74347581D01*
X146840353Y-74169698D01*
X146608224Y-74073310D01*
X146356879Y-74073090D01*
X146124581Y-74169073D01*
X145946698Y-74346647D01*
X145850310Y-74578776D01*
X145850090Y-74830121D01*
X145946073Y-75062419D01*
X146123647Y-75240302D01*
X146204600Y-75273916D01*
X146204600Y-75639434D01*
X146127985Y-75653850D01*
X146104605Y-75668895D01*
X146089285Y-75658427D01*
X146001400Y-75640630D01*
X146001400Y-75469005D01*
X146001401Y-75469000D01*
X145960797Y-75264877D01*
X145845171Y-75091829D01*
X145843908Y-75090566D01*
X145843910Y-75087879D01*
X145747927Y-74855581D01*
X145570353Y-74677698D01*
X145338224Y-74581310D01*
X145086879Y-74581090D01*
X144854581Y-74677073D01*
X144676698Y-74854647D01*
X144580310Y-75086776D01*
X144580090Y-75338121D01*
X144676073Y-75570419D01*
X144797934Y-75692492D01*
X144711020Y-75748419D01*
X144612427Y-75892715D01*
X144577741Y-76064000D01*
X144577741Y-78362589D01*
X144289930Y-78362589D01*
X143303171Y-77375829D01*
X143130123Y-77260203D01*
X142926000Y-77219600D01*
X139493449Y-77219600D01*
X139483003Y-73409582D01*
X139483001Y-73408187D01*
X139490548Y-65206259D01*
X140170000Y-65206259D01*
X140257741Y-65189749D01*
X140257741Y-65664000D01*
X140287850Y-65824015D01*
X140302895Y-65847395D01*
X140292427Y-65862715D01*
X140257741Y-66034000D01*
X140257741Y-66934000D01*
X140287850Y-67094015D01*
X140302895Y-67117395D01*
X140292427Y-67132715D01*
X140257741Y-67304000D01*
X140257741Y-68204000D01*
X140287850Y-68364015D01*
X140302895Y-68387395D01*
X140292427Y-68402715D01*
X140257741Y-68574000D01*
X140257741Y-69474000D01*
X140287850Y-69634015D01*
X140302895Y-69657395D01*
X140292427Y-69672715D01*
X140257741Y-69844000D01*
X140257741Y-70744000D01*
X140287850Y-70904015D01*
X140302895Y-70927395D01*
X140292427Y-70942715D01*
X140257741Y-71114000D01*
X140257741Y-72014000D01*
X140287850Y-72174015D01*
X140302895Y-72197395D01*
X140292427Y-72212715D01*
X140257741Y-72384000D01*
X140257741Y-73284000D01*
X140287850Y-73444015D01*
X140302895Y-73467395D01*
X140292427Y-73482715D01*
X140257741Y-73654000D01*
X140257741Y-74554000D01*
X140287850Y-74714015D01*
X140302895Y-74737395D01*
X140292427Y-74752715D01*
X140257741Y-74924000D01*
X140257741Y-75824000D01*
X140287850Y-75984015D01*
X140382419Y-76130980D01*
X140526715Y-76229573D01*
X140698000Y-76264259D01*
X142998000Y-76264259D01*
X143158015Y-76234150D01*
X143304980Y-76139581D01*
X143403573Y-75995285D01*
X143434124Y-75844419D01*
X143434776Y-75844690D01*
X143686121Y-75844910D01*
X143918419Y-75748927D01*
X144096302Y-75571353D01*
X144192690Y-75339224D01*
X144192910Y-75087879D01*
X144096927Y-74855581D01*
X143919353Y-74677698D01*
X143687224Y-74581310D01*
X143435879Y-74581090D01*
X143432490Y-74582490D01*
X143438259Y-74554000D01*
X143438259Y-73654000D01*
X143408150Y-73493985D01*
X143393105Y-73470605D01*
X143403573Y-73455285D01*
X143438259Y-73284000D01*
X143438259Y-72384000D01*
X143408150Y-72223985D01*
X143393105Y-72200605D01*
X143403573Y-72185285D01*
X143438259Y-72014000D01*
X143438259Y-71114000D01*
X143408150Y-70953985D01*
X143393105Y-70930605D01*
X143403573Y-70915285D01*
X143438259Y-70744000D01*
X143438259Y-70512121D01*
X145723090Y-70512121D01*
X145819073Y-70744419D01*
X145821600Y-70746950D01*
X145821600Y-70768000D01*
X145862203Y-70972123D01*
X145977829Y-71145171D01*
X147247092Y-72414434D01*
X147247090Y-72417121D01*
X147343073Y-72649419D01*
X147520647Y-72827302D01*
X147752776Y-72923690D01*
X148004121Y-72923910D01*
X148236419Y-72827927D01*
X148302981Y-72761480D01*
X148387776Y-72796690D01*
X148639121Y-72796910D01*
X148871419Y-72700927D01*
X149049302Y-72523353D01*
X149145690Y-72291224D01*
X149145910Y-72039879D01*
X149049927Y-71807581D01*
X148872353Y-71629698D01*
X148640224Y-71533310D01*
X148636649Y-71533307D01*
X147650400Y-70547058D01*
X147650400Y-70366031D01*
X147779302Y-70237353D01*
X147875690Y-70005224D01*
X147875910Y-69753879D01*
X147779927Y-69521581D01*
X147602353Y-69343698D01*
X147370224Y-69247310D01*
X147118879Y-69247090D01*
X146886581Y-69343073D01*
X146708698Y-69520647D01*
X146612310Y-69752776D01*
X146612260Y-69809721D01*
X146481224Y-69755310D01*
X146229879Y-69755090D01*
X145997581Y-69851073D01*
X145819698Y-70028647D01*
X145723310Y-70260776D01*
X145723090Y-70512121D01*
X143438259Y-70512121D01*
X143438259Y-69844000D01*
X143408150Y-69683985D01*
X143393105Y-69660605D01*
X143403573Y-69645285D01*
X143438259Y-69474000D01*
X143438259Y-68574000D01*
X143408150Y-68413985D01*
X143393105Y-68390605D01*
X143403573Y-68375285D01*
X143438259Y-68204000D01*
X143438259Y-67304000D01*
X143408150Y-67143985D01*
X143393105Y-67120605D01*
X143403573Y-67105285D01*
X143438259Y-66934000D01*
X143438259Y-66034000D01*
X143408150Y-65873985D01*
X143393105Y-65850605D01*
X143403573Y-65835285D01*
X143438259Y-65664000D01*
X143438259Y-64764000D01*
X143408337Y-64604977D01*
X143561776Y-64668690D01*
X143813121Y-64668910D01*
X144045419Y-64572927D01*
X144223302Y-64395353D01*
X144319690Y-64163224D01*
X144319910Y-63911879D01*
X144223927Y-63679581D01*
X144046353Y-63501698D01*
X143814224Y-63405310D01*
X143562879Y-63405090D01*
X143431726Y-63459281D01*
X143408150Y-63333985D01*
X143393105Y-63310605D01*
X143403573Y-63295285D01*
X143420251Y-63212924D01*
X143561776Y-63271690D01*
X143813121Y-63271910D01*
X144045419Y-63175927D01*
X144223302Y-62998353D01*
X144319690Y-62766224D01*
X144319910Y-62514879D01*
X144223927Y-62282581D01*
X144046353Y-62104698D01*
X143814224Y-62008310D01*
X143562879Y-62008090D01*
X143409553Y-62071443D01*
X143408150Y-62063985D01*
X143393105Y-62040605D01*
X143403573Y-62025285D01*
X143438259Y-61854000D01*
X143438259Y-60954000D01*
X143408150Y-60793985D01*
X143393105Y-60770605D01*
X143403573Y-60755285D01*
X143438259Y-60584000D01*
X143438259Y-59684000D01*
X143408150Y-59523985D01*
X143313581Y-59377020D01*
X143169285Y-59278427D01*
X142998000Y-59243741D01*
X140698000Y-59243741D01*
X140537985Y-59273850D01*
X140391020Y-59368419D01*
X140292427Y-59512715D01*
X140257741Y-59684000D01*
X140257741Y-60584000D01*
X140287850Y-60744015D01*
X140302895Y-60767395D01*
X140292427Y-60782715D01*
X140257741Y-60954000D01*
X140257741Y-61854000D01*
X140287850Y-62014015D01*
X140302895Y-62037395D01*
X140292427Y-62052715D01*
X140257741Y-62224000D01*
X140257741Y-62743509D01*
X140170000Y-62725741D01*
X139492831Y-62725741D01*
X139496521Y-58715152D01*
X139527931Y-58557907D01*
X139610005Y-58435227D01*
X139732762Y-58353265D01*
X139890036Y-58322000D01*
X163106491Y-58322000D01*
X163263851Y-58353301D01*
X163263851Y-58353301D01*
G37*
X163263851Y-58353301D02*
X163386648Y-58435352D01*
X163468699Y-58558149D01*
X163500000Y-58715509D01*
X163500000Y-62860176D01*
X162138259Y-61498435D01*
X162138259Y-60954000D01*
X162108150Y-60793985D01*
X162093105Y-60770605D01*
X162103573Y-60755285D01*
X162138259Y-60584000D01*
X162138259Y-59684000D01*
X162108150Y-59523985D01*
X162013581Y-59377020D01*
X161869285Y-59278427D01*
X161698000Y-59243741D01*
X159398000Y-59243741D01*
X159237985Y-59273850D01*
X159091020Y-59368419D01*
X158992427Y-59512715D01*
X158957741Y-59684000D01*
X158957741Y-59833549D01*
X158316066Y-60475224D01*
X158167403Y-60697713D01*
X158150495Y-60782715D01*
X158115200Y-60960158D01*
X158115200Y-60986323D01*
X158069327Y-61096797D01*
X158069073Y-61387925D01*
X158180248Y-61656990D01*
X158385927Y-61863028D01*
X158654797Y-61974673D01*
X158945925Y-61974927D01*
X158978001Y-61961673D01*
X158987850Y-62014015D01*
X159002895Y-62037395D01*
X158992427Y-62052715D01*
X158957741Y-62224000D01*
X158957741Y-63124000D01*
X158987850Y-63284015D01*
X159002895Y-63307395D01*
X158992427Y-63322715D01*
X158957741Y-63494000D01*
X158957741Y-64394000D01*
X158987850Y-64554015D01*
X159002895Y-64577395D01*
X158992427Y-64592715D01*
X158957741Y-64764000D01*
X158957741Y-65664000D01*
X158987850Y-65824015D01*
X159002895Y-65847395D01*
X158992427Y-65862715D01*
X158957741Y-66034000D01*
X158957741Y-66934000D01*
X158987850Y-67094015D01*
X159002895Y-67117395D01*
X158992427Y-67132715D01*
X158957741Y-67304000D01*
X158957741Y-68204000D01*
X158987850Y-68364015D01*
X159002895Y-68387395D01*
X158992427Y-68402715D01*
X158957741Y-68574000D01*
X158957741Y-69474000D01*
X158987850Y-69634015D01*
X159002895Y-69657395D01*
X158992427Y-69672715D01*
X158957741Y-69844000D01*
X158957741Y-70744000D01*
X158987850Y-70904015D01*
X159002895Y-70927395D01*
X158992427Y-70942715D01*
X158957741Y-71114000D01*
X158957741Y-72014000D01*
X158987850Y-72174015D01*
X159002895Y-72197395D01*
X158992427Y-72212715D01*
X158957741Y-72384000D01*
X158957741Y-73284000D01*
X158987850Y-73444015D01*
X159002895Y-73467395D01*
X158992427Y-73482715D01*
X158957741Y-73654000D01*
X158957741Y-74554000D01*
X158987850Y-74714015D01*
X159002895Y-74737395D01*
X158992427Y-74752715D01*
X158957741Y-74924000D01*
X158957741Y-75250400D01*
X158185327Y-74477985D01*
X158185327Y-71122179D01*
X158187229Y-71120280D01*
X158283617Y-70888151D01*
X158283837Y-70636806D01*
X158187854Y-70404508D01*
X158010280Y-70226625D01*
X157778151Y-70130237D01*
X157526806Y-70130017D01*
X157441016Y-70165465D01*
X157381353Y-70105698D01*
X157149224Y-70009310D01*
X156897879Y-70009090D01*
X156665581Y-70105073D01*
X156487698Y-70282647D01*
X156391310Y-70514776D01*
X156391090Y-70766121D01*
X156487073Y-70998419D01*
X156489600Y-71000950D01*
X156489600Y-75086000D01*
X156530203Y-75290123D01*
X156645829Y-75463171D01*
X158296827Y-77114168D01*
X158296829Y-77114171D01*
X158454616Y-77219600D01*
X158469877Y-77229797D01*
X158674000Y-77270401D01*
X158674005Y-77270400D01*
X160391836Y-77270400D01*
X160424073Y-77348419D01*
X160565118Y-77489710D01*
X159692239Y-78362589D01*
X156518259Y-78362589D01*
X156518259Y-76064000D01*
X156488150Y-75903985D01*
X156393581Y-75757020D01*
X156249285Y-75658427D01*
X156130876Y-75634449D01*
X156130910Y-75595879D01*
X156034927Y-75363581D01*
X155857353Y-75185698D01*
X155625224Y-75089310D01*
X155373879Y-75089090D01*
X155141581Y-75185073D01*
X154963698Y-75362647D01*
X154867310Y-75594776D01*
X154867274Y-75635744D01*
X154808000Y-75623741D01*
X154751148Y-75623741D01*
X154735171Y-75599829D01*
X154098171Y-74962829D01*
X153925123Y-74847203D01*
X153721000Y-74806600D01*
X152811252Y-74806600D01*
X152809353Y-74804698D01*
X152577224Y-74708310D01*
X152325879Y-74708090D01*
X152093581Y-74804073D01*
X151915698Y-74981647D01*
X151819310Y-75213776D01*
X151819090Y-75465121D01*
X151884630Y-75623741D01*
X151368000Y-75623741D01*
X151207985Y-75653850D01*
X151184605Y-75668895D01*
X151169285Y-75658427D01*
X150998000Y-75623741D01*
X150098000Y-75623741D01*
X149937985Y-75653850D01*
X149914605Y-75668895D01*
X149899285Y-75658427D01*
X149728000Y-75623741D01*
X148828000Y-75623741D01*
X148667985Y-75653850D01*
X148644605Y-75668895D01*
X148629285Y-75658427D01*
X148458000Y-75623741D01*
X147558000Y-75623741D01*
X147397985Y-75653850D01*
X147374605Y-75668895D01*
X147359285Y-75658427D01*
X147271400Y-75640630D01*
X147271400Y-74961005D01*
X147271401Y-74961000D01*
X147230797Y-74756877D01*
X147115171Y-74583829D01*
X147113908Y-74582566D01*
X147113910Y-74579879D01*
X147017927Y-74347581D01*
X146840353Y-74169698D01*
X146608224Y-74073310D01*
X146356879Y-74073090D01*
X146124581Y-74169073D01*
X145946698Y-74346647D01*
X145850310Y-74578776D01*
X145850090Y-74830121D01*
X145946073Y-75062419D01*
X146123647Y-75240302D01*
X146204600Y-75273916D01*
X146204600Y-75639434D01*
X146127985Y-75653850D01*
X146104605Y-75668895D01*
X146089285Y-75658427D01*
X146001400Y-75640630D01*
X146001400Y-75469005D01*
X146001401Y-75469000D01*
X145960797Y-75264877D01*
X145845171Y-75091829D01*
X145843908Y-75090566D01*
X145843910Y-75087879D01*
X145747927Y-74855581D01*
X145570353Y-74677698D01*
X145338224Y-74581310D01*
X145086879Y-74581090D01*
X144854581Y-74677073D01*
X144676698Y-74854647D01*
X144580310Y-75086776D01*
X144580090Y-75338121D01*
X144676073Y-75570419D01*
X144797934Y-75692492D01*
X144711020Y-75748419D01*
X144612427Y-75892715D01*
X144577741Y-76064000D01*
X144577741Y-78362589D01*
X144289930Y-78362589D01*
X143303171Y-77375829D01*
X143130123Y-77260203D01*
X142926000Y-77219600D01*
X139493449Y-77219600D01*
X139483003Y-73409582D01*
X139483001Y-73408187D01*
X139490548Y-65206259D01*
X140170000Y-65206259D01*
X140257741Y-65189749D01*
X140257741Y-65664000D01*
X140287850Y-65824015D01*
X140302895Y-65847395D01*
X140292427Y-65862715D01*
X140257741Y-66034000D01*
X140257741Y-66934000D01*
X140287850Y-67094015D01*
X140302895Y-67117395D01*
X140292427Y-67132715D01*
X140257741Y-67304000D01*
X140257741Y-68204000D01*
X140287850Y-68364015D01*
X140302895Y-68387395D01*
X140292427Y-68402715D01*
X140257741Y-68574000D01*
X140257741Y-69474000D01*
X140287850Y-69634015D01*
X140302895Y-69657395D01*
X140292427Y-69672715D01*
X140257741Y-69844000D01*
X140257741Y-70744000D01*
X140287850Y-70904015D01*
X140302895Y-70927395D01*
X140292427Y-70942715D01*
X140257741Y-71114000D01*
X140257741Y-72014000D01*
X140287850Y-72174015D01*
X140302895Y-72197395D01*
X140292427Y-72212715D01*
X140257741Y-72384000D01*
X140257741Y-73284000D01*
X140287850Y-73444015D01*
X140302895Y-73467395D01*
X140292427Y-73482715D01*
X140257741Y-73654000D01*
X140257741Y-74554000D01*
X140287850Y-74714015D01*
X140302895Y-74737395D01*
X140292427Y-74752715D01*
X140257741Y-74924000D01*
X140257741Y-75824000D01*
X140287850Y-75984015D01*
X140382419Y-76130980D01*
X140526715Y-76229573D01*
X140698000Y-76264259D01*
X142998000Y-76264259D01*
X143158015Y-76234150D01*
X143304980Y-76139581D01*
X143403573Y-75995285D01*
X143434124Y-75844419D01*
X143434776Y-75844690D01*
X143686121Y-75844910D01*
X143918419Y-75748927D01*
X144096302Y-75571353D01*
X144192690Y-75339224D01*
X144192910Y-75087879D01*
X144096927Y-74855581D01*
X143919353Y-74677698D01*
X143687224Y-74581310D01*
X143435879Y-74581090D01*
X143432490Y-74582490D01*
X143438259Y-74554000D01*
X143438259Y-73654000D01*
X143408150Y-73493985D01*
X143393105Y-73470605D01*
X143403573Y-73455285D01*
X143438259Y-73284000D01*
X143438259Y-72384000D01*
X143408150Y-72223985D01*
X143393105Y-72200605D01*
X143403573Y-72185285D01*
X143438259Y-72014000D01*
X143438259Y-71114000D01*
X143408150Y-70953985D01*
X143393105Y-70930605D01*
X143403573Y-70915285D01*
X143438259Y-70744000D01*
X143438259Y-70512121D01*
X145723090Y-70512121D01*
X145819073Y-70744419D01*
X145821600Y-70746950D01*
X145821600Y-70768000D01*
X145862203Y-70972123D01*
X145977829Y-71145171D01*
X147247092Y-72414434D01*
X147247090Y-72417121D01*
X147343073Y-72649419D01*
X147520647Y-72827302D01*
X147752776Y-72923690D01*
X148004121Y-72923910D01*
X148236419Y-72827927D01*
X148302981Y-72761480D01*
X148387776Y-72796690D01*
X148639121Y-72796910D01*
X148871419Y-72700927D01*
X149049302Y-72523353D01*
X149145690Y-72291224D01*
X149145910Y-72039879D01*
X149049927Y-71807581D01*
X148872353Y-71629698D01*
X148640224Y-71533310D01*
X148636649Y-71533307D01*
X147650400Y-70547058D01*
X147650400Y-70366031D01*
X147779302Y-70237353D01*
X147875690Y-70005224D01*
X147875910Y-69753879D01*
X147779927Y-69521581D01*
X147602353Y-69343698D01*
X147370224Y-69247310D01*
X147118879Y-69247090D01*
X146886581Y-69343073D01*
X146708698Y-69520647D01*
X146612310Y-69752776D01*
X146612260Y-69809721D01*
X146481224Y-69755310D01*
X146229879Y-69755090D01*
X145997581Y-69851073D01*
X145819698Y-70028647D01*
X145723310Y-70260776D01*
X145723090Y-70512121D01*
X143438259Y-70512121D01*
X143438259Y-69844000D01*
X143408150Y-69683985D01*
X143393105Y-69660605D01*
X143403573Y-69645285D01*
X143438259Y-69474000D01*
X143438259Y-68574000D01*
X143408150Y-68413985D01*
X143393105Y-68390605D01*
X143403573Y-68375285D01*
X143438259Y-68204000D01*
X143438259Y-67304000D01*
X143408150Y-67143985D01*
X143393105Y-67120605D01*
X143403573Y-67105285D01*
X143438259Y-66934000D01*
X143438259Y-66034000D01*
X143408150Y-65873985D01*
X143393105Y-65850605D01*
X143403573Y-65835285D01*
X143438259Y-65664000D01*
X143438259Y-64764000D01*
X143408337Y-64604977D01*
X143561776Y-64668690D01*
X143813121Y-64668910D01*
X144045419Y-64572927D01*
X144223302Y-64395353D01*
X144319690Y-64163224D01*
X144319910Y-63911879D01*
X144223927Y-63679581D01*
X144046353Y-63501698D01*
X143814224Y-63405310D01*
X143562879Y-63405090D01*
X143431726Y-63459281D01*
X143408150Y-63333985D01*
X143393105Y-63310605D01*
X143403573Y-63295285D01*
X143420251Y-63212924D01*
X143561776Y-63271690D01*
X143813121Y-63271910D01*
X144045419Y-63175927D01*
X144223302Y-62998353D01*
X144319690Y-62766224D01*
X144319910Y-62514879D01*
X144223927Y-62282581D01*
X144046353Y-62104698D01*
X143814224Y-62008310D01*
X143562879Y-62008090D01*
X143409553Y-62071443D01*
X143408150Y-62063985D01*
X143393105Y-62040605D01*
X143403573Y-62025285D01*
X143438259Y-61854000D01*
X143438259Y-60954000D01*
X143408150Y-60793985D01*
X143393105Y-60770605D01*
X143403573Y-60755285D01*
X143438259Y-60584000D01*
X143438259Y-59684000D01*
X143408150Y-59523985D01*
X143313581Y-59377020D01*
X143169285Y-59278427D01*
X142998000Y-59243741D01*
X140698000Y-59243741D01*
X140537985Y-59273850D01*
X140391020Y-59368419D01*
X140292427Y-59512715D01*
X140257741Y-59684000D01*
X140257741Y-60584000D01*
X140287850Y-60744015D01*
X140302895Y-60767395D01*
X140292427Y-60782715D01*
X140257741Y-60954000D01*
X140257741Y-61854000D01*
X140287850Y-62014015D01*
X140302895Y-62037395D01*
X140292427Y-62052715D01*
X140257741Y-62224000D01*
X140257741Y-62743509D01*
X140170000Y-62725741D01*
X139492831Y-62725741D01*
X139496521Y-58715152D01*
X139527931Y-58557907D01*
X139610005Y-58435227D01*
X139732762Y-58353265D01*
X139890036Y-58322000D01*
X163106491Y-58322000D01*
X163263851Y-58353301D01*
M02*
