M48
;DRILL file {KiCad 4.0.6} date 09/04/17 18:40:53
;FORMAT={-:-/ absolute / metric / decimal}
FMAT,2
METRIC,TZ
T1C0.200
T2C0.300
T3C0.400
T4C0.508
T5C0.700
T6C0.800
T7C1.500
T8C1.900
%
G90
G05
M71
T1
X108.114Y-61.407
X108.636Y-72.774
X108.636Y-77.346
X109.017Y-66.831
X112.446Y-131.458
X112.7Y-74.705
X112.813Y-59.947
X113.067Y-57.407
X114.464Y-128.146
X115.099Y-100.206
X115.099Y-116.843
X116.115Y-128.146
X116.637Y-138.586
X116.877Y-126.495
X116.877Y-131.702
X117.512Y-109.858
X118.02Y-114.557
X118.898Y-137.498
X120.179Y-144.91
X120.814Y-137.671
X120.814Y-142.243
X121.322Y-144.529
X122.098Y-133.734
X122.338Y-138.179
X122.338Y-142.37
X124.638Y-132.474
X125.386Y-108.715
X125.513Y-104.143
X125.767Y-77.76
X125.987Y-119.764
X126.021Y-118.24
X126.148Y-115.446
X126.656Y-114.303
X126.783Y-114.938
X128.053Y-132.464
X131.863Y-105.667
X132.498Y-126.876
X132.512Y-138.713
X133.006Y-131.575
X134.53Y-102.111
X135.027Y-133.942
X136.435Y-118.621
X136.435Y-138.433
X136.576Y-123.584
X137.242Y-122.005
X137.959Y-138.433
X138.1Y-133.226
X138.594Y-102.873
X140.372Y-123.447
X140.499Y-117.351
X140.88Y-121.923
X141.134Y-111.89
X141.769Y-123.701
X143.561Y-75.213
X143.688Y-62.64
X143.688Y-64.037
X143.864Y-132.4
X144.944Y-116.716
X145.212Y-75.213
X146.355Y-70.387
X146.482Y-74.705
X147.244Y-69.879
X147.738Y-113.16
X147.879Y-72.292
X148.006Y-126.251
X148.119Y-129.162
X148.373Y-138.306
X148.514Y-72.165
X149.022Y-91.85
X150.278Y-131.067
X150.898Y-63.056
X150.913Y-115.827
X151.421Y-132.654
X151.537Y-118.067
X151.548Y-115.319
X151.84Y-114.753
X152.31Y-138.687
X152.451Y-75.34
X152.818Y-121.796
X152.818Y-138.179
X153.067Y-75.788
X153.961Y-133.861
X154.088Y-121.796
X155.347Y-118.098
X155.499Y-75.721
X156.261Y-99.343
X156.617Y-118.098
X157.023Y-70.641
X157.404Y-121.822
X157.652Y-70.762
X157.887Y-112.098
X157.887Y-113.114
X157.887Y-114.13
X158.42Y-107.725
X158.42Y-105.82
X158.42Y-102.645
X158.42Y-103.915
X158.42Y-104.55
X158.42Y-105.185
X158.533Y-97.539
X158.801Y-61.243
X159.168Y-108.842
X159.182Y-98.184
X159.964Y-108.251
X160.325Y-105.185
X160.438Y-88.141
X160.452Y-102.137
X160.96Y-76.991
X161.341Y-76.483
X161.454Y-114.43
X161.962Y-114.938
X162.23Y-73.943
X162.47Y-115.446
X162.611Y-97.692
X162.738Y-75.34
X162.865Y-68.863
X162.865Y-70.006
X163.119Y-87.659
X163.119Y-90.199
X163.486Y-126.876
X163.613Y-129.171
X163.754Y-87.659
X163.754Y-87.659
X163.773Y-90.58
X164.006Y-77.137
X164.008Y-71.403
X164.008Y-82.198
X164.121Y-131.194
X164.121Y-138.56
X164.135Y-76.483
X164.389Y-83.214
X164.502Y-117.732
X164.745Y-125.687
X164.77Y-82.071
X165.645Y-97.793
X165.772Y-87.252
X166.153Y-112.144
X166.153Y-112.779
X166.153Y-113.414
X166.28Y-132.21
X166.675Y-99.518
X166.777Y-118.067
X166.851Y-133.353
X167.296Y-88.141
X167.296Y-131.448
X167.92Y-125.687
X167.931Y-138.687
X168.058Y-137.798
X168.326Y-103.661
X168.697Y-81.69
X168.834Y-63.529
X168.834Y-104.169
X168.946Y-92.859
X168.947Y-96.396
X168.947Y-92.205
X168.961Y-97.819
X168.993Y-87.887
X169.074Y-85.728
X169.342Y-104.677
X169.836Y-133.861
X170.09Y-84.229
X170.217Y-78.616
X170.485Y-98.819
X170.496Y-85.271
X170.579Y-108.827
X170.587Y-118.067
X170.706Y-105.779
X170.866Y-97.803
X171.12Y-89.929
X171.233Y-91.062
X171.233Y-91.677
X171.36Y-131.448
X171.468Y-94.222
X171.849Y-108.827
X171.857Y-118.067
X171.976Y-105.144
X172.898Y-78.388
X173.265Y-86.871
X173.392Y-90.3
X173.396Y-81.918
X173.914Y-89.421
X174.041Y-90.707
X174.168Y-92.231
X174.168Y-102.518
X174.408Y-108.842
X175.17Y-84.458
X175.551Y-132.273
X175.932Y-89.919
X175.946Y-74.403
X176.313Y-77.981
X176.708Y-74.705
X177.851Y-83.214
X178.486Y-76.562
X178.994Y-77.118
X178.994Y-83.341
X179.488Y-126.749
X179.615Y-98.428
X179.629Y-77.626
X179.629Y-97.692
X179.695Y-92.158
X179.742Y-90.808
X179.742Y-129.162
X179.756Y-62.64
X179.869Y-138.56
X179.996Y-83.696
X180.377Y-91.189
X180.772Y-85.5
X181.28Y-76.356
X181.661Y-75.975
X181.89Y-133.688
X182.296Y-76.229
X182.663Y-87.379
X183.107Y-132.591
X183.298Y-82.045
X183.425Y-131.448
X183.439Y-80.293
X183.536Y-95.342
X183.806Y-82.299
X183.806Y-138.56
X184.074Y-97.565
X184.568Y-86.368
X184.695Y-90.322
X184.829Y-85.392
X184.949Y-138.433
X185.203Y-86.871
X185.203Y-88.395
X185.33Y-85.855
X185.33Y-89.919
X185.584Y-133.861
X185.838Y-89.297
X186.36Y-84.611
X186.473Y-88.83
X186.487Y-95.406
X186.6Y-112.779
X187.235Y-131.448
X187.489Y-112.144
X187.884Y-96.549
X187.997Y-84.585
X188.632Y-92.078
X190.004Y-90.373
X190.52Y-89.751
X190.567Y-104.494
X191.045Y-89.205
X191.553Y-85.22
X191.807Y-88.776
X192.075Y-84.611
X192.315Y-90.427
X192.315Y-88.268
X192.569Y-86.871
X192.71Y-104.534
X193.218Y-83.722
X193.345Y-103.153
X193.726Y-69.752
X194.234Y-70.26
X194.488Y-87.405
X194.615Y-97.565
X194.869Y-100.232
X195.363Y-126.368
X195.617Y-138.56
X195.631Y-89.564
X195.744Y-129.416
X195.758Y-65.053
X195.885Y-97.692
X195.885Y-99.597
X196.887Y-76.584
X197.776Y-66.932
X197.776Y-76.584
X198.792Y-86.998
X199.427Y-138.687
X199.554Y-137.798
X199.568Y-107.963
X201.332Y-133.861
X205.664Y-79.769
T2
X135.052Y-79.023
X137.832Y-113.076
X143.209Y-107.699
X145.466Y-90.199
X145.766Y-82.117
X151.181Y-86.135
X156.628Y-93.856
X161.214Y-107.344
X166.661Y-114.049
X171.755Y-58.195
X177.248Y-110.112
X179.502Y-105.439
X190.537Y-106.556
X192.95Y-107.445
X196.76Y-68.964
X197.663Y-107.455
X198.806Y-133.113
X201.854Y-97.549
X204.888Y-68.583
T3
X114.159Y-76.965
X119.29Y-142.243
X135.052Y-142.37
X150.8Y-142.37
X166.548Y-142.37
X182.296Y-142.37
X198.044Y-142.37
T4
X189.902Y-130.623
T5
X102.413Y-129.773
X104.558Y-82.299
X110.668Y-80.902
X112.965Y-81.537
X115.24Y-64.646
X121.844Y-60.521
X122.Y-77.727
X122.084Y-105.54
X124.584Y-105.54
X127.084Y-105.54
X128.956Y-63.63
X129.584Y-105.54
X135.56Y-99.134
X136.195Y-70.387
X136.816Y-54.232
X139.864Y-84.204
X159.358Y-132.718
X167.183Y-100.978
X190.083Y-132.401
T6
X105.588Y-66.734
X105.588Y-70.234
X114.083Y-85.22
X117.583Y-85.22
X139.37Y-63.966
X139.37Y-67.466
T7
X145.833Y-100.841
T8
X106.59Y-108.49
X106.59Y-112.45
X106.59Y-116.41
X106.59Y-120.37
X106.688Y-89.538
X106.688Y-93.498
X106.688Y-97.458
X106.688Y-101.418
T0
M30
